<?xml version="1.0" encoding="UTF-8" standalone="no"?>
<!-- Created with Inkscape (http://www.inkscape.org/) -->

<svg
   xmlns:osb="http://www.openswatchbook.org/uri/2009/osb"
   xmlns:dc="http://purl.org/dc/elements/1.1/"
   xmlns:cc="http://creativecommons.org/ns#"
   xmlns:rdf="http://www.w3.org/1999/02/22-rdf-syntax-ns#"
   xmlns:svg="http://www.w3.org/2000/svg"
   xmlns="http://www.w3.org/2000/svg"
   xmlns:sodipodi="http://sodipodi.sourceforge.net/DTD/sodipodi-0.dtd"
   xmlns:inkscape="http://www.inkscape.org/namespaces/inkscape"
   width="920"
   height="680"
   viewBox="0 0 919.99996 680"
   id="svg2"
   version="1.1"
   inkscape:version="0.91 r13725"
   sodipodi:docname="World-Map_920.svg"
   inkscape:export-filename="/Users/leo/dev/timezone/promo/World-Map_1400.png"
   inkscape:export-xdpi="89.979164"
   inkscape:export-ydpi="89.979164">
  <defs
     id="defs4">
    <linearGradient
       osb:paint="solid"
       id="linearGradient5661">
      <stop
         id="stop5663"
         offset="0"
         style="stop-color:#000000;stop-opacity:1;" />
    </linearGradient>
  </defs>
  <sodipodi:namedview
     id="base"
     pagecolor="#ffffff"
     bordercolor="#666666"
     borderopacity="1.0"
     inkscape:pageopacity="0.0"
     inkscape:pageshadow="2"
     inkscape:zoom="0.35"
     inkscape:cx="717.60392"
     inkscape:cy="381.59989"
     inkscape:document-units="px"
     inkscape:current-layer="layer5"
     showgrid="false"
     inkscape:window-width="1440"
     inkscape:window-height="778"
     inkscape:window-x="0"
     inkscape:window-y="1"
     inkscape:window-maximized="1"
     units="px" />
  <metadata
     id="metadata7">
    <rdf:RDF>
      <cc:Work
         rdf:about="">
        <dc:format>image/svg+xml</dc:format>
        <dc:type
           rdf:resource="http://purl.org/dc/dcmitype/StillImage" />
        <dc:title></dc:title>
      </cc:Work>
    </rdf:RDF>
  </metadata>
  <g
     inkscape:groupmode="layer"
     id="layer5"
     inkscape:label="world map"
     style="display:inline"
     transform="translate(0,-312.12597)">
    <path
       style="fill:#e0e0e0;fill-opacity:1;fill-rule:evenodd;stroke:#000000;stroke-width:1px;stroke-linecap:butt;stroke-linejoin:miter;stroke-opacity:1"
       d="m 163.47335,382.07106 -12.57939,-9.81928 -30.54992,-3.50688 -19.16859,7.01377 -9.584289,-5.61102 -4.193129,-7.71514 -40.733233,5.61101 -20.366617,8.41653 1.198036,9.81926 -14.975454,-2.80551 0.599019,15.4303 -10.1833098,3.50689 -2.39607244,12.62478 8.38625394,8.41652 22.1636723,-10.52065 22.76269,-0.70137 12.579385,21.04129 0,27.3537 -5.391168,21.04129 -13.777416,27.3537 1.198035,27.3537 9.584292,16.13166 4.193128,35.77022 7.188218,2.8055 -7.188218,-27.35369 2.99509,-7.01376 4.193128,20.33991 8.985273,20.33993 4.792145,10.52066 -1.198039,11.22202 19.76761,18.2358 13.17839,0.70138 13.1784,10.52065 6.5892,1.40275 6.5892,17.53442 12.57938,10.52065 -5.39117,-12.62478 0.59903,-27.35369 -14.37644,-1.40276 6.5892,-28.05506 -7.78723,-1.40276 -6.58921,14.72891 -11.38134,1.40275 -7.78723,-11.22203 0.59901,-11.9234 4.79215,-23.84681 20.36662,-14.72891 2.99509,7.71515 4.79214,0 4.19312,-10.52066 10.78233,6.31239 3.59411,10.52065 2.39608,10.52066 5.39116,2.10413 1.79705,-4.90964 -1.79705,-14.72891 -0.59902,-11.22203 20.96563,-21.0413 18.56957,-30.86058 5.99018,-1.40276 1.79705,-5.611 13.1784,-12.62478 1.79706,10.52064 10.78233,-9.1179 11.98036,-4.90964 -2.39608,-4.90963 -8.38625,1.40275 -5.39116,-2.8055 7.18823,-7.71515 -14.97547,-0.70138 0,-4.20826 10.78233,-2.8055 13.77742,-0.70138 7.78723,0 7.78724,-11.9234 0,-7.71515 -3.59411,-1.40275 -2.39607,-7.01377 -3.59411,-4.20827 0,-16.13165 -12.57938,8.41652 -2.39608,-11.92342 -7.78723,-4.90963 -4.79214,0 -7.18822,7.71515 -3.59411,2.8055 -1.19804,18.93717 -12.57938,7.71515 -1.19803,11.9234 -7.78724,0 -1.79706,-10.52064 4.19313,-3.50689 -11.38135,-3.50689 -9.58428,-7.01377 -2.99509,-4.20825 0.59901,-9.81928 8.98527,-9.11789 11.38135,-5.61102 9.58429,-4.20826 1.79706,-9.81928 5.39116,4.20826 5.99018,-7.01376 10.78232,-3.50688 1.79707,-6.3124 -1.79707,-4.90963 -11.98036,9.1179 -1.79706,-7.71515 -2.99508,0 0,-9.1179 -5.99018,0 -10.78233,21.0413 -9.58429,-4.90963 -17.97055,0.70138 z"
       id="path4182"
       inkscape:connector-curvature="0" />
    <path
       style="fill:#e0e0e0;fill-opacity:1;fill-rule:evenodd;stroke:#000000;stroke-width:1px;stroke-linecap:butt;stroke-linejoin:miter;stroke-opacity:1"
       d="m 147.29986,357.52287 10.1833,4.20826 0,9.1179 12.57938,0 4.79215,-1.40275 7.18822,0.70137 7.18822,-3.50688 0,-11.22203 -10.78233,1.40276 -8.98528,-1.40276 -8.38625,-7.71514 -9.58429,0.70137 z"
       id="path4184"
       inkscape:connector-curvature="0" />
    <path
       style="fill:#e0e0e0;fill-opacity:1;fill-rule:evenodd;stroke:#000000;stroke-width:1px;stroke-linecap:butt;stroke-linejoin:miter;stroke-opacity:1"
       d="m 231.1624,365.9394 17.37153,-1.40276 5.99017,16.83304 -9.58429,9.1179 4.19313,7.01377 12.57939,7.01377 -0.59903,-11.22204 4.19313,0 -0.59902,-10.52065 5.39116,0 -1.19803,-10.52065 -4.19313,-6.31238 0,-5.61102 -13.1784,-9.11789 -14.37643,2.10412 -5.39116,-2.8055 -5.39117,7.01376 z"
       id="path4186"
       inkscape:connector-curvature="0" />
    <path
       style="fill:#e0e0e0;fill-opacity:1;fill-rule:evenodd;stroke:#000000;stroke-width:1px;stroke-linecap:butt;stroke-linejoin:miter;stroke-opacity:1"
       d="m 238.94963,326.6623 -0.59902,9.81927 16.77251,7.01377 8.38626,-3.50688 4.19312,-8.41653 32.34698,-9.1179 1.19804,7.71515 -14.97546,0.70138 -1.19803,7.71514 11.98036,1.40276 10.18331,15.43028 0,18.23579 -10.78233,0 4.19313,23.84682 11.98036,14.02754 9.5843,-16.83305 2.39607,-7.71514 16.17349,-6.3124 1.19803,-5.611 30.54993,-7.71515 1.79705,-19.63855 15.57447,-4.20826 0,-12.62478 10.78233,-6.3124 -2.39607,-7.71514 -16.17349,0.70138 -43.12931,-1.40275 -36.5401,0 -20.36662,-3.50689 -10.18331,2.10413 -5.99018,4.90964 -5.39117,2.8055 z"
       id="path4188"
       inkscape:connector-curvature="0" />
    <path
       style="fill:#e0e0e0;fill-opacity:1;fill-rule:evenodd;stroke:#000000;stroke-width:1px;stroke-linecap:butt;stroke-linejoin:miter;stroke-opacity:1"
       d="m 182.04291,655.60799 -14.97546,21.0413 2.39607,14.72892 -14.37643,33.66608 1.79705,7.71515 1.79706,3.50687 -4.19313,3.5069 -0.59902,9.11789 4.79215,9.1179 7.78723,17.53442 8.38626,19.63854 11.38134,10.52066 4.19313,4.90964 5.39116,1.40275 2.39607,6.31239 1.19804,109.41477 4.79215,6.3124 4.19313,11.22203 0.59901,7.71514 -3.5941,8.41652 5.99018,12.62478 12.57938,16.83304 8.38626,0.70137 -2.9951,-10.52064 3.5941,-9.81928 -0.599,-11.22202 -5.99019,0 0.59902,-6.3124 4.79215,-7.71513 0,-6.31241 -4.79215,-5.611 1.79706,-3.50689 4.79214,3.50689 1.79705,-2.80552 -0.59901,-10.52064 5.39116,0 2.39607,1.40276 7.78724,-14.72892 -9.5843,-7.01377 0.59902,-6.31239 9.5843,6.31239 10.1833,-20.33992 7.78724,-24.54819 -1.79705,-7.71514 20.96564,-11.22203 4.79214,-15.4303 1.79705,-32.26332 2.99509,-14.02753 7.78724,-14.72892 1.79705,-10.52066 -11.38134,-10.52064 -8.98528,-5.61102 -13.77742,0 -3.5941,-8.41652 -9.58429,-1.40275 -9.58429,0 5.39116,-10.52066 -3.59411,-12.62478 -5.39117,-7.01376 -4.79214,0 -6.5892,-7.71515 -7.78724,-7.01376 -6.58919,-5.61102 -5.99018,-6.31238 -13.77742,-2.80552 -5.39117,-4.90964 -4.19312,-1.40274 -3.59412,14.02753 -1.79705,-8.41653 z"
       id="path4190"
       inkscape:connector-curvature="0" />
    <path
       style="fill:#e0e0e0;fill-opacity:1;fill-rule:evenodd;stroke:#000000;stroke-width:1px;stroke-linecap:butt;stroke-linejoin:miter;stroke-opacity:1"
       d="m 406.67472,539.17945 48.52047,-11.9234 0.59901,17.53442 15.57448,11.22202 13.77741,5.61102 3.59411,-12.62478 12.57938,9.1179 26.95582,0 7.78724,-17.53443 -1.19803,-9.1179 -24.55975,-2.10413 -4.79215,-5.61101 0,-18.23579 -10.1833,5.61101 3.5941,11.92341 -4.19312,5.61101 -8.38626,-11.22203 -4.19313,-9.11789 -0.59901,-6.3124 -19.16858,-17.53441 0,7.71514 10.1833,9.81927 4.19314,5.61102 2.99508,5.61101 -0.99799,0.98145 -3.60034,-2.47975 0.84714,6.19936 -7.41247,8.43112 -4.44748,-3.47163 3.81213,-1.48784 3.38855,-5.45544 -9.95389,-13.63858 -9.10675,-10.16694 -3.81213,-1.23986 0,6.94327 -11.43638,0.74392 -6.56533,11.15884 -4.02391,2.97569 -1.69428,11.15883 -9.74211,6.19935 -10.37747,-0.24797 -6.98889,-3.96759 0.21178,-27.52513 6.14176,-6.94327 6.77712,0.9919 4.44748,4.71151 1.90607,0.99189 2.96499,-4.46353 1.69427,-5.45543 -2.11784,-6.94328 -5.92998,-5.20745 0,-2.47974 7.83604,-0.49595 -4.87105,-4.46355 0.21179,-4.7115 10.80102,0.24798 6.77712,-9.91896 5.08284,-0.24798 0.42356,-5.95138 5.08284,-2.47974 6.77712,-7.6872 4.44749,2.97569 7.83604,-3.22367 4.65926,4.46354 8.04784,-3.22366 5.92997,0.49594 2.32963,-10.66289 6.98891,-0.99189 -0.21179,-11.40681 5.08284,1.23987 2.7532,-0.9919 0.21178,-5.20745 -11.43638,0 -2.32963,-5.45543 -0.21179,-4.21557 4.44749,-6.94327 -0.63536,-4.21556 -4.2357,0.74392 -8.04783,8.6791 -1.05892,9.42301 2.11785,7.19125 -4.65927,9.42302 -5.29462,7.19125 -3.17678,1.98379 -2.11784,-1.48784 -3.17677,-7.19124 -11.64818,-10.6629 -1.48249,3.96759 -3.38856,0 0.21179,-16.86225 7.41247,-0.74391 1.69427,-6.94328 27.53204,-30.50082 21.60207,0 26.04954,12.15073 -0.21179,6.94328 -2.7532,1.73581 -3.60034,-0.74391 -2.75321,-2.47975 -4.87105,0.74392 0.84714,4.95948 7.62426,7.6872 13.34245,-13.3906 13.9778,-7.43922 15.24851,-0.49595 6.14176,-6.44733 7.20068,6.44733 14.8249,0.49595 -1.4825,-4.46354 -5.50635,-7.68719 0,-8.92707 8.89492,0.24797 5.08288,11.15883 1.27068,14.13453 6.1418,0.24798 -0.42358,-6.94328 -4.6593,-12.89465 2.96498,0.49595 4.44749,11.90276 2.75323,-0.24798 -0.42358,-18.59806 22.44917,-3.71962 9.53036,-10.16693 35.15629,1.98379 1.27068,6.19936 -4.44749,5.95138 0,2.23176 15.67211,0.74393 6.14179,3.22366 9.10672,0 4.23572,-3.96759 11.43638,-0.24798 6.35356,5.70341 23.08451,3.47164 6.77714,-11.15883 2.54141,-0.49595 10.1657,9.42302 29.43806,0 4.23573,4.46353 16.94277,0.24797 12.49529,5.70341 3.81214,-1.23987 2.54142,-5.70341 6.14179,2.72772 10.58922,0.99189 10.80105,4.46353 6.35355,3.47165 16.30744,0.99189 7.83604,7.68719 0,3.22367 -6.98889,0.49596 -9.53036,-4.71152 -5.29458,5.45543 10.16564,7.93517 0.63534,4.21556 -6.98889,2.23177 -6.9889,10.91086 -1.48249,0 0,-7.68719 -1.48249,0.99189 -7.83606,6.6953 0.21182,5.95138 3.81209,0.9919 3.60038,3.71962 0.42358,30.99676 -2.75322,-0.74392 -8.68321,-12.15073 0,-6.94328 -8.68315,-7.93517 -0.21182,-10.6629 2.54146,-4.21555 0.21177,-10.91086 -5.08282,0.49594 -2.54141,2.72772 -3.81215,-1.23987 -1.05891,-1.73583 -2.11789,0 -2.96499,14.13453 -6.14174,1.23988 -20.54316,-4.46354 -7.62423,10.41491 -0.21176,14.87845 0.21176,2.47975 20.33134,1.98379 7.83605,14.87844 0.21176,27.77311 -4.0239,7.19125 -7.41247,0.74392 -2.75318,6.19935 -1.69431,10.6629 1.48249,6.19935 9.95388,10.66288 0.42359,7.19125 -4.44749,4.46354 -4.65924,0.24797 -2.32966,-2.47974 -0.21175,-8.92707 -7.41247,-5.95138 -0.21182,-6.19936 -4.65925,-4.46352 -3.60032,5.45543 -2.54147,-1.48786 -1.27068,-11.65478 -2.96498,0.74393 -8.89497,17.85413 0,2.47974 15.88386,0.49595 -0.21176,4.95948 -4.23572,6.69531 0.21175,3.96759 12.70711,17.11021 0.84716,23.30957 -4.87106,11.40681 -5.08282,4.71151 -6.1418,2.47974 -3.81208,2.72772 -2.75323,6.19935 -2.11783,7.19124 -2.54141,6.94328 -1.4825,0.74393 -1.48249,-0.74393 -0.21182,-13.3906 -5.71816,-4.7115 -3.38857,1.98378 -3.1768,7.19126 -1.05892,5.70339 8.25964,13.14265 4.87105,7.68718 2.32959,7.93519 -0.21176,9.17503 -4.0239,6.44733 -6.35355,7.43921 -4.23573,1.73583 -3.60032,-7.19125 -7.20066,-11.65479 -1.27073,-2.47973 -1.90608,-0.24798 -2.96498,8.18315 0,11.65477 -0.42358,2.9757 -3.60033,-1.98379 0,-28.51703 -3.17675,-7.68719 -2.11789,0 -2.54141,3.71961 -2.54141,-0.74392 -0.84715,-11.40682 -8.89498,-10.66287 -1.27067,-7.68721 -4.44748,-4.21556 -5.5064,-1.73582 -5.50646,1.48785 -7.41247,11.15882 -5.71816,6.94328 -2.75323,0.74393 -4.65923,9.91896 -2.32966,14.13453 -0.21176,10.16694 -1.4825,12.89466 -6.77713,3.22365 -2.54141,-4.46352 -4.6593,-14.87845 -4.65925,-17.35819 -3.17674,-10.41492 -0.21182,-15.37439 -6.98889,-1.73583 -19.06067,-22.31766 -23.93166,-1.9838 -6.14174,-7.93517 -12.91894,-1.23987 -12.70703,-17.60617 -1.90607,0.24799 0.63536,9.91895 4.87104,19.09401 4.87106,3.71961 5.29462,-1.48783 4.44749,-2.9757 3.60033,-4.46354 2.32964,-0.24797 2.11783,3.96759 4.23567,8.67909 4.44748,3.71962 1.27074,4.7115 -2.96499,7.93518 -4.87106,8.18314 -8.68315,12.89467 -14.40138,9.17503 -12.4953,8.6791 -4.87105,-0.24799 -2.75321,-2.97569 -2.11785,-8.4311 -2.32964,-11.40682 -6.77712,-13.88655 -6.56533,-16.11832 -5.29461,-14.87845 -6.56534,-11.65479 -2.75319,-1.23987 -2.965,0 0.63535,6.69531 4.2357,10.41492 3.17678,12.64667 4.65927,13.88655 6.14176,13.39061 5.71819,10.16693 6.9889,15.12643 0.84714,7.93518 23.50813,-0.24798 4.65926,0.9919 -2.32963,15.87034 -35.36808,65.21719 -2.54142,5.95138 1.05893,8.18315 4.44747,11.40682 0.63537,30.00486 -11.22461,11.90275 -6.77711,11.40682 -1.90607,16.61426 0.63536,7.43923 -5.7182,6.44732 -3.17677,8.18316 -2.11785,8.43111 -4.87105,5.95139 -8.04783,10.4149 -5.71819,8.18316 -8.68318,3.96758 -12.49531,1.73581 -3.38856,-5.95137 -0.84714,-11.15884 -5.92997,-14.13453 -2.965,-5.95138 -0.21177,-17.1102 -3.60035,-14.38251 -3.60035,-9.67099 -3.60033,-8.18314 0,-13.14264 2.7532,-7.19124 2.96499,-9.17504 -0.21179,-14.63047 -1.69428,-11.65479 -4.44749,-15.87034 -7.20067,-11.65479 -0.2118,-10.41492 2.32964,-9.42302 -3.60034,-10.66288 -7.83604,-3.22366 -6.9889,-7.93518 -11.85996,-0.74392 -10.16568,4.46353 -9.95389,3.22368 -12.91887,0 -11.01282,-12.15074 -4.44748,-10.41491 -3.60035,-9.17505 -5.5064,-6.44732 -1.27071,-17.3582 3.60034,-5.7034 0,-22.81362 0.84714,-13.3906 8.4714,-16.61427 13.34245,-17.11022 -0.63535,-12.3987 8.2596,-8.92707 z"
       id="path4192"
       inkscape:connector-curvature="0" />
    <path
       style="fill:#e0e0e0;fill-opacity:1;fill-rule:evenodd;stroke:#000000;stroke-width:1px;stroke-linecap:butt;stroke-linejoin:miter;stroke-opacity:1"
       d="m 565.80054,808.30728 -0.42357,15.87035 -2.96499,7.93516 -0.42357,16.86224 5.08284,4.46354 9.31854,-3.47164 0,-16.36629 7.20068,-22.31768 2.54142,-14.87844 -2.54142,-10.41492 -5.5064,4.95949 -4.2357,10.41492 z"
       id="path4194"
       inkscape:connector-curvature="0" />
    <path
       style="fill:#e0e0e0;fill-opacity:1;fill-rule:evenodd;stroke:#000000;stroke-width:1px;stroke-linecap:butt;stroke-linejoin:miter;stroke-opacity:1"
       d="m 834.76731,791.94099 -13.97779,21.32577 -4.23566,7.93517 -27.10847,15.87035 -2.1179,23.80552 1.27074,22.81361 -3.81215,15.87035 8.89497,0 21.60208,-6.44733 11.43637,-8.92707 14.40137,0.9919 4.6593,11.90275 10.58922,-6.44733 -0.42358,16.3663 0.42358,9.91897 11.43638,3.47163 6.35355,1.9838 21.1785,-22.31768 12.70711,-22.31766 5.08282,-22.31767 -4.65924,-16.36629 -5.50646,-3.47165 -3.38851,-14.87844 -3.38856,-4.46354 -0.42359,-16.86224 -5.92997,-18.35008 -2.96499,0 -1.69431,16.36629 -4.65924,10.41491 -7.20072,1.48785 -6.77707,-8.43113 -1.27073,-6.44732 2.11783,-8.43113 -2.11783,-3.96758 -11.0128,0 -7.62429,9.91897 -2.11784,9.42302 -3.81214,-1.9838 z"
       id="path4196"
       inkscape:connector-curvature="0" />
    <path
       style="fill:#e0e0e0;fill-opacity:1;fill-rule:evenodd;stroke:#000000;stroke-width:1px;stroke-linecap:butt;stroke-linejoin:miter;stroke-opacity:1"
       d="m 855.09872,723.50013 7.62423,-0.49595 1.69425,12.89465 5.50646,3.96759 5.5064,-10.91087 16.09561,8.43113 13.13069,13.88655 2.11783,9.91896 12.28354,13.88656 -9.31854,1.98379 -4.65925,-7.93518 -7.62429,-8.43111 -5.08282,3.96758 -6.35355,1.48785 -5.92998,-5.95138 -3.38857,0.99189 0.84716,-11.90276 -5.08282,-4.46353 -11.85996,-3.47163 -3.38857,-5.45544 0.84716,-6.44732 z"
       id="path4198"
       inkscape:connector-curvature="0" />
    <path
       style="fill:#e0e0e0;fill-opacity:1;fill-rule:evenodd;stroke:#000000;stroke-width:1px;stroke-linecap:butt;stroke-linejoin:miter;stroke-opacity:1"
       d="m 737.76985,691.75943 10.58927,25.29337 9.31849,21.82173 7.62429,13.39059 2.96499,0.49596 3.81214,-5.45544 -2.11789,-9.42302 -5.08282,-12.3987 -6.77713,-12.39871 -2.54141,-4.46353 -4.65925,-1.48785 -5.50639,-9.91896 z"
       id="path4200"
       inkscape:connector-curvature="0" />
    <path
       style="fill:#e0e0e0;fill-opacity:1;fill-rule:evenodd;stroke:#000000;stroke-width:1px;stroke-linecap:butt;stroke-linejoin:miter;stroke-opacity:1"
       d="m 782.66826,716.55684 0,13.39061 5.50639,6.94327 15.67211,-0.49593 1.27067,-6.44734 5.50646,-10.91086 -0.42358,-17.35818 2.11782,-4.95949 -0.84714,-4.95949 -4.65925,-3.96758 -8.89496,9.91896 -4.65931,0.9919 -4.23566,15.3744 z"
       id="path4202"
       inkscape:connector-curvature="0" />
  </g>
  <g
     inkscape:groupmode="layer"
     id="layer3"
     inkscape:label="time zones"
     style="display:inline"
     transform="translate(0,-312.12597)">
    <path
       style="fill:none;fill-rule:evenodd;stroke:#000000;stroke-width:0.99999988px;stroke-linecap:butt;stroke-linejoin:miter;stroke-opacity:1"
       d="m 60.370293,312.44628 -0.842625,58.5929 -29.491852,9.76548 -20.2229834,9.76549 -9.2688677,31.24954 7.583619,8.78894 42.1312161,-11.71858 1.685249,411.12684 -0.842624,162.10704"
       id="path4208"
       inkscape:connector-curvature="0" />
    <rect
       style="fill:none;fill-opacity:1;stroke:#000000;stroke-width:0.99999988;stroke-linecap:round;stroke-linejoin:round;stroke-miterlimit:4;stroke-dasharray:none;stroke-opacity:1"
       id="rect4210"
       width="918.98694"
       height="679.00031"
       x="0.49993891"
       y="312.78311" />
    <path
       style="fill:none;fill-rule:evenodd;stroke:#000000;stroke-width:0.99999988px;stroke-linecap:butt;stroke-linejoin:miter;stroke-opacity:1"
       d="m 107.21726,312.44687 0.8426,63.93508 -42.130672,14.75425 1.685226,39.34467 -4.213064,60.98424 33.704541,66.88593 12.639219,15.73787 -0.84262,95.41082 0.84262,322.62626"
       id="path4212"
       inkscape:connector-curvature="0" />
    <path
       style="fill:none;fill-rule:evenodd;stroke:#000000;stroke-width:0.99999988px;stroke-linecap:butt;stroke-linejoin:miter;stroke-opacity:1"
       d="m 165.3573,312.44056 0,74.32503 -16.00966,77.25891 -0.84261,53.78785 16.00966,62.58949 1.68522,93.88426 0,162.34151 -21.90796,-1.95591 -0.8426,26.40495 24.43579,0.97795 -0.84262,130.06881"
       id="path4214"
       inkscape:connector-curvature="0" />
    <path
       style="fill:none;fill-rule:evenodd;stroke:#000000;stroke-width:0.99999988px;stroke-linecap:butt;stroke-linejoin:miter;stroke-opacity:1"
       d="m 228.55332,312.44054 0,88.73881 -20.22273,47.78244 -2.52784,68.26063 -1.68522,50.70789 27.80624,-1.95031 0,64.36002 -27.80624,0 1.68522,31.20486 32.86192,28.27941 -1.68521,68.26063 -18.5375,7.80121 -0.84262,31.20485 14.32443,10.72668 -0.84261,112.14245 0.84261,72.16123"
       id="path4216"
       inkscape:connector-curvature="0" />
    <path
       style="fill:none;fill-rule:evenodd;stroke:#000000;stroke-width:0.99999988px;stroke-linecap:butt;stroke-linejoin:miter;stroke-opacity:1"
       d="m 274.89708,312.44443 -0.84262,86.68402 -13.48182,11.82054 1.68522,23.6411 9.26875,8.86542 1.68523,73.87842 -1.68523,206.85961 25.27842,11.82055 11.79658,17.73083 -9.26874,25.61118 -6.74091,51.22238 -20.22274,18.71588 0,142.83162"
       id="path4218"
       inkscape:connector-curvature="0" />
    <path
       style="fill:none;fill-rule:evenodd;stroke:#000000;stroke-width:0.99999988px;stroke-linecap:butt;stroke-linejoin:miter;stroke-opacity:1"
       d="m 336.40787,312.45467 2.52784,72.36775 -22.75057,29.33827 -1.68523,127.13251 35.38977,0 0,31.29415 -16.00966,0 1.68524,419.53729"
       id="path4220"
       inkscape:connector-curvature="0" />
    <path
       style="fill:none;fill-rule:evenodd;stroke:#000000;stroke-width:0.99999988px;stroke-linecap:butt;stroke-linejoin:miter;stroke-opacity:1"
       d="m 406.3448,312.44487 -1.68523,155.94359 -16.00966,68.65441 0,26.48099 -25.27841,47.07731 -0.84262,65.71207 42.9733,38.25032 -1.68523,277.55998"
       id="path4222"
       inkscape:connector-curvature="0" />
    <path
       style="fill:none;fill-rule:evenodd;stroke:#000000;stroke-width:0.99999988px;stroke-linecap:butt;stroke-linejoin:miter;stroke-opacity:1"
       d="m 477.12434,312.44703 0.84262,52.20691 -34.54717,38.41641 3.37047,21.6708 25.2784,13.79049 -1.68522,96.53356 -2.52786,105.39887 18.53751,33.49122 0.84262,38.41641 -25.27841,29.55109 2.52784,250.19918"
       id="path4224"
       inkscape:connector-curvature="0" />
    <path
       style="fill:none;fill-rule:evenodd;stroke:#000000;stroke-width:0.99999988px;stroke-linecap:butt;stroke-linejoin:miter;stroke-opacity:1"
       d="m 552.11695,312.45126 1.68523,63.04203 0.84262,161.54521 -25.27842,34.47611 -0.8426,44.32643 28.64886,44.32642 -1.68523,92.593 -1.68523,239.36271"
       id="path4226"
       inkscape:connector-curvature="0" />
    <path
       style="fill:none;fill-rule:evenodd;stroke:#000000;stroke-width:0.99999988px;stroke-linecap:butt;stroke-linejoin:miter;stroke-opacity:1"
       d="m 629.63741,312.44384 0.84257,104.41466 0,80.77361 -20.22271,34.47654 -1.68521,52.20733 21.06535,36.44662 -1.68526,371.36159"
       id="path4228"
       inkscape:connector-curvature="0" />
    <path
       style="fill:none;fill-rule:evenodd;stroke:#000000;stroke-width:0.99999988px;stroke-linecap:butt;stroke-linejoin:miter;stroke-opacity:1"
       d="m 712.21355,312.44312 0.84257,132.59675 1.68526,42.23452 -26.12102,37.32354 -0.84262,31.43033 23.59318,50.09211 1.6852,386.00388"
       id="path4230"
       inkscape:connector-curvature="0" />
    <path
       style="fill:none;fill-rule:evenodd;stroke:#000000;stroke-width:0.99999988px;stroke-linecap:butt;stroke-linejoin:miter;stroke-opacity:1"
       d="m 797.31752,312.44474 -0.84264,80.42287 1.68521,60.80755 -14.32443,44.1345 12.63922,42.17297 14.32443,21.57686 -0.84263,35.30761 -15.16699,25.49993 4.21303,65.71136 -21.90792,31.38454 0,30.40377 0,148.09579 24.43575,26.4807 1.68525,67.6729"
       id="path4232"
       inkscape:connector-curvature="0" />
    <path
       style="fill:none;fill-rule:evenodd;stroke:#000000;stroke-width:0.99999988px;stroke-linecap:butt;stroke-linejoin:miter;stroke-opacity:1"
       d="m 868.09706,312.46375 3.37046,57.78109 27.80622,17.62812 0,18.60746 -26.96364,51.90505 -3.37046,267.35992 1.68525,67.5745 -14.32443,27.42152 0,84.22328 16.85226,20.56615 0,66.59514"
       id="path4234"
       inkscape:connector-curvature="0" />
    <path
       style="fill:#76c4e0;fill-opacity:0.66666667;stroke:none;stroke-width:1;stroke-linecap:round;stroke-linejoin:round;stroke-miterlimit:4;stroke-dasharray:none;stroke-opacity:1"
       d="m 0.83603841,366.17694 0,-52.82534 29.54102359,0 29.541023,0 -0.19508,13.40817 c -0.107297,7.3745 -0.284121,20.26237 -0.392939,28.63971 l -0.197858,15.23152 -14.47607,4.78648 c -14.287641,4.72419 -14.607916,4.84979 -24.604974,9.64988 -5.570897,2.67488 -10.2765313,5.03345 -10.4569655,5.24128 -0.1804336,0.20783 -2.1800396,6.68404 -4.4435678,14.39158 -2.2635286,7.70754 -4.1603009,14.07859 -4.21504947,14.15789 -0.0547485,0.0793 -0.0995428,-23.62724 -0.0995428,-52.68117 z"
       id="path4296"
       inkscape:connector-curvature="0" />
    <path
       style="fill:#76c4e0;fill-opacity:0.66666667;stroke:none;stroke-width:1;stroke-linecap:round;stroke-linejoin:round;stroke-miterlimit:4;stroke-dasharray:none;stroke-opacity:1"
       d="m 0.83603841,893.96901 0,-97.23092 25.32225859,0 25.322258,0 -0.01427,26.21082 c -0.01102,20.22208 -0.765107,167.75384 -0.859563,168.16452 -0.01094,0.0476 -11.213822,0.0865 -24.895289,0.0865 l -24.87539481,0 0,-97.23093 z"
       id="path4298"
       inkscape:connector-curvature="0" />
    <path
       style="fill:#76c4e0;fill-opacity:0.66666667;stroke:none;stroke-width:1;stroke-linecap:round;stroke-linejoin:round;stroke-miterlimit:4;stroke-dasharray:none;stroke-opacity:1"
       d="m 1.5886785,610.20239 0,-186.14884 3.2638787,3.70177 3.2638787,3.70177 20.6485121,-5.77341 20.648512,-5.77342 0.510192,114.08508 c 0.280604,62.74678 0.724058,147.446 0.985455,188.22048 l 0.475263,74.13542 -24.897846,0 -24.8978455,0 0,-186.14885 z"
       id="path4300"
       inkscape:connector-curvature="0" />
    <path
       style="fill:#d1c4e0;fill-opacity:0.47435901;stroke:none;stroke-width:1;stroke-linecap:round;stroke-linejoin:round;stroke-miterlimit:4;stroke-dasharray:none;stroke-opacity:1"
       d="M 51.956973,705.63026 C 51.772606,548.63929 51.198821,419.70089 50.681894,419.10049 c -0.516928,-0.60041 -10.212331,1.48626 -21.545341,4.63704 L 8.5310814,429.46621 5.0628507,425.43791 1.5946199,421.4096 6.0897772,406.36015 10.584934,391.31069 20.11802,386.647 c 5.243197,-2.56504 16.291388,-6.87503 24.551537,-9.57778 l 15.018453,-4.91407 0.770718,-14.63065 c 0.423899,-8.04684 0.770724,-21.07347 0.770724,-28.94806 l 0,-14.31743 22.641074,0 22.641074,0 0.22344,26.98938 c 0.12289,14.84415 0.25695,28.65867 0.29791,30.69894 0.0726,3.61376 -0.45999,3.89792 -20.619173,11.00208 -11.381505,4.01089 -20.847886,7.47994 -21.036407,7.709 -0.188516,0.22907 0.05161,8.82472 0.533618,19.10144 0.638945,13.62279 0.291046,27.24045 -1.284123,50.26416 l -2.160499,31.57922 16.79299,33.47208 c 11.330933,22.58501 18.759949,35.82203 22.840364,40.69696 l 6.04738,7.22488 0.40344,209.03608 0.40343,209.03607 -28.330892,-4.5e-4 -28.330895,-4.6e-4 -0.33521,-285.43813 z"
       id="path4302"
       inkscape:connector-curvature="0" />
    <path
       style="fill:#d1c498;fill-opacity:0.47435901;stroke:none;stroke-width:1;stroke-linecap:round;stroke-linejoin:round;stroke-miterlimit:4;stroke-dasharray:none;stroke-opacity:1"
       d="m 110.08651,781.77222 0,-209.29709 -5.94924,-6.99687 c -4.03538,-4.74602 -11.318923,-17.6718 -22.641073,-40.18015 -19.034602,-37.84069 -17.62698,-31.34961 -14.850193,-68.47988 1.242188,-16.61011 1.561068,-30.59941 1.014802,-44.51886 l -0.796588,-20.29764 11.780153,-4.19062 c 6.479084,-2.30484 16.015082,-5.62362 21.191102,-7.37508 l 9.410957,-3.18447 -0.67471,-31.49627 -0.67472,-31.49628 28.50238,0 28.50238,0 0,35.17594 0,35.17594 -8.34145,40.37373 -8.34145,40.37374 0,27.43251 0,27.43251 7.90578,30.23456 7.9058,30.23458 0.5681,127.61841 0.56812,127.61841 -4.00527,-0.57641 c -2.2029,-0.31704 -7.08862,-0.86694 -10.85717,-1.22203 l -6.85191,-0.64558 -0.0104,7.16635 c -0.006,3.9415 -0.34851,10.43624 -0.7618,14.43274 l -0.75144,7.26637 12.87013,0 12.87015,0 -0.78561,40.48406 c -0.43208,22.26621 -0.78659,51.22789 -0.78779,64.35925 l -0.002,23.87521 -28.00344,0 -28.00344,0 0,-209.29708 z"
       id="path4304"
       inkscape:connector-curvature="0" />
    <path
       style="fill:#d18898;fill-opacity:0.39743593;stroke:none;stroke-width:1;stroke-linecap:round;stroke-linejoin:round;stroke-miterlimit:4;stroke-dasharray:none;stroke-opacity:1"
       d="m 168.47667,926.01801 0,-65.0513 -9.23518,-0.0188 c -14.9794,-0.0307 -14.59754,0.32125 -14.59754,-13.45586 l 0,-11.76777 11.32053,0.9858 11.32055,0.98579 -0.0861,-84.90347 c -0.0474,-46.69689 -0.50307,-104.83406 -1.01273,-129.1937 l -0.92662,-44.29024 -8.06477,-31.14158 -8.06476,-31.14158 0.64223,-26.98937 0.64223,-26.98936 7.83945,-37.84851 7.83943,-37.8485 0,-36.54526 0,-36.54527 30.98254,0 30.98252,0 0,42.7757 0,42.7757 -10.24117,24.23227 -10.24117,24.23226 -1.60286,44.06367 c -0.88158,24.23501 -1.91952,51.4005 -2.30654,60.36775 l -0.70368,16.3041 14.33515,-0.94098 14.33518,-0.94096 0,31.34924 0,31.34924 -14.24162,0 -14.24164,0 0.6005,12.11061 c 1.06086,21.39522 -0.17219,19.00944 17.75408,34.35148 l 16.06016,13.74496 -0.13205,14.53273 c -0.0726,7.993 -0.46879,23.17644 -0.88037,33.74094 l -0.74835,19.20822 -8.93725,3.80001 -8.93727,3.80002 -0.33299,16.55219 -0.33298,16.55221 6.63098,4.78105 6.63098,4.78107 0.25601,91.6433 0.25598,91.64333 -31.28043,8e-5 -31.28043,10e-5 0,-65.05129 z"
       id="path4306"
       inkscape:connector-curvature="0" />
    <path
       style="fill:#d18827;fill-opacity:0.27564105;stroke:none;stroke-width:1;stroke-linecap:round;stroke-linejoin:round;stroke-miterlimit:4;stroke-dasharray:none;stroke-opacity:1"
       d="m 232.38213,955.89884 c -0.45006,-19.34376 -0.4502,-60.63007 -3.2e-4,-91.74737 l 0.81798,-56.57688 -7.32678,-5.48358 -7.3268,-5.48356 0.10836,-11.76459 c 0.16204,-17.59455 0.37958,-18.07423 10.05066,-22.16209 l 8.29049,-3.50429 0.75552,-9.65795 c 0.41553,-5.31188 0.92535,-21.11251 1.13289,-35.11252 l 0.37738,-25.45453 -16.02835,-13.74401 -16.02834,-13.74398 -0.77588,-7.1678 c -0.42672,-3.94231 -0.82891,-10.7491 -0.89372,-15.12622 l -0.11785,-7.95841 13.70381,0 13.70381,0 0,-33.10386 0,-33.10387 -13.70381,0.7839 -13.70381,0.7839 -0.002,-8.16408 c -0.001,-4.49025 0.84388,-30.74461 1.87833,-58.34306 l 1.88083,-50.17896 10.03802,-24.22677 10.03803,-24.22675 0,-43.58625 0,-43.58625 22.80706,0 22.80705,0 -0.75143,7.26638 c -0.4133,3.99649 -0.75611,22.91711 -0.76182,42.04581 l -0.0104,34.77945 -6.71342,6.01578 -6.71342,6.01576 0.75168,12.29976 0.75167,12.29974 5.06801,5.22533 5.06803,5.22532 -0.22837,139.79706 -0.22838,139.79706 12.58895,6.03299 c 11.7237,5.61833 12.97998,6.60411 18.27802,14.34246 l 5.68906,8.30947 -4.62733,12.91218 c -3.85238,10.74976 -5.16802,17.13301 -7.85586,38.11539 l -3.22853,25.20323 -7.87369,7.19698 c -4.33053,3.95834 -9.05179,8.4718 -10.49169,10.0299 l -2.618,2.83292 0,70.53367 0,70.53365 -18.87845,0 -18.87845,0 -0.8183,-35.17046 z"
       id="path4308"
       inkscape:connector-curvature="0" />
    <path
       style="fill:#d1e827;fill-opacity:0.16025642;stroke:none;stroke-width:1;stroke-linecap:round;stroke-linejoin:round;stroke-miterlimit:4;stroke-dasharray:none;stroke-opacity:1"
       d="m 273.38852,920.1357 0.0479,-70.93359 6.804,-5.95121 c 14.22367,-12.44097 12.75563,-9.11698 16.32092,-36.95495 2.64687,-20.66705 3.98685,-27.15434 7.8619,-38.06194 2.56915,-7.23177 4.65955,-13.77149 4.64534,-14.53273 -0.0142,-0.76124 -2.83055,-5.36599 -6.25848,-10.23277 -5.90636,-8.3855 -6.88058,-9.14399 -18.611,-14.49004 l -12.37837,-5.64136 0.79701,-40.18073 c 1.10653,-55.78547 1.17391,-205.67212 0.10112,-224.95408 l -0.88556,-15.9168 -4.44372,-4.15221 c -4.29025,-4.00879 -4.47058,-4.53465 -5.22136,-15.22477 l -0.77764,-11.07256 3.82882,-3.46018 c 10.49326,-9.48296 9.3603,-3.73645 10.16467,-51.55661 l 0.71589,-42.56016 29.46554,0 29.46554,0 0.69005,7.26638 c 0.37953,3.99649 1.04499,19.84913 1.47878,35.22807 l 0.78875,27.96171 -11.47039,14.57974 -11.47038,14.57974 -0.002,17.6656 c -10e-4,9.71608 -0.35596,38.68617 -0.78866,64.37797 l -0.78676,46.71236 18.06738,0 18.06737,0 0,14.53274 0,14.53273 -8.28854,0 -8.28853,0 0.60223,206.57247 c 0.33122,113.61485 0.76928,207.97384 0.97347,209.68662 l 0.37127,3.11416 -30.81729,0 -30.81728,0 0.0479,-70.9336 z"
       id="path4310"
       inkscape:connector-curvature="0" />
    <path
       style="fill:#79e827;fill-opacity:0.16025642;stroke:none;stroke-width:1;stroke-linecap:round;stroke-linejoin:round;stroke-miterlimit:4;stroke-dasharray:none;stroke-opacity:1"
       d="m 336.09718,897.41618 c -0.43534,-51.5092 -0.79152,-145.55677 -0.79152,-208.99459 l 0,-115.34146 7.74563,0 7.74563,0 0,-16.60885 0,-16.60883 -17.71914,0 -17.71914,0 0.4673,-47.4044 c 0.25701,-26.07243 0.77681,-54.42206 1.15508,-62.99921 l 0.68779,-15.5948 11.10559,-14.2651 11.10558,-14.26512 -1.04948,-26.19493 c -0.57722,-14.40721 -1.07021,-30.39904 -1.09553,-35.5374 l -0.0461,-9.34248 33.89782,0 33.89782,0 -0.63506,75.77784 -0.63507,75.77784 -8.23841,35.50656 c -7.49199,32.28959 -8.2384,36.709 -8.2384,48.77833 l 0,13.27181 -12.41086,23.19329 -12.41085,23.1933 -0.84354,33.36923 -0.84354,33.36922 21.75302,19.22544 21.75301,19.22544 -0.75211,102.4212 c -0.41363,56.33164 -0.75248,118.45909 -0.75297,138.06098 l -5.9e-4,35.63981 -33.1701,0 -33.1701,0 -0.79151,-93.65312 z"
       id="path4312"
       inkscape:connector-curvature="0" />
    <path
       style="fill:#79e8d9;fill-opacity:0.16025642;stroke:none;stroke-width:1;stroke-linecap:round;stroke-linejoin:round;stroke-miterlimit:4;stroke-dasharray:none;stroke-opacity:1"
       d="m 405.07693,891.07023 c 0.30181,-54.99948 0.78518,-117.27141 1.07415,-138.38205 l 0.52541,-38.38299 -21.38482,-19.05592 -21.38481,-19.05592 -10e-4,-32.35194 -0.001,-32.35193 12.51218,-23.18458 12.51217,-23.18458 0,-12.73991 c 0,-11.42528 0.85305,-16.40613 8.26677,-48.26875 l 8.26676,-35.52883 0.85061,-77.16191 0.85062,-77.16191 34.205,0 34.20502,0 0.75966,9.34248 c 0.41781,5.13836 0.76347,16.25497 0.76813,24.70358 l 0.008,15.36111 -13.40589,15.2486 c -7.37325,8.38673 -15.1929,17.05642 -17.37701,19.26596 l -3.97111,4.01737 1.90142,11.64215 c 1.04578,6.40317 2.02843,11.72796 2.18366,11.83285 0.15522,0.10488 5.82684,3.24147 12.60358,6.97019 l 12.32136,6.77949 -0.77033,40.87735 c -0.42368,22.48255 -1.2721,60.80796 -1.88536,85.1676 -0.61326,24.35963 -1.11916,51.50129 -1.12421,60.31478 l -0.009,16.02456 8.7562,15.83893 8.75619,15.83894 0.8298,19.34711 0.82977,19.34711 -12.67844,14.53273 -12.67845,14.53275 0.72458,104.49728 c 0.39851,57.47352 1.05444,113.68407 1.45759,124.91234 l 0.73302,20.41503 -29.88965,0 -29.88965,0 0.54874,-99.99907 z"
       id="path4314"
       inkscape:connector-curvature="0" />
    <path
       style="fill:#79e890;fill-opacity:0.16025642;stroke:none;stroke-width:1;stroke-linecap:round;stroke-linejoin:round;stroke-miterlimit:4;stroke-dasharray:none;stroke-opacity:1"
       d="m 465.19394,978.12509 c 0,-7.11931 -0.56972,-62.96924 -1.26606,-124.11096 l -1.26608,-111.16674 12.58661,-14.66469 12.58661,-14.66466 0,-19.43841 0,-19.43842 -9.62344,-17.48201 -9.62343,-17.48202 1.27443,-48.17728 c 0.70094,-26.4975 1.63159,-71.93972 2.06811,-100.98269 l 0.79367,-52.80541 -12.56811,-6.88571 -12.56811,-6.88572 -1.55422,-10.1014 -1.55425,-10.1014 16.91114,-19.06433 16.91113,-19.06434 0,-25.67494 0,-25.67495 36.21972,0 36.21973,0 0.69634,5.88231 c 0.38299,3.23525 1.05049,53.32679 1.48333,111.3145 l 0.787,105.4322 -12.64681,17.058 -12.64683,17.058 -0.24433,20.76106 c -0.13439,11.41857 -0.25447,21.69697 -0.26685,22.84092 -0.0124,1.14392 6.2879,11.84448 14.00062,23.77901 l 14.02311,21.69915 -1.27599,117.77745 c -0.70178,64.77757 -1.27599,139.24922 -1.27599,165.49256 l 0,47.71513 -44.09052,0 -44.09053,0 0,-12.94421 z"
       id="path4316"
       inkscape:connector-curvature="0" />
    <path
       style="fill:#e6e890;fill-opacity:0.16025642;stroke:none;stroke-width:1;stroke-linecap:round;stroke-linejoin:round;stroke-miterlimit:4;stroke-dasharray:none;stroke-opacity:1"
       d="m 555.2028,888.30209 c 0.37066,-56.52196 1.18353,-131.04537 1.80637,-165.60759 l 1.13246,-62.84039 -14.29968,-22.17624 -14.29968,-22.17623 0.0838,-20.17272 c 0.0461,-11.09498 0.44825,-21.22114 0.89372,-22.50259 0.44549,-1.28145 6.35286,-9.86265 13.12749,-19.06931 l 12.31752,-16.73941 -0.70637,-70.89524 c -0.38849,-38.99239 -1.01641,-89.11308 -1.39537,-111.3793 l -0.68903,-40.48406 37.45043,0 37.45046,0 0.77846,21.79911 c 0.42811,11.98951 0.78017,53.15658 0.78235,91.48238 l 0.006,69.68328 -10.10803,17.1962 -10.10802,17.1962 -0.79527,26.67367 -0.79527,26.67365 10.30752,17.92528 10.30744,17.9253 0,62.40847 c 0,34.32466 -0.3565,117.6321 -0.79219,185.12762 l -0.79221,122.71913 -36.16735,0 -36.1674,0 0.67393,-102.76721 z"
       id="path4318"
       inkscape:connector-curvature="0" />
    <path
       style="fill:#e6e8f4;fill-opacity:0.16025642;stroke:none;stroke-width:1;stroke-linecap:round;stroke-linejoin:round;stroke-miterlimit:4;stroke-dasharray:none;stroke-opacity:1"
       d="m 629.0986,898.3366 c 0.29756,-51.00298 0.78388,-134.37807 1.08068,-185.27797 l 0.53957,-92.54526 -10.6749,-18.39931 -10.67486,-18.39928 0.79203,-25.4662 0.79202,-25.46619 9.92476,-16.87501 9.92477,-16.875 0.0141,-92.38668 0.0142,-92.38669 40.51557,0 40.51563,0 0.0822,65.39732 c 0.0454,35.96852 0.50548,74.73978 1.02282,86.15836 l 0.94055,20.76105 -12.76899,18.40364 -12.76905,18.40364 -0.76594,10.52465 c -1.54991,21.29612 -1.82347,20.12393 11.0429,47.31811 l 11.8088,24.95907 0.87908,192.44224 0.87903,192.44221 -41.82825,0 -41.82823,0 0.54111,-92.7327 z"
       id="path4320"
       inkscape:connector-curvature="0" />
    <path
       style="fill:#e64bf4;fill-opacity:0.16025642;stroke:none;stroke-width:1;stroke-linecap:round;stroke-linejoin:round;stroke-miterlimit:4;stroke-dasharray:none;stroke-opacity:1"
       d="m 714.16859,990.72329 c -0.0425,-0.19031 -0.51374,-86.97001 -1.0473,-192.84377 l -0.97003,-192.49775 -11.46493,-24.20721 -11.46487,-24.20719 0.0307,-15.81883 0.0307,-15.81883 13.18022,-18.68495 13.18014,-18.68495 -0.68148,-14.53273 c -0.37484,-7.993 -1.04406,-47.07569 -1.4872,-86.8504 l -0.8057,-72.31767 42.09036,0 42.09029,0 -0.68574,39.09999 c -0.37714,21.50498 -0.26177,52.77617 0.25647,69.49152 l 0.94213,30.39155 -7.21121,22.20312 -7.21125,22.20311 6.38214,21.45309 c 5.58798,18.78386 7.2451,22.75176 13.31847,31.89078 l 6.93633,10.43767 0,17.01349 0,17.01348 -7.816,13.29529 -7.81608,13.29529 2.06193,32.86403 2.06198,32.864 -10.92883,15.6427 -10.92877,15.64269 0.0996,89.98391 0.0995,89.98392 12.39155,13.14866 12.39155,13.14867 0.0265,17.30087 c 0.0147,9.51549 0.37419,24.30774 0.79905,32.87167 l 0.77244,15.57079 -44.27255,0 c -24.34994,0 -44.30736,-0.15571 -44.34983,-0.34601 z"
       id="path4322"
       inkscape:connector-curvature="0" />
    <path
       style="fill:#e64b2f;fill-opacity:0.16025642;stroke:none;stroke-width:1;stroke-linecap:round;stroke-linejoin:round;stroke-miterlimit:4;stroke-dasharray:none;stroke-opacity:1"
       d="m 803.15488,957.5056 -0.82912,-33.5637 -12.46162,-13.60804 -12.46162,-13.60804 0,-87.98737 0,-87.98737 11.23117,-16.12638 11.23125,-16.12637 -2.16362,-32.44983 -2.16361,-32.44982 7.48222,-13.14866 7.48223,-13.14867 0.71481,-17.89161 0.71476,-17.8916 -7.32221,-10.99372 c -6.45592,-9.69305 -8.06462,-13.46288 -13.59763,-31.86434 l -6.27544,-20.87064 6.88031,-20.98402 6.8803,-20.98402 -0.58641,-70.78119 -0.58635,-70.7812 35.10017,0 35.10017,0 1.50471,28.01896 c 0.82764,15.41043 1.73899,28.29104 2.02536,28.62359 0.2863,0.33255 6.54563,4.43449 13.90965,9.11544 l 13.38914,8.51083 0.36233,8.03901 0.36228,8.03902 -13.7513,26.65474 -13.75129,26.65474 -1.75214,136.82041 c -0.96367,75.25122 -1.37348,150.68401 -0.91064,167.6284 l 0.84151,30.808 -6.83165,12.79021 -6.83168,12.79021 -0.0201,43.41484 -0.02,43.41487 8.34142,10.74723 8.34149,10.74724 0,31.99628 0,31.99627 -34.37468,0 -34.37468,0 -0.82912,-33.5637 z"
       id="path4324"
       inkscape:connector-curvature="0" />
    <path
       style="fill:#554b2f;fill-opacity:0.16025642;stroke:none;stroke-width:1;stroke-linecap:round;stroke-linejoin:round;stroke-miterlimit:4;stroke-dasharray:none;stroke-opacity:1"
       d="m 873.92499,958.11104 0,-32.95827 -8.34142,-10.51455 -8.34149,-10.51453 0,-41.58313 0,-41.58314 7.08156,-13.61549 7.08161,-13.61549 -0.71399,-37.6162 c -0.39272,-20.68892 -0.0206,-95.97487 0.82729,-167.30212 l 1.54123,-129.68592 13.5406,-26.14835 13.54059,-26.14837 -0.0141,-9.95139 -0.0142,-9.9514 -13.08855,-8.03778 c -7.19865,-4.42078 -13.5563,-9.09203 -14.12815,-10.38053 -0.57177,-1.28851 -1.39211,-9.5053 -1.82298,-18.25955 -0.43087,-8.75424 -1.11182,-20.43233 -1.51333,-25.95131 l -0.73003,-10.03451 25.18874,0 25.18874,0 0,338.40514 0,338.40515 -22.64108,0 -22.64109,0 0,-32.95826 z"
       id="path4326"
       inkscape:connector-curvature="0" />
  </g>
  <g
     inkscape:groupmode="layer"
     id="layer8"
     inkscape:label="fade"
     transform="translate(0,-312.12597)">
    <rect
       style="opacity:0.48600003;fill:#c8c8c8;fill-opacity:0.96078431;stroke:none;stroke-width:2.5;stroke-linecap:round;stroke-linejoin:round;stroke-miterlimit:4;stroke-dasharray:none;stroke-opacity:1"
       id="rect4601"
       width="920"
       height="680"
       x="-6.1035156e-05"
       y="312.12601" />
  </g>
  <g
     inkscape:groupmode="layer"
     id="layer6"
     inkscape:label="clock"
     style="display:inline"
     transform="translate(0,-312.12597)">
    <g
       inkscape:label="Layer 1"
       id="layer1-2"
       transform="matrix(2.7812495,0,0,2.7812498,14.999971,365.75449)">
      <ellipse
         ry="32.000004"
         rx="32"
         cy="31.999996"
         cx="32"
         id="path4769"
         style="fill:#0363b8;fill-opacity:1;stroke:none;stroke-width:6.06699991;stroke-linecap:round;stroke-linejoin:round;stroke-miterlimit:4;stroke-dasharray:none;stroke-opacity:1" />
      <path
         inkscape:connector-curvature="0"
         id="path4771"
         d="m 32.0003,32.463249 0,-15.541358"
         style="fill:none;fill-rule:evenodd;stroke:#ffffff;stroke-width:2.15730333;stroke-linecap:round;stroke-linejoin:miter;stroke-miterlimit:4;stroke-dasharray:none;stroke-opacity:1" />
      <path
         style="fill:none;fill-rule:evenodd;stroke:#ffffff;stroke-width:2.03078938;stroke-linecap:round;stroke-linejoin:miter;stroke-miterlimit:4;stroke-dasharray:none;stroke-opacity:1"
         d="M 31.860806,32.840473 54.61858,43.159158"
         id="path4773"
         inkscape:connector-curvature="0" />
      <path
         sodipodi:nodetypes="cc"
         style="fill:none;fill-rule:evenodd;stroke:#ffffff;stroke-width:2.16358519;stroke-linecap:round;stroke-linejoin:miter;stroke-miterlimit:4;stroke-dasharray:none;stroke-opacity:1"
         d="m 32.000301,10.331577 0,-4.6631532"
         id="path4775"
         inkscape:connector-curvature="0" />
      <path
         inkscape:connector-curvature="0"
         id="path4777"
         d="m 32.0003,58.331576 0,-4.663153"
         style="fill:none;fill-rule:evenodd;stroke:#ffffff;stroke-width:2.16358519;stroke-linecap:round;stroke-linejoin:miter;stroke-miterlimit:4;stroke-dasharray:none;stroke-opacity:1"
         sodipodi:nodetypes="cc" />
      <path
         sodipodi:nodetypes="cc"
         style="fill:none;fill-rule:evenodd;stroke:#ffffff;stroke-width:2.16358519;stroke-linecap:round;stroke-linejoin:miter;stroke-miterlimit:4;stroke-dasharray:none;stroke-opacity:1"
         d="m 5.6684236,31.990964 4.6631524,0"
         id="path4779"
         inkscape:connector-curvature="0" />
      <path
         inkscape:connector-curvature="0"
         id="path4781"
         d="m 53.051587,31.990964 4.663153,0"
         style="fill:none;fill-rule:evenodd;stroke:#ffffff;stroke-width:2.16358519;stroke-linecap:round;stroke-linejoin:miter;stroke-miterlimit:4;stroke-dasharray:none;stroke-opacity:1"
         sodipodi:nodetypes="cc" />
      <circle
         r="26.460588"
         cy="32"
         cx="32"
         id="path4783"
         style="fill:none;fill-opacity:1;stroke:#ffffff;stroke-width:2.54519415;stroke-linecap:round;stroke-linejoin:round;stroke-miterlimit:4;stroke-dasharray:none;stroke-opacity:1" />
    </g>
    <text
       xml:space="preserve"
       style="font-style:normal;font-weight:normal;font-size:25.43700027px;line-height:125%;font-family:sans-serif;letter-spacing:0px;word-spacing:0px;fill:#000000;fill-opacity:0.96153846;stroke:none;stroke-width:1px;stroke-linecap:butt;stroke-linejoin:miter;stroke-opacity:1"
       x="7.1983995"
       y="618.29749"
       id="text4596"
       sodipodi:linespacing="125%"><tspan
         sodipodi:role="line"
         id="tspan4598"
         x="7.1983995"
         y="618.29749"
         style="font-size:79.49062347px;fill:#000000;fill-opacity:0.96153846">Paris</tspan></text>
    <text
       sodipodi:linespacing="125%"
       id="text4805"
       y="618.49518"
       x="375.69351"
       style="font-style:normal;font-weight:normal;font-size:20.96963692px;line-height:125%;font-family:sans-serif;letter-spacing:0px;word-spacing:0px;fill:#000000;fill-opacity:0.96153846;stroke:none;stroke-width:1px;stroke-linecap:butt;stroke-linejoin:miter;stroke-opacity:1"
       xml:space="preserve"><tspan
         style="font-size:65.53011322px;fill:#000000;fill-opacity:0.96153846"
         y="618.49518"
         x="375.69351"
         id="tspan4807"
         sodipodi:role="line">Berlin</tspan></text>
    <g
       transform="matrix(2.7812495,0,0,2.7812498,382.12491,365.75449)"
       id="g4809"
       inkscape:label="Layer 1">
      <ellipse
         style="fill:#0363b8;fill-opacity:1;stroke:none;stroke-width:6.06699991;stroke-linecap:round;stroke-linejoin:round;stroke-miterlimit:4;stroke-dasharray:none;stroke-opacity:1"
         id="ellipse4811"
         cx="32"
         cy="31.999996"
         rx="32"
         ry="32.000004" />
      <path
         style="fill:none;fill-rule:evenodd;stroke:#ffffff;stroke-width:2.15730333;stroke-linecap:round;stroke-linejoin:miter;stroke-miterlimit:4;stroke-dasharray:none;stroke-opacity:1"
         d="m 32.0003,32.463249 0,-15.541358"
         id="path4813"
         inkscape:connector-curvature="0" />
      <path
         inkscape:connector-curvature="0"
         id="path4815"
         d="M 31.860806,32.840473 54.61858,43.159158"
         style="fill:none;fill-rule:evenodd;stroke:#ffffff;stroke-width:2.03078938;stroke-linecap:round;stroke-linejoin:miter;stroke-miterlimit:4;stroke-dasharray:none;stroke-opacity:1" />
      <path
         inkscape:connector-curvature="0"
         id="path4817"
         d="m 32.000301,10.331577 0,-4.6631532"
         style="fill:none;fill-rule:evenodd;stroke:#ffffff;stroke-width:2.16358519;stroke-linecap:round;stroke-linejoin:miter;stroke-miterlimit:4;stroke-dasharray:none;stroke-opacity:1"
         sodipodi:nodetypes="cc" />
      <path
         sodipodi:nodetypes="cc"
         style="fill:none;fill-rule:evenodd;stroke:#ffffff;stroke-width:2.16358519;stroke-linecap:round;stroke-linejoin:miter;stroke-miterlimit:4;stroke-dasharray:none;stroke-opacity:1"
         d="m 32.0003,58.331576 0,-4.663153"
         id="path4819"
         inkscape:connector-curvature="0" />
      <path
         inkscape:connector-curvature="0"
         id="path4821"
         d="m 5.6684236,31.990964 4.6631524,0"
         style="fill:none;fill-rule:evenodd;stroke:#ffffff;stroke-width:2.16358519;stroke-linecap:round;stroke-linejoin:miter;stroke-miterlimit:4;stroke-dasharray:none;stroke-opacity:1"
         sodipodi:nodetypes="cc" />
      <path
         sodipodi:nodetypes="cc"
         style="fill:none;fill-rule:evenodd;stroke:#ffffff;stroke-width:2.16358519;stroke-linecap:round;stroke-linejoin:miter;stroke-miterlimit:4;stroke-dasharray:none;stroke-opacity:1"
         d="m 53.051587,31.990964 4.663153,0"
         id="path4823"
         inkscape:connector-curvature="0" />
      <circle
         style="fill:none;fill-opacity:1;stroke:#ffffff;stroke-width:2.54519415;stroke-linecap:round;stroke-linejoin:round;stroke-miterlimit:4;stroke-dasharray:none;stroke-opacity:1"
         id="circle4825"
         cx="32"
         cy="32"
         r="26.460588" />
    </g>
    <g
       inkscape:label="Layer 1"
       id="layer1"
       transform="matrix(2.7812495,0,0,2.7812498,726.99984,365.75434)">
      <ellipse
         ry="32.000004"
         rx="32"
         cy="31.999996"
         cx="32"
         id="path4769-1"
         style="fill:#0363b8;fill-opacity:1;stroke:none;stroke-width:6.06699991;stroke-linecap:round;stroke-linejoin:round;stroke-miterlimit:4;stroke-dasharray:none;stroke-opacity:1" />
      <path
         inkscape:connector-curvature="0"
         id="path4771-2"
         d="m 31.936278,32.925685 -13.882558,6.9863"
         style="fill:none;fill-rule:evenodd;stroke:#ffffff;stroke-width:2.15730357;stroke-linecap:round;stroke-linejoin:miter;stroke-miterlimit:4;stroke-dasharray:none;stroke-opacity:1" />
      <path
         style="fill:none;fill-rule:evenodd;stroke:#ffffff;stroke-width:2.03078938;stroke-linecap:round;stroke-linejoin:miter;stroke-miterlimit:4;stroke-dasharray:none;stroke-opacity:1"
         d="M 31.860806,32.840473 54.61858,43.159158"
         id="path4773-7"
         inkscape:connector-curvature="0" />
      <path
         sodipodi:nodetypes="cc"
         style="fill:none;fill-rule:evenodd;stroke:#ffffff;stroke-width:2.16358519;stroke-linecap:round;stroke-linejoin:miter;stroke-miterlimit:4;stroke-dasharray:none;stroke-opacity:1"
         d="m 32.000301,10.331577 0,-4.6631532"
         id="path4775-5"
         inkscape:connector-curvature="0" />
      <path
         inkscape:connector-curvature="0"
         id="path4777-3"
         d="m 32.0003,58.331576 0,-4.663153"
         style="fill:none;fill-rule:evenodd;stroke:#ffffff;stroke-width:2.16358495;stroke-linecap:round;stroke-linejoin:miter;stroke-miterlimit:4;stroke-dasharray:none;stroke-opacity:1"
         sodipodi:nodetypes="cc" />
      <path
         sodipodi:nodetypes="cc"
         style="fill:none;fill-rule:evenodd;stroke:#ffffff;stroke-width:2.16358495;stroke-linecap:round;stroke-linejoin:miter;stroke-miterlimit:4;stroke-dasharray:none;stroke-opacity:1"
         d="m 5.6684236,31.990964 4.6631524,0"
         id="path4779-7"
         inkscape:connector-curvature="0" />
      <path
         inkscape:connector-curvature="0"
         id="path4781-9"
         d="m 53.051587,31.990964 4.663153,0"
         style="fill:none;fill-rule:evenodd;stroke:#ffffff;stroke-width:2.16358495;stroke-linecap:round;stroke-linejoin:miter;stroke-miterlimit:4;stroke-dasharray:none;stroke-opacity:1"
         sodipodi:nodetypes="cc" />
      <circle
         r="26.460588"
         cy="32"
         cx="32"
         id="path4783-9"
         style="fill:none;fill-opacity:1;stroke:#ffffff;stroke-width:2.54519439;stroke-linecap:round;stroke-linejoin:round;stroke-miterlimit:4;stroke-dasharray:none;stroke-opacity:1" />
    </g>
    <text
       xml:space="preserve"
       style="font-style:normal;font-weight:normal;font-size:20.70170021px;line-height:125%;font-family:sans-serif;letter-spacing:0px;word-spacing:0px;fill:#000000;fill-opacity:0.96153846;stroke:none;stroke-width:1px;stroke-linecap:butt;stroke-linejoin:miter;stroke-opacity:1"
       x="727.18951"
       y="618.66937"
       id="text4969"
       sodipodi:linespacing="125%"><tspan
         sodipodi:role="line"
         id="tspan4971"
         x="727.18951"
         y="618.66937"
         style="font-size:64.69281006px;fill:#000000;fill-opacity:0.96153846">Tokyo</tspan></text>
  </g>
</svg>
