<?xml version="1.0" encoding="UTF-8" standalone="no"?>
<!-- Created with Inkscape (http://www.inkscape.org/) -->

<svg
   xmlns:osb="http://www.openswatchbook.org/uri/2009/osb"
   xmlns:dc="http://purl.org/dc/elements/1.1/"
   xmlns:cc="http://creativecommons.org/ns#"
   xmlns:rdf="http://www.w3.org/1999/02/22-rdf-syntax-ns#"
   xmlns:svg="http://www.w3.org/2000/svg"
   xmlns="http://www.w3.org/2000/svg"
   xmlns:sodipodi="http://sodipodi.sourceforge.net/DTD/sodipodi-0.dtd"
   xmlns:inkscape="http://www.inkscape.org/namespaces/inkscape"
   width="1400"
   height="560"
   viewBox="0 0 1399.9999 560"
   id="svg2"
   version="1.1"
   inkscape:version="0.91 r13725"
   sodipodi:docname="World-Map_920.svg"
   inkscape:export-filename="/Users/leo/dev/timezone/promo/World-Map_920.png"
   inkscape:export-xdpi="89.979164"
   inkscape:export-ydpi="89.979164">
  <defs
     id="defs4">
    <linearGradient
       osb:paint="solid"
       id="linearGradient5661">
      <stop
         id="stop5663"
         offset="0"
         style="stop-color:#000000;stop-opacity:1;" />
    </linearGradient>
  </defs>
  <sodipodi:namedview
     id="base"
     pagecolor="#ffffff"
     bordercolor="#666666"
     borderopacity="1.0"
     inkscape:pageopacity="0.0"
     inkscape:pageshadow="2"
     inkscape:zoom="0.35"
     inkscape:cx="767.60392"
     inkscape:cy="381.59989"
     inkscape:document-units="px"
     inkscape:current-layer="layer5"
     showgrid="false"
     inkscape:window-width="1440"
     inkscape:window-height="778"
     inkscape:window-x="0"
     inkscape:window-y="1"
     inkscape:window-maximized="1"
     units="px" />
  <metadata
     id="metadata7">
    <rdf:RDF>
      <cc:Work
         rdf:about="">
        <dc:format>image/svg+xml</dc:format>
        <dc:type
           rdf:resource="http://purl.org/dc/dcmitype/StillImage" />
        <dc:title></dc:title>
      </cc:Work>
    </rdf:RDF>
  </metadata>
  <g
     inkscape:groupmode="layer"
     id="layer5"
     inkscape:label="world map"
     style="display:inline"
     transform="translate(0,-432.12597)">
    <path
       style="fill:#e0e0e0;fill-opacity:1;fill-rule:evenodd;stroke:#000000;stroke-width:0.99999994px;stroke-linecap:butt;stroke-linejoin:miter;stroke-opacity:1"
       d="m 248.57978,489.79479 -19.14453,-8.08412 -46.49381,-2.88718 -29.17262,5.77436 -14.58628,-4.61949 -6.38151,-6.35179 -61.991767,4.61949 -30.995881,6.92924 1.823287,8.0841 -22.791089,-2.30975 0.911644,12.70361 -15.497942,2.88719 -3.64657393,10.39385 12.76300893,6.92924 33.730812,-8.66155 34.642456,-0.57743 19.144525,17.32309 0,22.52003 -8.204803,17.32307 -20.9678,22.52003 1.823286,22.52003 14.586299,13.28103 6.381506,29.44927 10.939732,2.30974 -10.939732,-22.52002 4.558217,-5.77436 6.381515,16.74565 13.67465,16.74566 7.29315,8.66155 -1.8233,9.23898 30.08426,15.01336 20.05614,0.57743 20.05616,8.66154 10.02809,1.15488 10.02807,14.43591 19.14452,8.66154 -8.20481,-10.39385 0.91166,-22.52002 -21.87944,-1.15488 10.02807,-23.09745 -11.85135,-1.15488 -10.0281,12.12617 -17.32123,1.15486 -11.85135,-9.23898 0.91163,-9.81641 7.29316,-19.63284 30.99589,-12.12617 4.55821,6.35181 7.29314,0 6.3815,-8.66155 16.40958,5.19692 5.46987,8.66155 3.64659,8.66155 8.20478,1.73231 2.73492,-4.04206 -2.73492,-12.12617 -0.91165,-9.23897 31.90753,-17.3231 28.26095,-25.40721 9.11643,-1.15487 2.73493,-4.61948 20.05616,-10.39386 2.73494,8.66154 16.40958,-7.50668 18.23287,-4.04205 -3.64659,-4.04206 -12.76299,1.15488 -8.20479,-2.30975 10.93974,-6.3518 -22.79111,-0.57744 0,-3.46462 16.40957,-2.30973 20.96782,-0.57745 11.85136,0 11.85136,-9.81641 0,-6.35181 -5.46986,-1.15487 -3.64656,-5.77436 -5.46987,-3.46463 0,-13.28103 -19.14451,6.92924 -3.64658,-9.81643 -11.85136,-4.04206 -7.29315,0 -10.93973,6.35181 -5.46985,2.30975 -1.82329,15.59077 -19.14452,6.35181 -1.82327,9.81641 -11.85139,0 -2.73493,-8.66153 6.38152,-2.88719 -17.32124,-2.88719 -14.58628,-5.77436 -4.55822,-3.46461 0.91163,-8.08411 13.67465,-7.50667 17.32124,-4.6195 14.58629,-3.46462 2.73494,-8.08412 8.2048,3.46462 9.11642,-5.77435 16.40958,-2.88718 2.73495,-5.19694 -2.73495,-4.04205 -18.23287,7.50668 -2.73494,-6.35181 -4.55819,0 0,-7.50668 -9.11645,0 -16.40958,17.3231 -14.58629,-4.04206 -27.34933,0.57745 z"
       id="path4182"
       inkscape:connector-curvature="0" />
    <path
       style="fill:#e0e0e0;fill-opacity:1;fill-rule:evenodd;stroke:#000000;stroke-width:0.99999994px;stroke-linecap:butt;stroke-linejoin:miter;stroke-opacity:1"
       d="m 223.9654,469.5845 15.49792,3.46462 0,7.50668 19.14452,0 7.29316,-1.15487 10.93972,0.57743 10.93973,-2.88718 0,-9.23898 -16.40959,1.15488 -13.67467,-1.15488 -12.76299,-6.3518 -14.5863,0.57743 z"
       id="path4184"
       inkscape:connector-curvature="0" />
    <path
       style="fill:#e0e0e0;fill-opacity:1;fill-rule:evenodd;stroke:#000000;stroke-width:0.99999994px;stroke-linecap:butt;stroke-linejoin:miter;stroke-opacity:1"
       d="m 351.59549,476.51375 26.43767,-1.15487 9.11642,13.85846 -14.58629,7.50668 6.3815,5.77436 19.14454,5.77438 -0.91167,-9.239 6.38151,0 -0.91165,-8.66155 8.2048,0 -1.82328,-8.66154 -6.38152,-5.19692 0,-4.61949 -20.05616,-7.50667 -21.87943,1.7323 -8.20479,-2.30975 -8.2048,5.77436 z"
       id="path4186"
       inkscape:connector-curvature="0" />
    <path
       style="fill:#e0e0e0;fill-opacity:1;fill-rule:evenodd;stroke:#000000;stroke-width:0.99999994px;stroke-linecap:butt;stroke-linejoin:miter;stroke-opacity:1"
       d="m 363.44684,444.1773 -0.91163,8.08411 25.52603,5.77437 12.76301,-2.88718 6.38149,-6.92924 49.22875,-7.50668 1.8233,6.3518 -22.7911,0.57744 -1.82328,6.3518 18.23288,1.15488 15.49792,12.7036 0,15.01333 -16.40957,0 6.3815,19.63285 18.23287,11.54874 14.58631,-13.85848 3.64657,-6.3518 24.61437,-5.19693 1.82328,-4.61948 46.49383,-6.35181 2.73492,-16.16822 23.70273,-3.46462 0,-10.39386 16.40959,-5.19694 -3.64657,-6.35179 -24.61438,0.57744 -65.63833,-1.15487 -55.61025,0 -30.99589,-2.88719 -15.49793,1.73231 -9.11645,4.04206 -8.20479,2.30974 z"
       id="path4188"
       inkscape:connector-curvature="0" />
    <path
       style="fill:#e0e0e0;fill-opacity:1;fill-rule:evenodd;stroke:#000000;stroke-width:0.99999994px;stroke-linecap:butt;stroke-linejoin:miter;stroke-opacity:1"
       d="m 276.84072,714.99501 -22.7911,17.32309 3.64657,12.12617 -21.87943,27.71694 2.73491,6.35181 2.73495,2.88717 -6.38151,2.8872 -0.91164,7.50666 7.29315,7.50668 11.85136,14.43592 12.76302,16.16821 17.32122,8.66155 6.3815,4.04206 8.20479,1.15487 3.64657,5.19693 1.82329,90.08008 7.29317,5.19694 6.3815,9.23898 0.91163,6.3518 -5.46984,6.92924 9.11643,10.39386 19.1445,13.85847 12.76303,0.57743 -4.55823,-8.66154 5.46984,-8.08411 -0.91161,-9.23898 -9.11645,0 0.91164,-5.19693 7.29316,-6.3518 0,-5.19693 -7.29316,-4.61949 2.73495,-2.88718 7.29314,2.88718 2.73492,-2.30976 -0.91163,-8.66153 8.20478,0 3.64658,1.15487 11.85137,-12.12617 -14.58632,-5.77437 0.91166,-5.19692 14.5863,5.19692 15.49793,-16.74565 11.85138,-20.21027 -2.73493,-6.3518 31.90754,-9.23899 7.29313,-12.70361 2.73492,-26.56207 4.55822,-11.54873 11.85138,-12.12617 2.73491,-8.66155 -17.32121,-8.66154 -13.67466,-4.61949 -20.96781,0 -5.46984,-6.92925 -14.5863,-1.15487 -14.5863,0 8.20479,-8.66155 -5.46987,-10.39385 -8.20479,-5.77436 -7.29315,0 -10.02808,-6.35181 -11.85137,-5.77435 -10.02806,-4.6195 -9.11644,-5.19693 -20.9678,-2.30975 -8.20481,-4.04205 -6.38149,-1.15487 -5.46987,11.54873 -2.73493,-6.92925 z"
       id="path4190"
       inkscape:connector-curvature="0" />
    <path
       style="fill:#e0e0e0;fill-opacity:1;fill-rule:evenodd;stroke:#000000;stroke-width:0.99999994px;stroke-linecap:butt;stroke-linejoin:miter;stroke-opacity:1"
       d="m 618.70706,619.14056 73.84313,-9.81643 0.91163,14.43591 23.70274,9.23898 20.96779,4.6195 5.46988,-10.39385 19.14449,7.50667 41.02397,0 11.85138,-14.43592 -1.82328,-7.50667 -37.3774,-1.73231 -7.29314,-4.61949 0,-15.01335 -15.49794,4.61949 5.46984,9.81642 -6.38148,4.61949 -12.76303,-9.23898 -6.38151,-7.50666 -0.91163,-5.19694 -29.17258,-14.4359 0,6.35179 15.49792,8.08411 6.38153,4.61949 4.5582,4.61949 -1.51884,0.80802 -5.47934,-2.04156 1.28926,5.10388 -11.28102,6.94125 -6.7686,-2.85816 5.80167,-1.22492 5.15701,-4.49141 -15.14877,-11.22851 -13.85954,-8.37034 -5.80166,-1.02076 0,5.71632 -17.40499,0.61247 -9.99176,9.18696 -6.12397,2.44985 -2.57852,9.18696 -14.82648,5.10387 -15.79344,-0.20416 -10.63635,-3.26647 0.3223,-22.66117 9.34712,-5.71632 10.31407,0.81662 6.7686,3.87894 2.90085,0.81661 4.51241,-3.67478 2.5785,-4.4914 -3.22313,-5.71633 -9.02482,-4.28725 0,-2.04154 11.92565,-0.40831 -7.41324,-3.6748 0.32232,-3.87893 16.43804,0.20416 10.31407,-8.16618 7.73556,-0.20416 0.64461,-4.89971 7.73555,-2.04155 10.31408,-6.32879 6.76861,2.44985 11.92565,-2.65401 7.09091,3.67478 12.24798,-2.654 9.0248,0.4083 3.54546,-8.77865 10.63639,-0.81661 -0.32232,-9.39111 7.73555,1.02077 4.19009,-0.81662 0.3223,-4.28725 -17.40498,0 -3.54546,-4.49139 -0.32232,-3.47064 6.76862,-5.71633 -0.96695,-3.47063 -6.4463,0.61247 -12.24796,7.14541 -1.61156,7.75787 3.22315,5.92049 -7.09094,7.75787 -8.05786,5.92049 -4.83472,1.63323 -3.22314,-1.22492 -4.83472,-5.92047 -17.72731,-8.77867 -2.25621,3.26648 -5.15703,0 0.32232,-13.88252 11.28102,-0.61246 2.5785,-5.71633 41.90091,-25.11101 32.87611,0 39.6447,10.00356 -0.32233,5.71634 -4.19008,1.42908 -5.47934,-0.61246 -4.19009,-2.04155 -7.41324,0.61246 1.28926,4.08309 11.60333,6.3288 20.30583,-11.02435 21.27276,-6.12463 23.20665,-0.40832 9.34712,-5.30802 10.95869,5.30802 22.56196,0.40832 -2.25621,-3.67479 -8.38009,-6.32879 0,-7.34957 13.53714,0.20415 7.73563,9.18696 1.93383,11.63681 9.34718,0.20417 -0.64464,-5.71634 -7.09097,-10.61604 4.5124,0.40832 6.76861,9.79942 4.19014,-0.20416 -0.64466,-15.3116 34.16532,-3.06233 14.50422,-8.37033 53.50422,1.63324 1.9338,5.10387 -6.7685,4.89971 0,1.83739 23.8512,0.61246 9.3472,2.65401 13.8595,0 6.4463,-3.26647 17.405,-0.20416 9.6695,4.69556 35.1321,2.85817 10.3143,-9.18696 3.8678,-0.40831 15.4711,7.75788 44.8016,0 6.4464,3.67478 25.7851,0.20415 19.0165,4.69556 5.8017,-1.02077 3.8678,-4.69556 9.3471,2.2457 16.1157,0.81661 16.4381,3.67478 9.6694,2.85818 24.8182,0.81661 11.9258,6.32879 0,2.65401 -10.6364,0.40832 -14.5043,-3.87894 -8.0578,4.49139 15.4711,6.53295 0.9669,3.47063 -10.6364,1.83739 -10.6364,8.98281 -2.2562,0 0,-6.32879 -2.2562,0.81661 -11.9256,5.51218 0.3224,4.89971 5.8016,0.81662 5.4794,3.06233 0.6446,25.51932 -4.1901,-0.61247 -13.215,-10.00357 0,-5.71633 -13.2148,-6.53295 -0.3224,-8.77866 3.8679,-3.47061 0.3222,-8.98281 -7.7355,0.40831 -3.8677,2.2457 -5.8017,-1.02077 -1.6116,-1.4291 -3.2231,0 -4.5125,11.63682 -9.3471,1.02078 -31.2645,-3.67479 -11.6033,8.57449 -0.3222,12.24928 0.3222,2.04155 30.9422,1.63324 11.9256,12.24927 0.3223,22.86532 -6.124,5.92049 -11.281,0.61246 -4.19,5.10387 -2.5785,8.77865 2.2561,5.10387 15.1488,8.77864 0.6446,5.92048 -6.7685,3.67479 -7.0909,0.20415 -3.5455,-2.04154 -0.3223,-7.34957 -11.281,-4.89971 -0.3224,-5.10387 -7.0909,-3.67477 -5.4793,4.4914 -3.8679,-1.22494 -1.9338,-9.59527 -4.5124,0.61248 -13.5372,14.69912 0,2.04155 24.1736,0.40831 -0.3223,4.08308 -6.4463,5.51219 0.3223,3.26648 19.3388,14.08666 1.2894,19.19054 -7.4133,9.39111 -7.7355,3.87894 -9.3472,2.04154 -5.8016,2.24571 -4.1901,5.10386 -3.2231,5.92048 -3.8678,5.71633 -2.2562,0.61247 -2.2562,-0.61247 -0.3223,-11.02435 -8.7025,-3.87893 -5.1571,1.63322 -4.8347,5.9205 -1.6116,4.69555 12.5704,10.8202 7.4131,6.32879 3.5454,6.53296 -0.3222,7.55371 -6.124,5.30802 -9.6694,6.12463 -6.4464,1.42909 -5.4792,-5.92049 -10.9588,-9.59527 -1.9339,-2.04153 -2.9009,-0.20416 -4.5124,6.7371 0,9.59526 -0.6446,2.44986 -5.4793,-1.63323 0,-23.47779 -4.8348,-6.32879 -3.2231,0 -3.8679,3.06233 -3.8677,-0.61247 -1.2892,-9.39112 -13.5372,-8.77863 -1.9339,-6.32881 -6.7686,-3.47063 -8.3801,-1.42908 -8.3804,1.22493 -11.281,9.18695 -8.7024,5.71633 -4.1901,0.61247 -7.0909,8.16618 -3.5455,11.63682 -0.3222,8.37033 -2.2562,10.61606 -10.3142,2.654 -3.8677,-3.67478 -7.0909,-12.24927 -7.0909,-14.29084 -4.8348,-8.57449 -0.3223,-12.65758 -10.63637,-1.4291 -29.00837,-18.3739 -36.42151,-1.63324 -9.34709,-6.53295 -19.66129,-1.02077 -19.33878,-14.49498 -2.90085,0.20416 0.96696,8.16617 7.41322,15.71991 7.41325,3.06231 8.05786,-1.22491 6.76862,-2.44986 5.47933,-3.67478 3.54547,-0.20416 3.22312,3.26648 6.44625,7.1454 6.76861,3.06233 1.93393,3.87893 -4.51242,6.53296 -7.41324,6.73709 -13.21486,10.61605 -21.9174,7.55371 -19.01655,7.14542 -7.41324,-0.20416 -4.1901,-2.44986 -3.22315,-6.94124 -3.54547,-9.39112 -10.31407,-11.43265 -9.99175,-13.27006 -8.05785,-12.24928 -9.99177,-9.59527 -4.19006,-1.02078 -4.51244,0 0.96694,5.51219 6.4463,8.5745 4.83473,10.41187 7.09092,11.43266 9.34713,11.02436 8.70249,8.37033 10.63639,12.45344 1.28925,6.53295 35.77694,-0.20416 7.09091,0.81663 -3.54545,13.06589 -53.82656,53.69266 -3.86777,4.89971 1.61158,6.7371 6.76859,9.39112 0.96696,24.70271 -17.08268,9.79941 -10.31407,9.39112 -2.90084,13.67836 0.96695,6.12464 -8.7025,5.30802 -4.83473,6.73711 -3.22314,6.94124 -7.41323,4.89973 -12.24797,8.57448 -8.70249,6.73712 -13.2149,3.26646 -19.01656,1.42908 -5.15704,-4.8997 -1.28926,-9.18697 -9.02479,-11.63682 -4.51244,-4.89971 -0.32229,-14.08666 -5.47936,-11.84097 -5.47935,-7.96203 -5.47934,-6.7371 0,-10.82021 4.19009,-5.92047 4.51241,-7.55372 -0.32233,-12.04512 -2.57851,-9.59527 -6.76863,-13.06589 -10.95867,-9.59527 -0.32233,-8.5745 3.54547,-7.75787 -5.47934,-8.77865 -11.92565,-2.65401 -10.63638,-6.53296 -18.04963,-0.61245 -15.47112,3.67478 -15.14878,2.65402 -19.66118,0 -16.76037,-10.00358 -6.76861,-8.57449 -5.47935,-7.55373 -8.38018,-5.30802 -1.93388,-14.29083 5.47934,-4.69555 0,-18.78223 1.28926,-11.02435 12.8926,-13.67835 20.30582,-14.08668 -0.96695,-10.20772 12.57027,-7.34957 z"
       id="path4192"
       inkscape:connector-curvature="0" />
    <path
       style="fill:#e0e0e0;fill-opacity:1;fill-rule:evenodd;stroke:#000000;stroke-width:0.99999994px;stroke-linecap:butt;stroke-linejoin:miter;stroke-opacity:1"
       d="m 860.88007,840.7108 -0.64463,13.0659 -4.51241,6.53294 -0.64463,13.88252 7.73556,3.67478 14.18185,-2.85816 0,-13.4742 10.95868,-18.37393 3.86779,-12.24927 -3.86779,-8.5745 -8.38016,4.0831 -6.4463,8.5745 z"
       id="path4194"
       inkscape:connector-curvature="0" />
    <path
       style="fill:#e0e0e0;fill-opacity:1;fill-rule:evenodd;stroke:#000000;stroke-width:0.99999994px;stroke-linecap:butt;stroke-linejoin:miter;stroke-opacity:1"
       d="m 1270.2196,827.2366 -21.2727,17.5573 -6.4463,6.53294 -41.2562,13.0659 -3.2233,19.59884 1.934,18.78222 -5.8017,13.0659 13.5372,0 32.8761,-5.30801 17.4049,-7.34957 21.9175,0.81662 7.091,9.79941 16.1156,-5.30802 -0.6446,13.47421 0.6446,8.16619 17.405,2.85816 9.6694,1.63324 32.2316,-18.37392 19.3389,-18.37391 7.7355,-18.37391 -7.0908,-13.47421 -8.3803,-2.85817 -5.157,-12.24927 -5.157,-3.67479 -0.6447,-13.88251 -9.0248,-15.10745 -4.5125,0 -2.5785,13.47421 -7.091,8.57449 -10.9586,1.22493 -10.3141,-6.94126 -1.9339,-5.30802 3.2232,-6.94126 -3.2232,-3.26647 -16.7603,0 -11.6034,8.16619 -3.2231,7.75788 -5.8017,-1.63324 z"
       id="path4196"
       inkscape:connector-curvature="0" />
    <path
       style="fill:#e0e0e0;fill-opacity:1;fill-rule:evenodd;stroke:#000000;stroke-width:0.99999994px;stroke-linecap:butt;stroke-linejoin:miter;stroke-opacity:1"
       d="m 1301.1619,770.88992 11.6032,-0.4083 2.5786,10.61603 8.3802,3.26647 8.3801,-8.9828 24.4959,6.94126 19.9837,11.43266 3.223,8.16618 18.6943,11.43266 -14.1818,1.63324 -7.0909,-6.53295 -11.6034,-6.94125 -7.7356,3.26647 -9.6694,1.22493 -9.0249,-4.89971 -5.157,0.81661 1.2893,-9.79942 -7.7355,-3.67478 -18.0497,-2.85816 -5.157,-4.49141 1.2892,-5.30802 z"
       id="path4198"
       inkscape:connector-curvature="0" />
    <path
       style="fill:#e0e0e0;fill-opacity:1;fill-rule:evenodd;stroke:#000000;stroke-width:0.99999994px;stroke-linecap:butt;stroke-linejoin:miter;stroke-opacity:1"
       d="m 1122.5995,744.75812 16.1158,20.82378 14.1819,17.96562 11.6033,11.02433 4.5124,0.40833 5.8017,-4.49142 -3.2233,-7.75787 -7.7355,-10.20773 -10.314,-10.20773 -3.8679,-3.67478 -7.0909,-1.22493 -8.3801,-8.16619 z"
       id="path4200"
       inkscape:connector-curvature="0" />
    <path
       style="fill:#e0e0e0;fill-opacity:1;fill-rule:evenodd;stroke:#000000;stroke-width:0.99999994px;stroke-linecap:butt;stroke-linejoin:miter;stroke-opacity:1"
       d="m 1190.9303,765.17358 0,11.02436 8.3802,5.71633 23.8512,-0.4083 1.9338,-5.30803 8.3804,-8.9828 -0.6447,-14.29082 3.2231,-4.08309 -1.2892,-4.08311 -7.0909,-3.26646 -13.5372,8.16617 -7.091,0.81662 -6.4463,12.6576 z"
       id="path4202"
       inkscape:connector-curvature="0" />
  </g>
  <g
     inkscape:groupmode="layer"
     id="layer3"
     inkscape:label="time zones"
     style="display:inline"
     transform="translate(0,-432.12597)">
    <path
       style="fill:none;fill-rule:evenodd;stroke:#000000;stroke-width:1px;stroke-linecap:butt;stroke-linejoin:miter;stroke-opacity:1"
       d="m 91.734036,432.3486 -1.282662,48.23774 -44.893136,8.03962 -30.783865,8.03963 -14.1092704,25.72679 11.5439484,7.23566 64.133052,-9.64755 2.565322,338.46811 -1.28266,133.45775"
       id="path4208"
       inkscape:connector-curvature="0" />
    <rect
       style="fill:none;fill-opacity:1;stroke:#000000;stroke-width:1;stroke-linecap:round;stroke-linejoin:round;stroke-miterlimit:4;stroke-dasharray:none;stroke-opacity:1"
       id="rect4210"
       width="1398.9019"
       height="559.00012"
       x="0.59808528"
       y="432.62592" />
    <path
       style="fill:none;fill-rule:evenodd;stroke:#000000;stroke-width:1px;stroke-linecap:butt;stroke-linejoin:miter;stroke-opacity:1"
       d="m 163.04549,432.34909 1.28263,52.63578 -64.13222,12.14673 2.56529,32.39125 -6.413214,50.20646 51.305774,55.06514 19.2397,12.9565 -1.28266,78.5488 1.28266,265.6083"
       id="path4212"
       inkscape:connector-curvature="0" />
    <path
       style="fill:none;fill-rule:evenodd;stroke:#000000;stroke-width:1px;stroke-linecap:butt;stroke-linejoin:miter;stroke-opacity:1"
       d="m 251.54753,432.34389 0,61.18952 -24.37025,63.60489 -1.28264,44.28188 24.37025,51.52801 2.56528,77.29203 0,133.65079 -33.34878,-1.61024 -1.28262,21.73838 37.19668,0.80511 -1.28265,107.08166"
       id="path4214"
       inkscape:connector-curvature="0" />
    <path
       style="fill:none;fill-rule:evenodd;stroke:#000000;stroke-width:1px;stroke-linecap:butt;stroke-linejoin:miter;stroke-opacity:1"
       d="m 347.74588,432.34387 0,73.05595 -30.78348,39.33781 -3.84794,56.19689 -2.56527,41.74624 42.32726,-1.60562 0,52.98562 -42.32726,0 2.56527,25.69001 50.02313,23.28157 -2.56525,56.19688 -28.2182,6.4225 -1.28264,25.68999 21.80495,8.83095 -1.28263,92.32344 1.28263,59.40812"
       id="path4216"
       inkscape:connector-curvature="0" />
    <path
       style="fill:none;fill-rule:evenodd;stroke:#000000;stroke-width:1px;stroke-linecap:butt;stroke-linejoin:miter;stroke-opacity:1"
       d="m 418.29135,432.34708 -1.28265,71.36429 -20.52231,9.73149 2.56527,19.46299 14.1091,7.29863 2.5653,60.82184 -2.5653,170.30117 38.47936,9.7315 17.957,14.59724 -14.10907,21.0849 -10.26116,42.16981 -30.7835,15.40821 0,117.58889"
       id="path4218"
       inkscape:connector-curvature="0" />
    <path
       style="fill:none;fill-rule:evenodd;stroke:#000000;stroke-width:1px;stroke-linecap:butt;stroke-linejoin:miter;stroke-opacity:1"
       d="m 511.92442,432.35551 3.84792,59.57815 -34.6314,24.1533 -2.56529,104.66429 53.87107,0 0,25.76351 -24.37026,0 2.56532,345.39217"
       id="path4220"
       inkscape:connector-curvature="0" />
    <path
       style="fill:none;fill-rule:evenodd;stroke:#000000;stroke-width:1px;stroke-linecap:butt;stroke-linejoin:miter;stroke-opacity:1"
       d="m 618.38393,432.34744 -2.5653,128.38358 -24.37025,56.52106 0,21.80098 -38.47933,38.75732 -1.28267,54.09872 65.41489,31.49032 -2.56529,228.50661"
       id="path4222"
       inkscape:connector-curvature="0" />
    <path
       style="fill:none;fill-rule:evenodd;stroke:#000000;stroke-width:1px;stroke-linecap:butt;stroke-linejoin:miter;stroke-opacity:1"
       d="m 726.12608,432.34922 1.28265,42.98035 -52.58845,31.62705 5.13061,17.84091 38.47932,11.35328 -2.56527,79.47312 -3.84798,86.77165 28.21821,27.5723 1.28265,31.62704 -38.47933,24.32851 3.84793,205.98131"
       id="path4224"
       inkscape:connector-curvature="0" />
    <path
       style="fill:none;fill-rule:evenodd;stroke:#000000;stroke-width:1px;stroke-linecap:butt;stroke-linejoin:miter;stroke-opacity:1"
       d="m 840.28145,432.3527 2.56529,51.90057 1.28267,132.99522 -38.47937,28.38312 -1.28262,36.49258 43.60991,36.49258 -2.56529,76.22898 -2.5653,197.05997"
       id="path4226"
       inkscape:connector-curvature="0" />
    <path
       style="fill:none;fill-rule:evenodd;stroke:#000000;stroke-width:1px;stroke-linecap:butt;stroke-linejoin:miter;stroke-opacity:1"
       d="m 958.28478,432.34659 1.28257,85.96139 0,66.49843 -30.78344,28.38348 -2.56527,42.98069 32.06614,30.00539 -2.56534,305.73059"
       id="path4228"
       inkscape:connector-curvature="0" />
    <path
       style="fill:none;fill-rule:evenodd;stroke:#000000;stroke-width:1px;stroke-linecap:butt;stroke-linejoin:miter;stroke-opacity:1"
       d="m 1083.9839,432.346 1.2826,109.16283 2.5653,34.77039 -39.762,30.72732 -1.2825,25.87563 35.914,41.23929 2.5652,317.78515"
       id="path4230"
       inkscape:connector-curvature="0" />
    <path
       style="fill:none;fill-rule:evenodd;stroke:#000000;stroke-width:1px;stroke-linecap:butt;stroke-linejoin:miter;stroke-opacity:1"
       d="m 1213.531,432.34733 -1.2826,66.20969 2.5653,50.06099 -21.805,36.33457 19.2397,34.71971 21.8049,17.76357 -1.2827,29.06767 -23.0875,20.99331 6.4131,54.09815 -33.3486,25.83793 0,25.03049 0,121.92272 37.1966,21.80075 2.5653,55.71301"
       id="path4232"
       inkscape:connector-curvature="0" />
    <path
       style="fill:none;fill-rule:evenodd;stroke:#000000;stroke-width:1px;stroke-linecap:butt;stroke-linejoin:miter;stroke-opacity:1"
       d="m 1321.2732,432.36299 5.1305,47.56939 42.3272,14.5127 0,15.31895 -41.0445,42.73183 -5.1307,220.10921 2.5655,55.63202 -21.805,22.5753 0,69.33844 25.6527,16.93147 0,54.82574"
       id="path4234"
       inkscape:connector-curvature="0" />
    <path
       style="fill:#76c4e0;fill-opacity:0.66666667;stroke:none;stroke-width:1;stroke-linecap:round;stroke-linejoin:round;stroke-miterlimit:4;stroke-dasharray:none;stroke-opacity:1"
       d="m 1.1097033,476.58341 0,-43.48949 44.9679867,0 44.967985,0 -0.296954,11.03854 c -0.163331,6.0712 -0.432495,16.68139 -0.598142,23.5782 l -0.301183,12.53963 -22.035787,3.94057 c -21.748958,3.88928 -22.236487,3.99268 -37.454225,7.94445 -8.48014,2.20215 -15.643159,4.14388 -15.91782,4.31498 -0.27466,0.17111 -3.318503,5.50277 -6.7640948,11.84815 -3.4455923,6.34538 -6.3329002,11.59048 -6.4162396,11.65576 -0.083339,0.0653 -0.1515263,-19.45158 -0.1515263,-43.37079 z"
       id="path4296"
       inkscape:connector-curvature="0" />
    <path
       style="fill:#76c4e0;fill-opacity:0.66666667;stroke:none;stroke-width:1;stroke-linecap:round;stroke-linejoin:round;stroke-miterlimit:4;stroke-dasharray:none;stroke-opacity:1"
       d="m 1.1097033,911.09842 0,-80.04723 38.5460917,0 38.546089,0 -0.02172,21.57856 c -0.01678,16.64822 -1.164662,138.10659 -1.308445,138.44469 -0.01665,0.0392 -17.069923,0.0712 -37.896149,0.0712 l -37.865865,0 0,-80.04724 z"
       id="path4298"
       inkscape:connector-curvature="0" />
    <path
       style="fill:#76c4e0;fill-opacity:0.66666667;stroke:none;stroke-width:1;stroke-linecap:round;stroke-linejoin:round;stroke-miterlimit:4;stroke-dasharray:none;stroke-opacity:1"
       d="m 2.2553884,677.48207 0,-153.25062 4.9683469,3.04755 4.9683467,3.04755 31.431613,-4.75307 31.431612,-4.75308 0.776626,93.92275 c 0.427141,51.65749 1.102177,121.38777 1.500081,154.95614 l 0.723456,61.03341 -37.900041,0 -37.9000406,0 0,-153.25063 z"
       id="path4300"
       inkscape:connector-curvature="0" />
    <path
       style="fill:#d1c4e0;fill-opacity:0.47435901;stroke:none;stroke-width:1;stroke-linecap:round;stroke-linejoin:round;stroke-miterlimit:4;stroke-dasharray:none;stroke-opacity:1"
       d="M 78.927098,756.04491 C 78.646451,626.79906 77.773024,520.64803 76.986145,520.15374 c -0.786878,-0.49429 -15.545431,1.22359 -32.796785,3.81753 l -31.366096,4.71625 -5.2794154,-3.31638 -5.2794161,-3.31638 6.8426259,-12.38975 6.8426246,-12.38976 14.511471,-3.83948 c 7.981308,-2.11171 24.799104,-5.65999 37.372882,-7.88508 l 22.861415,-4.04561 1.173203,-12.04496 c 0.645268,-6.62472 1.173213,-17.34914 1.173213,-23.83205 l 0,-11.7871 34.464733,0 34.46473,0 0.34012,22.21952 c 0.18707,12.22074 0.39114,23.59381 0.45349,25.2735 0.11052,2.9751 -0.7002,3.20904 -31.38696,9.05767 -17.32516,3.30205 -31.735091,6.15801 -32.022062,6.34659 -0.286963,0.18859 0.07857,7.26512 0.812282,15.72563 0.97261,11.21523 0.44304,22.42622 -1.954717,41.38093 l -3.288759,25.99821 25.562656,27.55654 c 17.24818,18.59355 28.5568,29.49117 34.76809,33.50455 l 9.20545,5.94803 0.61413,172.09299 0.61411,172.09298 -43.1259,-3.7e-4 -43.125898,-3.8e-4 -0.510264,-234.99245 z"
       id="path4302"
       inkscape:connector-curvature="0" />
    <path
       style="fill:#d1c498;fill-opacity:0.47435901;stroke:none;stroke-width:1;stroke-linecap:round;stroke-linejoin:round;stroke-miterlimit:4;stroke-dasharray:none;stroke-opacity:1"
       d="m 167.41313,818.73025 0,-172.30788 -9.05606,-5.7603 c -6.14274,-3.90726 -17.22991,-14.54865 -34.46473,-33.07908 -28.974879,-31.15309 -26.832166,-25.80918 -22.60528,-56.37739 1.89088,-13.6746 2.37629,-25.19156 1.54474,-36.65101 l -1.21258,-16.71043 17.93201,-3.45 c 9.8626,-1.89751 24.3785,-4.62976 32.25755,-6.07168 l 14.32556,-2.62168 -1.02705,-25.92991 -1.02708,-25.92992 43.38694,0 43.38694,0 0,28.95927 0,28.95927 -12.69752,33.23845 -12.69754,33.23847 0,22.58434 0,22.58434 12.03435,24.89119 12.03437,24.8912 0.86478,105.06432 0.86481,105.06432 -6.09691,-0.47454 c -3.3533,-0.26101 -10.79045,-0.71372 -16.52702,-1.00606 l -10.43013,-0.53148 -0.0158,5.89983 c -0.009,3.24492 -0.5305,8.59183 -1.15963,11.88203 l -1.14386,5.98218 19.59118,0 19.59123,0 -1.19587,33.32928 c -0.65772,18.33109 -1.19737,42.17435 -1.19919,52.985 l -0.003,19.65573 -42.62743,0 -42.62745,0 0,-172.30786 z"
       id="path4304"
       inkscape:connector-curvature="0" />
    <path
       style="fill:#d18898;fill-opacity:0.39743593;stroke:none;stroke-width:1;stroke-linecap:round;stroke-linejoin:round;stroke-miterlimit:4;stroke-dasharray:none;stroke-opacity:1"
       d="m 256.2959,937.48338 0,-53.55474 -14.058,-0.0155 c -22.80195,-0.0253 -22.22068,0.26448 -22.22068,-11.0778 l 0,-9.68803 17.23236,0.81157 17.23238,0.81158 -0.13106,-69.89843 c -0.0722,-38.44411 -0.76578,-86.30666 -1.54159,-106.36121 l -1.41053,-36.4628 -12.27638,-25.6379 -12.27634,-25.63791 0.97761,-22.21952 0.97762,-22.21951 11.93338,-31.15952 11.93335,-31.15951 0,-30.08659 0,-30.08659 47.16229,0 47.16227,0 0,35.21591 0,35.21592 -15.58933,19.94969 -15.58933,19.94968 -2.43992,36.27626 c -1.34195,19.95194 -2.92192,42.31645 -3.51106,49.69892 l -1.07116,13.42267 21.82128,-0.77469 21.82133,-0.77466 0,25.80887 0,25.80886 -21.67891,0 -21.67893,0 0.9141,9.9703 c 1.61485,17.61403 -0.26212,15.64988 27.02564,28.28052 l 24.44712,11.31581 -0.201,11.96434 c -0.11052,6.5804 -0.71361,19.08046 -1.34013,27.77789 l -1.13914,15.81354 -13.60449,3.12842 -13.6045,3.12844 -0.50688,13.62692 -0.50688,13.62692 10.09383,3.93609 10.09381,3.93611 0.38971,75.44712 0.38966,75.44714 -47.61575,7e-5 -47.61575,8e-5 0,-53.55473 z"
       id="path4306"
       inkscape:connector-curvature="0" />
    <path
       style="fill:#d18827;fill-opacity:0.27564105;stroke:none;stroke-width:1;stroke-linecap:round;stroke-linejoin:round;stroke-miterlimit:4;stroke-dasharray:none;stroke-opacity:1"
       d="m 353.57418,962.08335 c -0.6851,-15.92513 -0.68531,-49.91488 -4.9e-4,-75.53279 l 1.24515,-46.57801 -11.15299,-4.51447 -11.153,-4.51444 0.16494,-9.68543 c 0.24665,-14.48506 0.5778,-14.87996 15.29933,-18.24537 l 12.61997,-2.88497 1.15006,-7.9511 c 0.63254,-4.3731 1.40859,-17.38128 1.72452,-28.90706 l 0.57446,-20.95593 -24.39872,-11.31502 -24.39868,-11.315 -1.18107,-5.90103 c -0.64956,-3.24558 -1.26178,-8.8494 -1.36043,-12.45295 l -0.17939,-6.55191 20.86023,0 20.86024,0 0,-27.2534 0,-27.2534 -20.86024,0.64536 -20.86023,0.64536 -0.003,-6.72124 c -0.002,-3.69668 1.28457,-25.31108 2.85924,-48.03204 l 2.86305,-41.3108 15.28009,-19.94516 15.2801,-19.94514 0,-35.88322 0,-35.88322 34.7174,0 34.71738,0 -1.14384,5.98218 c -0.62914,3.29019 -1.15096,18.86696 -1.15966,34.61503 l -0.0158,28.63285 -10.21931,4.95261 -10.21932,4.95259 1.14422,10.12602 1.14421,10.12599 7.71464,4.30186 7.71467,4.30184 -0.34763,115.09063 -0.34765,115.09063 19.16317,4.96678 c 17.84607,4.6254 19.75841,5.43696 27.82319,11.8077 l 8.66002,6.84093 -7.04382,10.63021 c -5.86418,8.84994 -7.86687,14.10508 -11.95836,31.37923 l -4.91454,20.74905 -11.9855,5.92504 c -6.59202,3.25879 -13.77882,6.97458 -15.97067,8.25732 l -3.98518,2.33226 0,58.0682 0,58.06819 -28.73719,0 -28.73718,0 -1.24564,-28.95476 z"
       id="path4308"
       inkscape:connector-curvature="0" />
    <path
       style="fill:#d1e827;fill-opacity:0.16025642;stroke:none;stroke-width:1;stroke-linecap:round;stroke-linejoin:round;stroke-miterlimit:4;stroke-dasharray:none;stroke-opacity:1"
       d="m 415.995,932.64065 0.0729,-58.39744 10.3572,-4.89945 c 21.65158,-10.24227 19.4169,-7.50573 24.84406,-30.42388 4.02912,-17.01455 6.06887,-22.35533 11.96755,-31.33523 3.91081,-5.95369 7.09287,-11.33764 7.07124,-11.96434 -0.0216,-0.62671 -4.30873,-4.41766 -9.5268,-8.42433 -8.99078,-6.90353 -10.47377,-7.52797 -28.33007,-11.9292 l -18.84263,-4.64437 1.21323,-33.07956 c 1.68439,-45.92646 1.78696,-169.32354 0.15394,-185.19779 l -1.34803,-13.10381 -6.76432,-3.41839 c -6.53071,-3.30032 -6.80521,-3.73324 -7.94806,-12.53409 l -1.18375,-9.1157 5.82831,-2.84865 c 15.97307,-7.80704 14.24846,-3.07611 15.47289,-42.44498 l 1.08974,-35.03847 44.85308,0 44.85309,0 1.05041,5.98218 c 0.57772,3.29019 1.5907,16.34118 2.25103,29.00219 l 1.20065,23.02002 -17.46048,12.00305 -17.46046,12.00306 -0.003,14.54354 c -0.002,7.99895 -0.54184,31.84914 -1.20051,53.00041 l -1.19762,38.45685 27.50256,0 27.50253,0 0,11.96437 0,11.96434 -12.61699,0 -12.61698,0 0.91674,170.06477 c 0.50418,93.53563 1.17101,171.21849 1.48183,172.62856 l 0.56515,2.5638 -46.91075,0 -46.91072,0 0.0729,-58.39746 z"
       id="path4310"
       inkscape:connector-curvature="0" />
    <path
       style="fill:#79e827;fill-opacity:0.16025642;stroke:none;stroke-width:1;stroke-linecap:round;stroke-linejoin:round;stroke-miterlimit:4;stroke-dasharray:none;stroke-opacity:1"
       d="m 511.45147,913.93637 c -0.66268,-42.40595 -1.20486,-119.83243 -1.20486,-172.05884 l 0,-94.95708 11.79057,0 11.79056,0 0,-13.67355 0,-13.67355 -26.97246,0 -26.97245,0 0.71132,-39.02658 c 0.39123,-21.46464 1.18248,-44.80401 1.75829,-51.86532 l 1.04697,-12.83872 16.90518,-11.74402 16.90514,-11.74403 -1.59753,-21.56548 c -0.87866,-11.86102 -1.6291,-25.0266 -1.66765,-29.25685 l -0.0702,-7.69138 51.59999,0 51.60001,0 -0.9667,62.38557 -0.96672,62.38556 -12.54069,29.23146 c -11.40447,26.58304 -12.54067,30.2214 -12.54067,40.15771 l 0,10.92627 -18.89208,19.09433 -18.89206,19.09433 -1.28406,27.47187 -1.28405,27.47185 33.11292,15.82771 33.11289,15.82772 -1.14487,84.32023 c -0.62964,46.37611 -1.14544,97.52373 -1.14619,113.66137 l -8.9e-4,29.34116 -50.49225,0 -50.49225,0 -1.20486,-77.10174 z"
       id="path4312"
       inkscape:connector-curvature="0" />
    <path
       style="fill:#79e8d9;fill-opacity:0.16025642;stroke:none;stroke-width:1;stroke-linecap:round;stroke-linejoin:round;stroke-miterlimit:4;stroke-dasharray:none;stroke-opacity:1"
       d="m 616.45395,908.71195 c 0.45942,-45.27939 1.19522,-96.54596 1.63509,-113.9257 l 0.7998,-31.59954 -32.55244,-15.68815 -32.55242,-15.68816 -0.002,-26.63436 -0.002,-26.63434 19.04631,-19.08716 19.0463,-19.08715 0,-10.48838 c 0,-9.40608 1.29853,-13.50666 12.58386,-39.73818 l 12.58384,-29.2498 1.29481,-63.52503 1.29483,-63.52503 52.06761,0 52.06761,0 1.15638,7.69138 c 0.636,4.23025 1.16217,13.38221 1.16926,20.3377 l 0.0122,12.64632 -20.40674,12.55371 c -11.22372,6.90454 -23.12697,14.04202 -26.45167,15.86107 l -6.04491,3.30738 2.89438,9.58462 c 1.59192,5.27153 3.08773,9.65528 3.32403,9.74163 0.23627,0.0864 8.86974,2.6686 19.18544,5.73834 l 18.75583,5.58135 -1.1726,33.65307 c -0.64494,18.50918 -1.93642,50.06132 -2.86993,70.11587 -0.93353,20.05453 -1.70362,42.39943 -1.71131,49.6553 l -0.0137,13.19253 13.32889,13.03971 13.32885,13.03971 1.26315,15.92788 1.26309,15.92789 -19.29939,11.96435 -19.29942,11.96436 1.10298,86.0294 c 0.60662,47.31619 1.60508,93.59261 2.21877,102.8365 l 1.11581,16.80707 -45.49867,0 -45.49868,0 0.83532,-82.32616 z"
       id="path4314"
       inkscape:connector-curvature="0" />
    <path
       style="fill:#79e890;fill-opacity:0.16025642;stroke:none;stroke-width:1;stroke-linecap:round;stroke-linejoin:round;stroke-miterlimit:4;stroke-dasharray:none;stroke-opacity:1"
       d="m 707.96537,980.38154 c 0,-5.86111 -0.86724,-51.84064 -1.92723,-102.17675 l -1.92725,-91.52016 19.15961,-12.07299 19.15961,-12.07296 0,-16.00305 0,-16.00305 -14.64901,-14.39241 -14.649,-14.39241 1.93998,-39.66288 c 1.06698,-21.81457 2.48364,-59.22576 3.14812,-83.13594 l 1.20813,-43.47307 -19.13145,-5.6688 -19.13144,-5.6688 -2.36586,-8.31618 -2.36593,-8.31617 25.74251,-15.69507 25.74249,-15.69509 0,-21.13739 0,-21.1374 55.13443,0 55.13447,0 1.05998,4.84272 c 0.58301,2.66349 1.59908,43.90231 2.25796,91.64182 l 1.19799,86.79909 -19.25125,14.04333 -19.25128,14.04332 -0.37193,17.09195 c -0.20456,9.40055 -0.38735,17.86245 -0.4062,18.80423 -0.0189,0.94175 9.57157,9.75119 21.31205,19.57653 l 21.34628,17.86424 -1.94233,96.96257 c -1.06827,53.32938 -1.94235,114.6396 -1.94235,136.24494 l 0,39.2824 -67.11554,0 -67.11556,0 0,-10.65657 z"
       id="path4316"
       inkscape:connector-curvature="0" />
    <path
       style="fill:#e6e890;fill-opacity:0.16025642;stroke:none;stroke-width:1;stroke-linecap:round;stroke-linejoin:round;stroke-miterlimit:4;stroke-dasharray:none;stroke-opacity:1"
       d="m 844.9788,906.43302 c 0.56423,-46.53279 1.8016,-107.88563 2.74971,-136.33965 l 1.72385,-51.73456 -21.76729,-18.25702 -21.76728,-18.25701 0.12756,-16.60758 c 0.0702,-9.13416 0.68234,-17.47071 1.36044,-18.52569 0.67814,-1.05498 9.67046,-8.11962 19.98295,-15.69918 l 18.75,-13.78104 -1.07525,-58.36588 c -0.59137,-32.10124 -1.54721,-73.36406 -2.12407,-91.69516 l -1.04885,-33.32928 57.00785,0 57.00791,0 1.18499,17.94654 c 0.65167,9.87059 1.18759,43.76218 1.19091,75.31464 l 0.009,57.36809 -15.38667,14.15711 -15.38664,14.1571 -1.21057,21.95961 -1.21058,21.95961 15.69032,14.75733 15.69022,14.75735 0,51.37898 c 0,28.25844 -0.54268,96.84289 -1.2059,152.40989 l -1.20591,101.03089 -55.05473,0 -55.0548,0 1.02587,-84.60509 z"
       id="path4318"
       inkscape:connector-curvature="0" />
    <path
       style="fill:#e6e8f4;fill-opacity:0.16025642;stroke:none;stroke-width:1;stroke-linecap:round;stroke-linejoin:round;stroke-miterlimit:4;stroke-dasharray:none;stroke-opacity:1"
       d="m 957.4646,914.69412 c 0.45295,-41.98919 1.19324,-110.62934 1.64502,-152.53366 l 0.82136,-76.18968 -16.24957,-15.14758 -16.24951,-15.14757 1.20565,-20.96554 1.20563,-20.96553 15.10769,-13.89268 15.1077,-13.89267 0.0215,-76.05912 0.0216,-76.05912 61.67363,0 61.6737,0 0.1252,53.83961 c 0.069,29.61178 0.7694,61.53097 1.5569,70.93152 l 1.4318,17.09194 -19.4373,15.15115 -19.4373,15.15116 -1.1659,8.66461 c -2.3592,17.53245 -2.7757,16.56742 16.8097,38.95555 l 17.9756,20.54804 1.3382,158.43179 1.338,158.43177 -63.6719,0 -63.67169,0 0.8237,-76.34399 z"
       id="path4320"
       inkscape:connector-curvature="0" />
    <path
       style="fill:#e64bf4;fill-opacity:0.16025642;stroke:none;stroke-width:1;stroke-linecap:round;stroke-linejoin:round;stroke-miterlimit:4;stroke-dasharray:none;stroke-opacity:1"
       d="m 1086.9598,990.75325 c -0.065,-0.15668 -0.7818,-71.59974 -1.5941,-158.76236 l -1.4766,-158.47749 -17.4522,-19.92905 -17.452,-19.92904 0.047,-13.02315 0.047,-13.02316 20.0632,-15.38275 20.0632,-15.38275 -1.0374,-11.96434 c -0.5707,-6.5804 -1.5892,-38.75597 -2.2638,-71.50127 l -1.2265,-59.53692 64.0708,0 64.0708,0 -1.0439,32.18982 c -0.574,17.70439 -0.3984,43.449 0.3905,57.21023 l 1.4341,25.02043 -10.977,18.27915 -10.9772,18.27914 9.715,17.66167 c 8.5062,15.46418 11.0286,18.73083 20.2737,26.2547 l 10.5587,8.59302 0,14.00668 0,14.00668 -11.8977,10.9456 -11.8979,10.94561 3.1387,27.05594 3.1389,27.05593 -16.6362,12.87815 -16.6359,12.87815 0.1516,74.08099 0.1514,74.081 18.8627,10.82489 18.8626,10.82489 0.04,14.24328 c 0.022,7.83381 0.5696,20.01181 1.2164,27.06224 l 1.1758,12.81895 -67.3928,0 c -37.0658,0 -67.4456,-0.12819 -67.5102,-0.28486 z"
       id="path4322"
       inkscape:connector-curvature="0" />
    <path
       style="fill:#e64b2f;fill-opacity:0.16025642;stroke:none;stroke-width:1;stroke-linecap:round;stroke-linejoin:round;stroke-miterlimit:4;stroke-dasharray:none;stroke-opacity:1"
       d="m 1222.4167,963.40614 -1.2619,-27.63195 -18.9694,-11.20309 -18.9694,-11.20308 0,-72.4373 0,-72.43731 17.0963,-13.27635 17.0965,-13.27635 -3.2935,-26.71494 -3.2935,-26.71495 11.3895,-10.82488 11.3897,-10.8249 1.0881,-14.72961 1.0881,-14.72961 -11.1461,-9.05079 c -9.8273,-7.97999 -12.2762,-11.08358 -20.6986,-26.23293 l -9.5527,-17.18216 10.4734,-17.2755 10.4733,-17.2755 -0.8925,-58.27198 -0.8926,-58.27199 53.4303,0 53.4302,0 2.2904,23.06715 c 1.2599,12.68693 2.6471,23.29115 3.083,23.56492 0.4359,0.27378 9.964,3.65078 21.1736,7.50446 l 20.3814,7.00671 0.5514,6.61827 0.5515,6.61828 -20.9326,21.94402 -20.9324,21.94404 -2.6671,112.64004 c -1.4671,61.95202 -2.0908,124.05352 -1.3863,138.00331 l 1.281,25.36329 -10.3993,10.52978 -10.3993,10.5298 -0.031,35.7421 -0.03,35.74213 12.6975,8.84786 12.6976,8.84788 0,26.34155 0,26.34155 -52.3259,0 -52.3259,0 -1.2622,-27.63197 z"
       id="path4324"
       inkscape:connector-curvature="0" />
    <path
       style="fill:#554b2f;fill-opacity:0.16025642;stroke:none;stroke-width:1;stroke-linecap:round;stroke-linejoin:round;stroke-miterlimit:4;stroke-dasharray:none;stroke-opacity:1"
       d="m 1330.1446,963.90458 0,-27.13353 -12.6975,-8.6563 -12.6976,-8.6563 0,-34.23411 0,-34.23413 10.7797,-11.2092 10.7798,-11.20922 -1.0869,-30.96826 c -0.5977,-17.03256 -0.031,-79.01317 1.2593,-137.73471 l 2.3461,-106.76643 20.6119,-21.52714 20.6118,-21.52715 -0.022,-8.19268 -0.022,-8.19267 -19.9238,-6.61726 c -10.9578,-3.6395 -20.6357,-7.4852 -21.5061,-8.54598 -0.8703,-1.06079 -2.1191,-7.82541 -2.775,-15.03252 -0.6559,-7.2071 -1.6924,-16.82131 -2.3036,-21.36492 l -1.1113,-8.2611 38.3428,0 38.3429,0 0,278.59857 0,278.59857 -34.4647,0 -34.4648,0 0,-27.13353 z"
       id="path4326"
       inkscape:connector-curvature="0" />
  </g>
  <g
     inkscape:groupmode="layer"
     id="layer8"
     inkscape:label="fade"
     transform="translate(0,-432.12597)">
    <rect
       style="opacity:0.48600003;fill:#c8c8c8;fill-opacity:0.96078431;stroke:none;stroke-width:2.5;stroke-linecap:round;stroke-linejoin:round;stroke-miterlimit:4;stroke-dasharray:none;stroke-opacity:1"
       id="rect4601"
       width="1400"
       height="560"
       x="-6.1035156e-05"
       y="432.12601" />
  </g>
  <g
     inkscape:groupmode="layer"
     id="layer6"
     inkscape:label="clock"
     style="display:inline"
     transform="translate(0,-432.12597)">
    <g
       id="g4973"
       transform="translate(-357.12497,358.57143)">
      <text
         xml:space="preserve"
         style="font-style:normal;font-weight:normal;font-size:20.96963692px;line-height:125%;font-family:sans-serif;letter-spacing:0px;word-spacing:0px;fill:#000000;fill-opacity:0.96153846;stroke:none;stroke-width:1px;stroke-linecap:butt;stroke-linejoin:miter;stroke-opacity:1"
         x="375.69351"
         y="618.49518"
         id="text4805"
         sodipodi:linespacing="125%"><tspan
           sodipodi:role="line"
           id="tspan4807"
           x="375.69351"
           y="618.49518"
           style="font-size:65.53011322px;fill:#000000;fill-opacity:0.96153846">Berlin</tspan></text>
      <g
         inkscape:label="Layer 1"
         id="g4809"
         transform="matrix(2.7812495,0,0,2.7812498,382.12491,365.75449)">
        <ellipse
           ry="32.000004"
           rx="32"
           cy="31.999996"
           cx="32"
           id="ellipse4811"
           style="fill:#0363b8;fill-opacity:1;stroke:none;stroke-width:6.06699991;stroke-linecap:round;stroke-linejoin:round;stroke-miterlimit:4;stroke-dasharray:none;stroke-opacity:1" />
        <path
           inkscape:connector-curvature="0"
           id="path4813"
           d="m 32.0003,32.463249 0,-15.541358"
           style="fill:none;fill-rule:evenodd;stroke:#ffffff;stroke-width:2.15730333;stroke-linecap:round;stroke-linejoin:miter;stroke-miterlimit:4;stroke-dasharray:none;stroke-opacity:1" />
        <path
           style="fill:none;fill-rule:evenodd;stroke:#ffffff;stroke-width:2.03078938;stroke-linecap:round;stroke-linejoin:miter;stroke-miterlimit:4;stroke-dasharray:none;stroke-opacity:1"
           d="M 31.860806,32.840473 54.61858,43.159158"
           id="path4815"
           inkscape:connector-curvature="0" />
        <path
           sodipodi:nodetypes="cc"
           style="fill:none;fill-rule:evenodd;stroke:#ffffff;stroke-width:2.16358519;stroke-linecap:round;stroke-linejoin:miter;stroke-miterlimit:4;stroke-dasharray:none;stroke-opacity:1"
           d="m 32.000301,10.331577 0,-4.6631532"
           id="path4817"
           inkscape:connector-curvature="0" />
        <path
           inkscape:connector-curvature="0"
           id="path4819"
           d="m 32.0003,58.331576 0,-4.663153"
           style="fill:none;fill-rule:evenodd;stroke:#ffffff;stroke-width:2.16358519;stroke-linecap:round;stroke-linejoin:miter;stroke-miterlimit:4;stroke-dasharray:none;stroke-opacity:1"
           sodipodi:nodetypes="cc" />
        <path
           sodipodi:nodetypes="cc"
           style="fill:none;fill-rule:evenodd;stroke:#ffffff;stroke-width:2.16358519;stroke-linecap:round;stroke-linejoin:miter;stroke-miterlimit:4;stroke-dasharray:none;stroke-opacity:1"
           d="m 5.6684236,31.990964 4.6631524,0"
           id="path4821"
           inkscape:connector-curvature="0" />
        <path
           inkscape:connector-curvature="0"
           id="path4823"
           d="m 53.051587,31.990964 4.663153,0"
           style="fill:none;fill-rule:evenodd;stroke:#ffffff;stroke-width:2.16358519;stroke-linecap:round;stroke-linejoin:miter;stroke-miterlimit:4;stroke-dasharray:none;stroke-opacity:1"
           sodipodi:nodetypes="cc" />
        <circle
           r="26.460588"
           cy="32"
           cx="32"
           id="circle4825"
           style="fill:none;fill-opacity:1;stroke:#ffffff;stroke-width:2.54519415;stroke-linecap:round;stroke-linejoin:round;stroke-miterlimit:4;stroke-dasharray:none;stroke-opacity:1" />
      </g>
    </g>
    <g
       id="g4986"
       transform="translate(-701.9999,72.857143)">
      <g
         transform="matrix(2.7812495,0,0,2.7812498,726.99984,365.75434)"
         id="layer1"
         inkscape:label="Layer 1">
        <ellipse
           style="fill:#0363b8;fill-opacity:1;stroke:none;stroke-width:6.06699991;stroke-linecap:round;stroke-linejoin:round;stroke-miterlimit:4;stroke-dasharray:none;stroke-opacity:1"
           id="path4769-1"
           cx="32"
           cy="31.999996"
           rx="32"
           ry="32.000004" />
        <path
           style="fill:none;fill-rule:evenodd;stroke:#ffffff;stroke-width:2.15730357;stroke-linecap:round;stroke-linejoin:miter;stroke-miterlimit:4;stroke-dasharray:none;stroke-opacity:1"
           d="m 31.936278,32.925685 -13.882558,6.9863"
           id="path4771-2"
           inkscape:connector-curvature="0" />
        <path
           inkscape:connector-curvature="0"
           id="path4773-7"
           d="M 31.860806,32.840473 54.61858,43.159158"
           style="fill:none;fill-rule:evenodd;stroke:#ffffff;stroke-width:2.03078938;stroke-linecap:round;stroke-linejoin:miter;stroke-miterlimit:4;stroke-dasharray:none;stroke-opacity:1" />
        <path
           inkscape:connector-curvature="0"
           id="path4775-5"
           d="m 32.000301,10.331577 0,-4.6631532"
           style="fill:none;fill-rule:evenodd;stroke:#ffffff;stroke-width:2.16358519;stroke-linecap:round;stroke-linejoin:miter;stroke-miterlimit:4;stroke-dasharray:none;stroke-opacity:1"
           sodipodi:nodetypes="cc" />
        <path
           sodipodi:nodetypes="cc"
           style="fill:none;fill-rule:evenodd;stroke:#ffffff;stroke-width:2.16358495;stroke-linecap:round;stroke-linejoin:miter;stroke-miterlimit:4;stroke-dasharray:none;stroke-opacity:1"
           d="m 32.0003,58.331576 0,-4.663153"
           id="path4777-3"
           inkscape:connector-curvature="0" />
        <path
           inkscape:connector-curvature="0"
           id="path4779-7"
           d="m 5.6684236,31.990964 4.6631524,0"
           style="fill:none;fill-rule:evenodd;stroke:#ffffff;stroke-width:2.16358495;stroke-linecap:round;stroke-linejoin:miter;stroke-miterlimit:4;stroke-dasharray:none;stroke-opacity:1"
           sodipodi:nodetypes="cc" />
        <path
           sodipodi:nodetypes="cc"
           style="fill:none;fill-rule:evenodd;stroke:#ffffff;stroke-width:2.16358495;stroke-linecap:round;stroke-linejoin:miter;stroke-miterlimit:4;stroke-dasharray:none;stroke-opacity:1"
           d="m 53.051587,31.990964 4.663153,0"
           id="path4781-9"
           inkscape:connector-curvature="0" />
        <circle
           style="fill:none;fill-opacity:1;stroke:#ffffff;stroke-width:2.54519439;stroke-linecap:round;stroke-linejoin:round;stroke-miterlimit:4;stroke-dasharray:none;stroke-opacity:1"
           id="path4783-9"
           cx="32"
           cy="32"
           r="26.460588" />
      </g>
      <text
         sodipodi:linespacing="125%"
         id="text4969"
         y="618.66937"
         x="727.18951"
         style="font-style:normal;font-weight:normal;font-size:20.70170021px;line-height:125%;font-family:sans-serif;letter-spacing:0px;word-spacing:0px;fill:#000000;fill-opacity:0.96153846;stroke:none;stroke-width:1px;stroke-linecap:butt;stroke-linejoin:miter;stroke-opacity:1"
         xml:space="preserve"><tspan
           style="font-size:64.69281006px;fill:#000000;fill-opacity:0.96153846"
           y="618.66937"
           x="727.18951"
           id="tspan4971"
           sodipodi:role="line">Tokyo</tspan></text>
    </g>
  </g>
  <g
     inkscape:groupmode="layer"
     id="layer9"
     inkscape:label="timelines">
    <rect
       style="opacity:0.719;fill:#c8c8c8;fill-opacity:0.96078431;stroke:#000000;stroke-width:4.5999999;stroke-linecap:round;stroke-linejoin:round;stroke-miterlimit:4;stroke-dasharray:none;stroke-opacity:1"
       id="rect5000"
       width="1151.4285"
       height="58.571426"
       x="228.57135"
       y="84.285713" />
    <path
       style="fill:none;fill-rule:evenodd;stroke:#000000;stroke-width:1px;stroke-linecap:butt;stroke-linejoin:miter;stroke-opacity:1"
       d="m 328.61896,84.723227 0,58.083773 -1.01015,-1.51523"
       id="path5002"
       inkscape:connector-curvature="0" />
    <path
       inkscape:connector-curvature="0"
       id="path5004"
       d="m 426.09868,84.723227 0,58.083773 -1.01015,-1.51523"
       style="fill:none;fill-rule:evenodd;stroke:#000000;stroke-width:1px;stroke-linecap:butt;stroke-linejoin:miter;stroke-opacity:1" />
    <path
       inkscape:connector-curvature="0"
       id="path5006"
       d="m 524.08348,85.228303 0,58.083777 -1.01015,-1.51523"
       style="fill:none;fill-rule:evenodd;stroke:#000000;stroke-width:1px;stroke-linecap:butt;stroke-linejoin:miter;stroke-opacity:1" />
    <path
       style="fill:none;fill-rule:evenodd;stroke:#000000;stroke-width:1px;stroke-linecap:butt;stroke-linejoin:miter;stroke-opacity:1"
       d="m 621.5632,85.228303 0,58.083777 -1.01015,-1.51523"
       id="path5008"
       inkscape:connector-curvature="0" />
    <path
       inkscape:connector-curvature="0"
       id="path5010"
       d="m 716.51754,84.218151 0,58.083769 -1.01015,-1.51523"
       style="fill:none;fill-rule:evenodd;stroke:#000000;stroke-width:1px;stroke-linecap:butt;stroke-linejoin:miter;stroke-opacity:1" />
    <path
       style="fill:none;fill-rule:evenodd;stroke:#000000;stroke-width:1px;stroke-linecap:butt;stroke-linejoin:miter;stroke-opacity:1"
       d="m 813.99726,84.218151 0,58.083769 -1.01015,-1.51523"
       id="path5012"
       inkscape:connector-curvature="0" />
    <path
       style="fill:none;fill-rule:evenodd;stroke:#000000;stroke-width:1px;stroke-linecap:butt;stroke-linejoin:miter;stroke-opacity:1"
       d="m 911.98206,84.723227 0,58.083773 -1.01015,-1.51523"
       id="path5014"
       inkscape:connector-curvature="0" />
    <path
       inkscape:connector-curvature="0"
       id="path5016"
       d="m 1009.4618,84.723227 0,58.083773 -1.0101,-1.51523"
       style="fill:none;fill-rule:evenodd;stroke:#000000;stroke-width:1px;stroke-linecap:butt;stroke-linejoin:miter;stroke-opacity:1" />
    <path
       inkscape:connector-curvature="0"
       id="path5018"
       d="m 1111.9923,84.218151 0,58.083769 -1.0102,-1.51523"
       style="fill:none;fill-rule:evenodd;stroke:#000000;stroke-width:1px;stroke-linecap:butt;stroke-linejoin:miter;stroke-opacity:1" />
    <path
       style="fill:none;fill-rule:evenodd;stroke:#000000;stroke-width:1px;stroke-linecap:butt;stroke-linejoin:miter;stroke-opacity:1"
       d="m 1209.472,84.218151 0,58.083769 -1.0101,-1.51523"
       id="path5020"
       inkscape:connector-curvature="0" />
    <path
       inkscape:connector-curvature="0"
       id="path5022"
       d="m 1296.8502,85.73338 0,58.08377 -1.0101,-1.51523"
       style="fill:none;fill-rule:evenodd;stroke:#000000;stroke-width:1px;stroke-linecap:butt;stroke-linejoin:miter;stroke-opacity:1" />
    <text
       xml:space="preserve"
       style="font-style:normal;font-weight:normal;font-size:50.80665207px;line-height:125%;font-family:sans-serif;letter-spacing:0px;word-spacing:0px;fill:#000000;fill-opacity:1;stroke:none;stroke-width:1px;stroke-linecap:butt;stroke-linejoin:miter;stroke-opacity:1"
       x="264.97437"
       y="127.61118"
       id="text5024"
       sodipodi:linespacing="125%"
       transform="scale(0.98162448,1.0187195)"><tspan
         sodipodi:role="line"
         id="tspan5026"
         x="264.97437"
         y="127.61118">1</tspan></text>
    <text
       transform="scale(0.98162448,1.0187195)"
       sodipodi:linespacing="125%"
       id="text5028"
       y="127.61118"
       x="369.90286"
       style="font-style:normal;font-weight:normal;font-size:50.80665207px;line-height:125%;font-family:sans-serif;letter-spacing:0px;word-spacing:0px;fill:#000000;fill-opacity:1;stroke:none;stroke-width:1px;stroke-linecap:butt;stroke-linejoin:miter;stroke-opacity:1"
       xml:space="preserve"><tspan
         y="127.61118"
         x="369.90286"
         id="tspan5030"
         sodipodi:role="line">2</tspan></text>
    <text
       transform="scale(0.98162428,1.0187197)"
       sodipodi:linespacing="125%"
       id="text5032"
       y="127.61115"
       x="465.6626"
       style="font-style:normal;font-weight:normal;font-size:50.80665207px;line-height:125%;font-family:sans-serif;letter-spacing:0px;word-spacing:0px;fill:#000000;fill-opacity:1;stroke:none;stroke-width:1px;stroke-linecap:butt;stroke-linejoin:miter;stroke-opacity:1"
       xml:space="preserve"><tspan
         y="127.61115"
         x="465.6626"
         id="tspan5034"
         sodipodi:role="line">3</tspan></text>
    <text
       xml:space="preserve"
       style="font-style:normal;font-weight:normal;font-size:50.80665207px;line-height:125%;font-family:sans-serif;letter-spacing:0px;word-spacing:0px;fill:#000000;fill-opacity:1;stroke:none;stroke-width:1px;stroke-linecap:butt;stroke-linejoin:miter;stroke-opacity:1"
       x="570.59119"
       y="127.61115"
       id="text5036"
       sodipodi:linespacing="125%"
       transform="scale(0.98162428,1.0187197)"><tspan
         sodipodi:role="line"
         id="tspan5038"
         x="570.59119"
         y="127.61115">4</tspan></text>
    <text
       transform="scale(0.98162448,1.0187195)"
       sodipodi:linespacing="125%"
       id="text5040"
       y="127.61118"
       x="663.73029"
       style="font-style:normal;font-weight:normal;font-size:50.80665207px;line-height:125%;font-family:sans-serif;letter-spacing:0px;word-spacing:0px;fill:#000000;fill-opacity:1;stroke:none;stroke-width:1px;stroke-linecap:butt;stroke-linejoin:miter;stroke-opacity:1"
       xml:space="preserve"><tspan
         y="127.61118"
         x="663.73029"
         id="tspan5042"
         sodipodi:role="line">5</tspan></text>
    <text
       xml:space="preserve"
       style="font-style:normal;font-weight:normal;font-size:50.80665207px;line-height:125%;font-family:sans-serif;letter-spacing:0px;word-spacing:0px;fill:#000000;fill-opacity:1;stroke:none;stroke-width:1px;stroke-linecap:butt;stroke-linejoin:miter;stroke-opacity:1"
       x="768.65875"
       y="127.61118"
       id="text5044"
       sodipodi:linespacing="125%"
       transform="scale(0.98162448,1.0187195)"><tspan
         sodipodi:role="line"
         id="tspan5046"
         x="768.65875"
         y="127.61118">6</tspan></text>
    <text
       xml:space="preserve"
       style="font-style:normal;font-weight:normal;font-size:50.80665207px;line-height:125%;font-family:sans-serif;letter-spacing:0px;word-spacing:0px;fill:#000000;fill-opacity:1;stroke:none;stroke-width:1px;stroke-linecap:butt;stroke-linejoin:miter;stroke-opacity:1"
       x="864.41858"
       y="127.61115"
       id="text5048"
       sodipodi:linespacing="125%"
       transform="scale(0.98162428,1.0187197)"><tspan
         sodipodi:role="line"
         id="tspan5050"
         x="864.41858"
         y="127.61115">7</tspan></text>
    <text
       transform="scale(0.98162428,1.0187197)"
       sodipodi:linespacing="125%"
       id="text5052"
       y="127.61115"
       x="960.48492"
       style="font-style:normal;font-weight:normal;font-size:50.80665207px;line-height:125%;font-family:sans-serif;letter-spacing:0px;word-spacing:0px;fill:#000000;fill-opacity:1;stroke:none;stroke-width:1px;stroke-linecap:butt;stroke-linejoin:miter;stroke-opacity:1"
       xml:space="preserve"><tspan
         y="127.61115"
         x="960.48492"
         id="tspan5054"
         sodipodi:role="line">8</tspan></text>
    <text
       xml:space="preserve"
       style="font-style:normal;font-weight:normal;font-size:50.80665207px;line-height:125%;font-family:sans-serif;letter-spacing:0px;word-spacing:0px;fill:#000000;fill-opacity:1;stroke:none;stroke-width:1px;stroke-linecap:butt;stroke-linejoin:miter;stroke-opacity:1"
       x="1060.3032"
       y="127.61118"
       id="text5056"
       sodipodi:linespacing="125%"
       transform="scale(0.98162448,1.0187195)"><tspan
         sodipodi:role="line"
         id="tspan5058"
         x="1060.3032"
         y="127.61118">9</tspan></text>
    <text
       transform="scale(0.98162448,1.0187195)"
       sodipodi:linespacing="125%"
       id="text5060"
       y="127.61118"
       x="1149.3389"
       style="font-style:normal;font-weight:normal;font-size:50.80665207px;line-height:125%;font-family:sans-serif;letter-spacing:0px;word-spacing:0px;fill:#000000;fill-opacity:1;stroke:none;stroke-width:1px;stroke-linecap:butt;stroke-linejoin:miter;stroke-opacity:1"
       xml:space="preserve"><tspan
         y="127.61118"
         x="1149.3389"
         id="tspan5062"
         sodipodi:role="line">10</tspan></text>
    <text
       transform="scale(0.98162428,1.0187197)"
       sodipodi:linespacing="125%"
       id="text5064"
       y="127.61115"
       x="1245.8109"
       style="font-style:normal;font-weight:normal;font-size:50.80665207px;line-height:125%;font-family:sans-serif;letter-spacing:0px;word-spacing:0px;fill:#000000;fill-opacity:1;stroke:none;stroke-width:1px;stroke-linecap:butt;stroke-linejoin:miter;stroke-opacity:1"
       xml:space="preserve"><tspan
         y="127.61115"
         x="1245.8109"
         id="tspan5066"
         sodipodi:role="line">11</tspan></text>
    <text
       xml:space="preserve"
       style="font-style:normal;font-weight:normal;font-size:50.80665207px;line-height:125%;font-family:sans-serif;letter-spacing:0px;word-spacing:0px;fill:#000000;fill-opacity:1;stroke:none;stroke-width:1px;stroke-linecap:butt;stroke-linejoin:miter;stroke-opacity:1"
       x="1330.874"
       y="127.61115"
       id="text5068"
       sodipodi:linespacing="125%"
       transform="scale(0.98162428,1.0187197)"><tspan
         sodipodi:role="line"
         id="tspan5070"
         x="1330.874"
         y="127.61115">12</tspan></text>
    <rect
       y="348.81708"
       x="228.57135"
       height="58.571407"
       width="1151.4285"
       id="rect5072"
       style="opacity:0.719;fill:#c8c8c8;fill-opacity:0.96078431;stroke:#000000;stroke-width:4.5999999;stroke-linecap:round;stroke-linejoin:round;stroke-miterlimit:4;stroke-dasharray:none;stroke-opacity:1" />
    <path
       inkscape:connector-curvature="0"
       id="path5074"
       d="m 328.61896,349.25463 0,58.08376 -1.01015,-1.51523"
       style="fill:none;fill-rule:evenodd;stroke:#000000;stroke-width:1px;stroke-linecap:butt;stroke-linejoin:miter;stroke-opacity:1" />
    <path
       style="fill:none;fill-rule:evenodd;stroke:#000000;stroke-width:1px;stroke-linecap:butt;stroke-linejoin:miter;stroke-opacity:1"
       d="m 426.09868,349.25463 0,58.08376 -1.01015,-1.51523"
       id="path5076"
       inkscape:connector-curvature="0" />
    <path
       style="fill:none;fill-rule:evenodd;stroke:#000000;stroke-width:1px;stroke-linecap:butt;stroke-linejoin:miter;stroke-opacity:1"
       d="m 524.08348,349.75971 0,58.08376 -1.01015,-1.51523"
       id="path5078"
       inkscape:connector-curvature="0" />
    <path
       inkscape:connector-curvature="0"
       id="path5080"
       d="m 621.5632,349.75971 0,58.08376 -1.01015,-1.51523"
       style="fill:none;fill-rule:evenodd;stroke:#000000;stroke-width:1px;stroke-linecap:butt;stroke-linejoin:miter;stroke-opacity:1" />
    <path
       style="fill:none;fill-rule:evenodd;stroke:#000000;stroke-width:1px;stroke-linecap:butt;stroke-linejoin:miter;stroke-opacity:1"
       d="m 716.51754,348.74956 0,58.08375 -1.01015,-1.51523"
       id="path5082"
       inkscape:connector-curvature="0" />
    <path
       inkscape:connector-curvature="0"
       id="path5084"
       d="m 813.99726,348.74956 0,58.08375 -1.01015,-1.51523"
       style="fill:none;fill-rule:evenodd;stroke:#000000;stroke-width:1px;stroke-linecap:butt;stroke-linejoin:miter;stroke-opacity:1" />
    <path
       inkscape:connector-curvature="0"
       id="path5086"
       d="m 911.98206,349.25463 0,58.08376 -1.01015,-1.51523"
       style="fill:none;fill-rule:evenodd;stroke:#000000;stroke-width:1px;stroke-linecap:butt;stroke-linejoin:miter;stroke-opacity:1" />
    <path
       style="fill:none;fill-rule:evenodd;stroke:#000000;stroke-width:1px;stroke-linecap:butt;stroke-linejoin:miter;stroke-opacity:1"
       d="m 1009.4618,349.25463 0,58.08376 -1.0101,-1.51523"
       id="path5088"
       inkscape:connector-curvature="0" />
    <path
       style="fill:none;fill-rule:evenodd;stroke:#000000;stroke-width:1px;stroke-linecap:butt;stroke-linejoin:miter;stroke-opacity:1"
       d="m 1111.9923,348.74956 0,58.08375 -1.0102,-1.51523"
       id="path5090"
       inkscape:connector-curvature="0" />
    <path
       inkscape:connector-curvature="0"
       id="path5092"
       d="m 1209.472,348.74956 0,58.08375 -1.0101,-1.51523"
       style="fill:none;fill-rule:evenodd;stroke:#000000;stroke-width:1px;stroke-linecap:butt;stroke-linejoin:miter;stroke-opacity:1" />
    <path
       style="fill:none;fill-rule:evenodd;stroke:#000000;stroke-width:1px;stroke-linecap:butt;stroke-linejoin:miter;stroke-opacity:1"
       d="m 1296.8502,350.26479 0,58.08375 -1.0101,-1.51523"
       id="path5094"
       inkscape:connector-curvature="0" />
    <text
       transform="scale(0.98162467,1.0187193)"
       sodipodi:linespacing="125%"
       id="text5096"
       y="387.28174"
       x="264.97427"
       style="font-style:normal;font-weight:normal;font-size:50.80665207px;line-height:125%;font-family:sans-serif;letter-spacing:0px;word-spacing:0px;fill:#000000;fill-opacity:1;stroke:none;stroke-width:1px;stroke-linecap:butt;stroke-linejoin:miter;stroke-opacity:1"
       xml:space="preserve"><tspan
         y="387.28174"
         x="264.97427"
         id="tspan5098"
         sodipodi:role="line">5</tspan></text>
    <text
       xml:space="preserve"
       style="font-style:normal;font-weight:normal;font-size:50.80665207px;line-height:125%;font-family:sans-serif;letter-spacing:0px;word-spacing:0px;fill:#000000;fill-opacity:1;stroke:none;stroke-width:1px;stroke-linecap:butt;stroke-linejoin:miter;stroke-opacity:1"
       x="369.90283"
       y="387.28174"
       id="text5100"
       sodipodi:linespacing="125%"
       transform="scale(0.98162467,1.0187193)"><tspan
         sodipodi:role="line"
         id="tspan5102"
         x="369.90283"
         y="387.28174">6</tspan></text>
    <text
       xml:space="preserve"
       style="font-style:normal;font-weight:normal;font-size:50.80665207px;line-height:125%;font-family:sans-serif;letter-spacing:0px;word-spacing:0px;fill:#000000;fill-opacity:1;stroke:none;stroke-width:1px;stroke-linecap:butt;stroke-linejoin:miter;stroke-opacity:1"
       x="465.66251"
       y="387.2818"
       id="text5104"
       sodipodi:linespacing="125%"
       transform="scale(0.98162449,1.0187195)"><tspan
         sodipodi:role="line"
         id="tspan5106"
         x="465.66251"
         y="387.2818">7</tspan></text>
    <text
       transform="scale(0.98162449,1.0187195)"
       sodipodi:linespacing="125%"
       id="text5108"
       y="387.2818"
       x="570.59094"
       style="font-style:normal;font-weight:normal;font-size:50.80665207px;line-height:125%;font-family:sans-serif;letter-spacing:0px;word-spacing:0px;fill:#000000;fill-opacity:1;stroke:none;stroke-width:1px;stroke-linecap:butt;stroke-linejoin:miter;stroke-opacity:1"
       xml:space="preserve"><tspan
         y="387.2818"
         x="570.59094"
         id="tspan5110"
         sodipodi:role="line">8</tspan></text>
    <text
       xml:space="preserve"
       style="font-style:normal;font-weight:normal;font-size:50.80665207px;line-height:125%;font-family:sans-serif;letter-spacing:0px;word-spacing:0px;fill:#000000;fill-opacity:1;stroke:none;stroke-width:1px;stroke-linecap:butt;stroke-linejoin:miter;stroke-opacity:1"
       x="663.7301"
       y="387.28174"
       id="text5112"
       sodipodi:linespacing="125%"
       transform="scale(0.98162467,1.0187193)"><tspan
         sodipodi:role="line"
         id="tspan5114"
         x="663.7301"
         y="387.28174">9</tspan></text>
    <text
       transform="scale(0.98162467,1.0187193)"
       sodipodi:linespacing="125%"
       id="text5116"
       y="387.28174"
       x="745.73895"
       style="font-style:normal;font-weight:normal;font-size:50.80665207px;line-height:125%;font-family:sans-serif;letter-spacing:0px;word-spacing:0px;fill:#000000;fill-opacity:1;stroke:none;stroke-width:1px;stroke-linecap:butt;stroke-linejoin:miter;stroke-opacity:1"
       xml:space="preserve"><tspan
         y="387.28174"
         x="745.73895"
         id="tspan5118"
         sodipodi:role="line">10</tspan></text>
    <text
       transform="scale(0.98162449,1.0187195)"
       sodipodi:linespacing="125%"
       id="text5120"
       y="387.2818"
       x="845.26709"
       style="font-style:normal;font-weight:normal;font-size:50.80665207px;line-height:125%;font-family:sans-serif;letter-spacing:0px;word-spacing:0px;fill:#000000;fill-opacity:1;stroke:none;stroke-width:1px;stroke-linecap:butt;stroke-linejoin:miter;stroke-opacity:1"
       xml:space="preserve"><tspan
         y="387.2818"
         x="845.26709"
         id="tspan5122"
         sodipodi:role="line">11</tspan></text>
    <text
       xml:space="preserve"
       style="font-style:normal;font-weight:normal;font-size:50.80665207px;line-height:125%;font-family:sans-serif;letter-spacing:0px;word-spacing:0px;fill:#000000;fill-opacity:1;stroke:none;stroke-width:1px;stroke-linecap:butt;stroke-linejoin:miter;stroke-opacity:1"
       x="944.79718"
       y="387.2818"
       id="text5124"
       sodipodi:linespacing="125%"
       transform="scale(0.98162449,1.0187195)"><tspan
         sodipodi:role="line"
         id="tspan5126"
         x="944.79718"
         y="387.2818">12</tspan></text>
    <text
       transform="scale(0.98162467,1.0187193)"
       sodipodi:linespacing="125%"
       id="text5128"
       y="387.28174"
       x="1066.4152"
       style="font-style:normal;font-weight:normal;font-size:50.80665207px;line-height:125%;font-family:sans-serif;letter-spacing:0px;word-spacing:0px;fill:#000000;fill-opacity:1;stroke:none;stroke-width:1px;stroke-linecap:butt;stroke-linejoin:miter;stroke-opacity:1"
       xml:space="preserve"><tspan
         y="387.28174"
         x="1066.4152"
         id="tspan5130"
         sodipodi:role="line">1</tspan></text>
    <text
       xml:space="preserve"
       style="font-style:normal;font-weight:normal;font-size:50.80665207px;line-height:125%;font-family:sans-serif;letter-spacing:0px;word-spacing:0px;fill:#000000;fill-opacity:1;stroke:none;stroke-width:1px;stroke-linecap:butt;stroke-linejoin:miter;stroke-opacity:1"
       x="1164.5177"
       y="387.28174"
       id="text5132"
       sodipodi:linespacing="125%"
       transform="scale(0.98162467,1.0187193)"><tspan
         sodipodi:role="line"
         id="tspan5134"
         x="1164.5177"
         y="387.28174">2</tspan></text>
    <text
       xml:space="preserve"
       style="font-style:normal;font-weight:normal;font-size:50.80665207px;line-height:125%;font-family:sans-serif;letter-spacing:0px;word-spacing:0px;fill:#000000;fill-opacity:1;stroke:none;stroke-width:1px;stroke-linecap:butt;stroke-linejoin:miter;stroke-opacity:1"
       x="1258.8505"
       y="387.2818"
       id="text5136"
       sodipodi:linespacing="125%"
       transform="scale(0.98162449,1.0187195)"><tspan
         sodipodi:role="line"
         id="tspan5138"
         x="1258.8505"
         y="387.2818">3</tspan></text>
    <text
       transform="scale(0.98162449,1.0187195)"
       sodipodi:linespacing="125%"
       id="text5140"
       y="387.2818"
       x="1346.7662"
       style="font-style:normal;font-weight:normal;font-size:50.80665207px;line-height:125%;font-family:sans-serif;letter-spacing:0px;word-spacing:0px;fill:#000000;fill-opacity:1;stroke:none;stroke-width:1px;stroke-linecap:butt;stroke-linejoin:miter;stroke-opacity:1"
       xml:space="preserve"><tspan
         y="387.2818"
         x="1346.7662"
         id="tspan5142"
         sodipodi:role="line">4</tspan></text>
    <path
       style="opacity:0.719;fill:#673ab7;fill-opacity:1;stroke:none;stroke-width:4.5999999;stroke-linecap:round;stroke-linejoin:round;stroke-miterlimit:4;stroke-dasharray:none;stroke-opacity:1"
       d="m 622.17111,113.72909 0,-26.769044 46.71955,0 46.71956,0 0,26.769044 0,26.76904 -46.71956,0 -46.71955,0 0,-26.76904 z m 48.51801,16.35907 c 7.80968,-2.31923 11.06418,-12.69795 6.26927,-19.99296 -2.37343,-3.61094 -8.80189,-6.03526 -13.31474,-5.02129 l -2.0766,0.46658 0,-4.492 0,-4.491995 7.32361,0 7.32361,0 0,-2.272843 0,-2.272843 -9.84899,0 -9.84899,0 0,9.596451 c 0,5.27804 0.17047,9.59399 0.37881,9.59098 0.20834,-0.003 1.49453,-0.34393 2.85819,-0.75761 5.6054,-1.70046 11.02897,-0.32637 13.02932,3.30105 1.27509,2.31222 1.04566,6.96353 -0.44193,8.9593 -2.64383,3.54701 -8.49381,4.44746 -14.30916,2.20252 -1.52785,-0.58981 -2.83474,-1.07249 -2.90419,-1.07263 -0.0695,-1.4e-4 -0.12627,1.22027 -0.12627,2.71202 l 0,2.71228 2.14658,0.55429 c 3.48492,0.89988 4.00897,0.97225 7.48447,1.03363 1.82468,0.0322 4.55033,-0.30749 6.05701,-0.75493 z"
       id="path5150"
       inkscape:connector-curvature="0"
       transform="translate(-6.1035156e-5,0)" />
    <path
       style="opacity:0.719;fill:#673ab7;fill-opacity:1;stroke:none;stroke-width:4.5999999;stroke-linecap:round;stroke-linejoin:round;stroke-miterlimit:4;stroke-dasharray:none;stroke-opacity:1"
       d="m 622.17111,377.88398 0,-26.76904 46.71955,0 46.71956,0 0,26.76904 0,26.76904 -46.71956,0 -46.71955,0 0,-26.76904 z m 46.91051,16.89155 c 4.58869,-1.36269 8.44332,-5.80104 9.94842,-11.45491 0.85278,-3.20343 0.93757,-11.9365 0.15186,-15.63958 -1.10073,-5.18778 -4.33436,-9.69734 -7.94824,-11.08444 -2.37043,-0.90983 -7.80067,-0.63035 -10.05018,0.51727 -5.4889,2.80022 -7.91327,9.39389 -6.10068,16.59231 0.80381,3.19224 4.39637,6.89425 7.49044,7.71867 3.57885,0.95358 7.24162,0.42771 9.85595,-1.41504 l 2.2356,-1.5758 -0.28224,1.61902 c -0.87718,5.03187 -2.74591,8.36334 -5.39688,9.6213 -2.17037,1.02991 -6.92374,1.06148 -9.69146,0.0644 -1.11117,-0.40032 -2.07712,-0.73127 -2.14657,-0.73545 -0.0695,-0.004 -0.12627,1.11119 -0.12627,2.47861 0,2.36335 0.0811,2.51148 1.6415,2.99754 4.08134,1.27136 6.86805,1.35056 10.41875,0.29612 z"
       id="path5152"
       inkscape:connector-curvature="0"
       transform="translate(-6.1035156e-5,0)" />
    <path
       style="opacity:0.719;fill:#6762b7;fill-opacity:1;stroke:none;stroke-width:4.5999999;stroke-linecap:round;stroke-linejoin:round;stroke-miterlimit:4;stroke-dasharray:none;stroke-opacity:1"
       d="m 663.63605,376.74011 c -2.20772,-1.13459 -3.2686,-3.16294 -3.49238,-6.67727 -0.25499,-4.0046 0.0481,-5.30444 1.6923,-7.25851 2.72612,-3.2398 7.57605,-3.1546 10.11776,0.17776 2.83087,3.71146 1.99357,11.30965 -1.47967,13.42753 -1.80011,1.09765 -5.0405,1.25427 -6.83801,0.33049 z"
       id="path5154"
       inkscape:connector-curvature="0"
       transform="translate(-6.1035156e-5,0)" />
    <path
       style="opacity:0.719;fill:#d1c4e9;fill-opacity:1;stroke:none;stroke-width:4.5999999;stroke-linecap:round;stroke-linejoin:round;stroke-miterlimit:4;stroke-dasharray:none;stroke-opacity:1"
       d="m 426.5765,377.90491 0,-26.76904 48.48732,0 48.48732,0 0,26.76904 0,26.76905 -48.48732,0 -48.48732,0 0,-26.76905 z m 46.30713,13.8896 c 4.44871,-11.28213 12.28171,-33.1182 12.28171,-34.23773 0,-1.07731 -2.59077,-1.37015 -12.12183,-1.37015 l -12.12183,0 0,2.48606 c 0,2.42073 0.22284,2.49372 8.4816,2.77792 l 8.48159,0.29186 -5.95621,16.11299 c -3.27592,8.86214 -5.95622,16.24888 -5.95622,16.41497 0,0.1661 1.30856,0.302 2.90791,0.302 2.23328,0 3.16203,-0.64447 4.00328,-2.77792 z"
       id="path5162"
       inkscape:connector-curvature="0"
       transform="translate(-6.1035156e-5,0)" />
    <path
       style="opacity:0.719;fill:#d1c4e9;fill-opacity:1;stroke:none;stroke-width:4.5999999;stroke-linecap:round;stroke-linejoin:round;stroke-miterlimit:4;stroke-dasharray:none;stroke-opacity:1"
       d="m 329.60185,377.90491 0,-26.76904 47.98225,0 47.98224,0 0,26.76904 0,26.76905 -47.98224,0 -47.98225,0 0,-26.76905 z m 56.6489,15.95429 c 5.4577,-3.22394 7.43407,-11.02521 4.54491,-17.93994 -2.45488,-5.87535 -11.41831,-8.60313 -16.52233,-5.02813 -2.62698,1.84 -2.83803,0.7919 -0.81536,-4.04903 1.93865,-4.63984 4.80091,-5.97409 11.3629,-5.29684 5.14813,0.53134 5.39013,0.44927 5.39013,-1.82801 0,-2.8058 -2.12211,-3.69898 -8.78847,-3.69898 -7.92634,0 -13.79846,6.25841 -15.01608,16.00388 -1.62633,13.01673 4.05201,23.56043 12.68854,23.56043 2.33107,0 5.55116,-0.77552 7.15576,-1.72338 z"
       id="path5164"
       inkscape:connector-curvature="0"
       transform="translate(-6.1035156e-5,0)" />
    <path
       style="opacity:0.719;fill:#d1c4e9;fill-opacity:1;stroke:none;stroke-width:4.5999999;stroke-linecap:round;stroke-linejoin:round;stroke-miterlimit:4;stroke-dasharray:none;stroke-opacity:1"
       d="m 374.61092,388.28675 c -2.01864,-2.88201 -2.01864,-8.7903 0,-11.6723 2.16663,-3.0933 7.82033,-3.0933 9.98697,0 2.25387,3.21786 2.02009,9.42918 -0.4478,11.89707 -2.74529,2.74528 -7.53796,2.63236 -9.53917,-0.22477 z"
       id="path5166"
       inkscape:connector-curvature="0"
       transform="translate(-6.1035156e-5,0)" />
    <path
       style="opacity:0.719;fill:#d1c4e9;fill-opacity:1;stroke:none;stroke-width:4.5999999;stroke-linecap:round;stroke-linejoin:round;stroke-miterlimit:4;stroke-dasharray:none;stroke-opacity:1"
       d="m 231.61705,377.90491 0,-26.76904 47.98225,0 47.98225,0 0,26.76904 0,26.76905 -47.98225,0 -47.98225,0 0,-26.76905 z m 50.57491,15.38877 c 6.66869,-4.49403 7.63545,-13.90406 2.06857,-20.13448 -2.36331,-2.64499 -3.71098,-3.21614 -8.53215,-3.61595 l -5.72553,-0.47481 0,-3.91552 0,-3.91552 7.57614,0 c 7.40779,0 7.57615,-0.0561 7.57615,-2.52538 0,-2.52539 0,-2.52539 -10.10153,-2.52539 l -10.10152,0 0,10.07653 0,10.07652 2.59114,-0.98515 c 4.65895,-1.77133 9.42482,-1.18286 12.10199,1.49431 3.33097,3.33098 3.2818,7.92171 -0.12128,11.32479 -2.25395,2.25395 -3.23052,2.53354 -7.32361,2.09671 -2.59757,-0.27723 -5.51836,-0.83501 -6.49063,-1.23951 -1.45701,-0.60618 -1.76776,-0.1961 -1.76776,2.33281 0,3.44564 0.95623,3.84801 9.6996,4.08138 3.8432,0.10258 6.01769,-0.44454 8.55042,-2.15134 z"
       id="path5168"
       inkscape:connector-curvature="0"
       transform="translate(-6.1035156e-5,0)" />
    <path
       style="opacity:0.719;fill:#d1c4e9;fill-opacity:1;stroke:none;stroke-width:4.5999999;stroke-linecap:round;stroke-linejoin:round;stroke-miterlimit:4;stroke-dasharray:none;stroke-opacity:1"
       d="m 1112.4701,113.75002 0,-26.263963 47.9822,0 47.9823,0 0,26.263963 0,26.26397 -47.9823,0 -47.9822,0 0,-26.26397 z m 43.2511,13.8896 c 0.3023,-2.62744 0.097,-2.77792 -3.7881,-2.77792 l -4.1077,0 0,-16.66752 c 0,-18.915424 0.7242,-17.668054 -9.0416,-15.573655 -4.6769,1.003011 -5.1005,1.332733 -5.1005,3.970095 0,2.76349 0.1284,2.839405 3.2763,1.9366 1.802,-0.516801 3.6203,-0.939638 4.0406,-0.939638 0.4204,0 0.7643,6.136678 0.7643,13.637058 l 0,13.63706 -4.0406,0 c -3.5596,0 -4.0406,0.2806 -4.0406,2.35702 0,1.29637 0.3179,2.67497 0.7065,3.06357 0.3886,0.38861 5.2752,0.57801 10.8592,0.4209 l 10.1526,-0.28565 0.3196,-2.77792 z m 27.3146,0.72456 c 4.0054,-3.37028 5.5509,-8.37144 5.5029,-17.80672 -0.03,-5.79081 -0.5853,-8.86589 -2.2085,-12.219014 -2.4393,-5.038943 -5.3948,-6.811779 -11.3559,-6.811779 -7.6198,0 -11.9853,7.174768 -11.9853,19.697973 0,12.85204 4.3305,19.69798 12.4604,19.69798 3.3908,0 5.3184,-0.65007 7.5864,-2.55844 z"
       id="path5190"
       inkscape:connector-curvature="0"
       transform="translate(-6.1035156e-5,0)" />
    <path
       style="opacity:0.719;fill:#d1c4e9;fill-opacity:1;stroke:none;stroke-width:4.5999999;stroke-linecap:round;stroke-linejoin:round;stroke-miterlimit:4;stroke-dasharray:none;stroke-opacity:1"
       d="m 1171.468,123.74549 c -1.6299,-1.80102 -1.9243,-3.71674 -1.9243,-12.52085 0,-8.88608 0.2857,-10.71018 1.9687,-12.569868 2.8977,-3.201997 7.6644,-2.480565 9.6346,1.458188 2.2046,4.40725 2.0331,18.21026 -0.2791,22.4759 -2.1466,3.95988 -6.3904,4.48208 -9.3999,1.15663 z"
       id="path5192"
       inkscape:connector-curvature="0"
       transform="translate(-6.1035156e-5,0)" />
    <path
       style="opacity:0.719;fill:#d1c4e9;fill-opacity:1;stroke:none;stroke-width:4.5999999;stroke-linecap:round;stroke-linejoin:round;stroke-miterlimit:4;stroke-dasharray:none;stroke-opacity:1"
       d="m 1210.4549,113.75002 0,-26.263963 42.9315,0 42.9314,0 0,26.263963 0,26.26397 -42.9314,0 -42.9315,0 0,-26.26397 z m 39.901,14.14214 c 0,-2.18905 -0.5045,-2.56714 -3.7881,-2.8389 l -3.788,-0.31352 0,-16.60653 0,-16.606543 -2.4757,0 c -1.3616,0 -4.7709,0.492236 -7.5762,1.093858 -4.5097,0.96716 -5.1004,1.392571 -5.1004,3.672838 0,2.475438 0.1825,2.553965 4.5457,1.955924 l 4.5456,-0.623055 0,13.617738 0,13.61773 -4.0406,0 c -3.5596,0 -4.0406,0.2806 -4.0406,2.35702 0,1.29637 0.318,2.67497 0.7066,3.06357 0.3886,0.38861 5.2752,0.57801 10.8591,0.4209 10.0798,-0.2836 10.1526,-0.30375 10.1526,-2.81103 z m 31.6344,-0.25254 c 0.3023,-2.62744 0.097,-2.77792 -3.7881,-2.77792 l -4.1077,0 0,-16.66752 c 0,-18.915424 0.7242,-17.668054 -9.0417,-15.573655 -4.6962,1.007153 -5.1005,1.32492 -5.1005,4.008906 0,1.866072 0.4544,2.775067 1.2627,2.526047 0.6945,-0.213951 2.5128,-0.662913 4.0406,-0.997694 l 2.778,-0.608693 0,13.656309 0,13.6563 -3.5673,0 c -3.7137,0 -5.2429,1.69422 -4.135,4.58123 0.4919,1.282 2.3926,1.50084 10.9672,1.26269 l 10.3721,-0.28808 0.3197,-2.77792 z"
       id="path5194"
       inkscape:connector-curvature="0"
       transform="translate(-6.1035156e-5,0)" />
    <path
       style="opacity:0.719;fill:#d1c4e9;fill-opacity:1;stroke:none;stroke-width:4.5999999;stroke-linecap:round;stroke-linejoin:round;stroke-miterlimit:4;stroke-dasharray:none;stroke-opacity:1"
       d="m 1297.328,113.75002 0,-26.263963 39.901,0 39.901,0 0,26.263963 0,26.26397 -39.901,0 -39.901,0 0,-26.26397 z m 36.3655,14.14214 c 0,-2.8621 -0.2245,-3.03046 -4.0406,-3.03046 l -4.0406,0 0,-16.66752 c 0,-18.915424 0.7242,-17.668054 -9.0417,-15.573655 -4.6586,0.999084 -5.1005,1.339952 -5.1005,3.93423 0,2.765159 0.1003,2.817079 3.7881,1.960699 2.0834,-0.483821 4.129,-0.890519 4.5457,-0.903773 0.4167,-0.01326 0.7576,6.112579 0.7576,13.612959 l 0,13.63706 -4.0406,0 c -3.8161,0 -4.0406,0.16836 -4.0406,3.03046 l 0,3.03046 10.6066,0 10.6066,0 0,-3.03046 z m 31.3147,0 0,-3.03046 -7.6802,0 -7.6801,0 5.9827,-6.81853 c 3.2906,-3.75019 6.7466,-7.94245 7.6802,-9.31614 3.3578,-4.94078 1.533,-13.158285 -3.4999,-15.760891 -3.3161,-1.714869 -10.4298,-1.873136 -14.855,-0.330501 -2.5827,0.900317 -3.1812,1.660559 -3.1812,4.04061 0,3.301917 0.4601,3.463202 4.0406,1.41641 5.8717,-3.356566 13.132,-0.881099 13.132,4.477482 0,3.31891 -1.6706,5.76507 -10.2922,15.07029 -5.2101,5.62324 -6.8804,8.13676 -6.8804,10.35406 l 0,2.92813 11.6168,0 11.6167,0 0,-3.03046 z"
       id="path5196"
       inkscape:connector-curvature="0"
       transform="translate(-6.1035156e-5,0)" />
  </g>
</svg>
