<?xml version="1.0" encoding="UTF-8" standalone="no"?>
<!-- Created with Inkscape (http://www.inkscape.org/) -->

<svg
   xmlns:osb="http://www.openswatchbook.org/uri/2009/osb"
   xmlns:dc="http://purl.org/dc/elements/1.1/"
   xmlns:cc="http://creativecommons.org/ns#"
   xmlns:rdf="http://www.w3.org/1999/02/22-rdf-syntax-ns#"
   xmlns:svg="http://www.w3.org/2000/svg"
   xmlns="http://www.w3.org/2000/svg"
   xmlns:sodipodi="http://sodipodi.sourceforge.net/DTD/sodipodi-0.dtd"
   xmlns:inkscape="http://www.inkscape.org/namespaces/inkscape"
   width="440mm"
   height="280mm"
   viewBox="0 0 1559.0551 992.12598"
   id="svg2"
   version="1.1"
   inkscape:version="0.91 r13725"
   sodipodi:docname="World-Map.svg">
  <defs
     id="defs4">
    <linearGradient
       osb:paint="solid"
       id="linearGradient5661">
      <stop
         id="stop5663"
         offset="0"
         style="stop-color:#000000;stop-opacity:1;" />
    </linearGradient>
  </defs>
  <sodipodi:namedview
     id="base"
     pagecolor="#ffffff"
     bordercolor="#666666"
     borderopacity="1.0"
     inkscape:pageopacity="0.0"
     inkscape:pageshadow="2"
     inkscape:zoom="0.49497475"
     inkscape:cx="673.59121"
     inkscape:cy="525.20551"
     inkscape:document-units="px"
     inkscape:current-layer="layer7"
     showgrid="false"
     inkscape:window-width="1440"
     inkscape:window-height="778"
     inkscape:window-x="0"
     inkscape:window-y="1"
     inkscape:window-maximized="1" />
  <metadata
     id="metadata7">
    <rdf:RDF>
      <cc:Work
         rdf:about="">
        <dc:format>image/svg+xml</dc:format>
        <dc:type
           rdf:resource="http://purl.org/dc/dcmitype/StillImage" />
        <dc:title></dc:title>
      </cc:Work>
    </rdf:RDF>
  </metadata>
  <g
     inkscape:groupmode="layer"
     id="layer5"
     inkscape:label="world map"
     style="display:inline">
    <path
       style="fill:#e0e0e0;fill-opacity:1;fill-rule:evenodd;stroke:#000000;stroke-width:1px;stroke-linecap:butt;stroke-linejoin:miter;stroke-opacity:1"
       d="m 280.82235,108.2425 -21.21321,-14.142136 -51.51778,-5.050763 -32.32488,10.101525 -16.16244,-8.08122 -7.07107,-11.111678 -68.69037,8.08122 -34.345186,12.121832 2.020305,14.14213 -25.253814,-4.04061 1.010153,22.22336 -17.172594,5.05076 -4.0406097,18.18275 14.1421357,12.12183 37.375644,-15.15229 38.385797,-1.01015 21.213209,30.30458 0,39.39594 -9.09138,30.30458 -23.233507,39.39595 2.020305,39.39595 16.162442,23.23351 7.07107,51.51778 12.12183,4.04061 -12.12183,-39.39595 5.05076,-10.10153 7.07107,29.29443 15.15229,29.29442 8.08122,15.15229 -2.02031,16.16244 33.33504,26.26397 22.22335,1.01015 22.22336,15.15229 11.11168,2.0203 11.11167,25.25382 21.21321,15.15228 -9.09138,-18.18274 1.01016,-39.39595 -24.24366,-2.02031 11.11167,-40.4061 -13.13198,-2.0203 -11.11168,21.2132 -19.1929,2.0203 -13.13198,-16.16244 1.01015,-17.17259 8.08122,-34.34519 34.34519,-21.2132 5.05076,11.11168 8.08122,0 7.07107,-15.15229 18.18275,9.09137 6.06091,15.15229 4.04061,15.15229 9.09138,3.03046 3.03045,-7.07107 -3.03045,-21.2132 -1.01016,-16.16244 35.35534,-30.30458 31.31473,-44.44671 10.10153,-2.02031 3.03045,-8.08122 22.22336,-18.18274 3.03046,15.15228 18.18274,-13.13198 20.20305,-7.07107 -4.04061,-7.07106 -14.14213,2.0203 -9.09137,-4.04061 12.12183,-11.11168 -25.25382,-1.01015 0,-6.06092 18.18275,-4.04061 23.23351,-1.01015 13.13198,0 13.13198,-17.17259 0,-11.11168 -6.06091,-2.0203 -4.04061,-10.10153 -6.06092,-6.06092 0,-23.2335 -21.2132,12.12183 -4.04061,-17.1726 -13.13198,-7.07106 -8.08122,0 -12.12184,11.11167 -6.06091,4.04061 -2.02031,27.27412 -21.2132,11.11168 -2.0203,17.17259 -13.13199,0 -3.03045,-15.15228 7.07106,-5.05077 -19.1929,-5.05076 -16.16244,-10.10153 -5.05076,-6.06091 1.01015,-14.14214 15.15229,-13.13198 19.1929,-8.08122 16.16244,-6.06091 3.03046,-14.14214 9.09137,6.06091 10.10153,-10.10152 18.18274,-5.05076 3.03046,-9.091376 -3.03046,-7.071068 -20.20305,13.131984 -3.03046,-11.111679 -5.05076,0 0,-13.131983 -10.10152,0 -18.18275,30.304572 -16.16244,-7.071064 -30.30458,1.010154 z"
       id="path4182"
       inkscape:connector-curvature="0" />
    <path
       style="fill:#e0e0e0;fill-opacity:1;fill-rule:evenodd;stroke:#000000;stroke-width:1px;stroke-linecap:butt;stroke-linejoin:miter;stroke-opacity:1"
       d="m 253.54823,72.88716 17.17259,6.060916 0,13.131983 21.21321,0 8.08122,-2.020305 12.12183,1.010152 12.12183,-5.050763 0,-16.16244 -18.18275,2.020305 -15.15229,-2.020305 -14.14213,-11.111678 -16.16244,1.010152 z"
       id="path4184"
       inkscape:connector-curvature="0" />
    <path
       style="fill:#e0e0e0;fill-opacity:1;fill-rule:evenodd;stroke:#000000;stroke-width:1px;stroke-linecap:butt;stroke-linejoin:miter;stroke-opacity:1"
       d="m 394.96959,85.008991 29.29442,-2.020305 10.10152,24.243664 -16.16244,13.13198 7.07107,10.10153 21.21321,10.10152 -1.01016,-16.16244 7.07107,0 -1.01015,-15.15229 9.09137,0 -2.0203,-15.152286 -7.07107,-9.091373 0,-8.081221 -22.22336,-13.131983 -24.24366,3.030458 -9.09137,-4.04061 -9.09138,10.101525 z"
       id="path4186"
       inkscape:connector-curvature="0" />
    <path
       style="fill:#e0e0e0;fill-opacity:1;fill-rule:evenodd;stroke:#000000;stroke-width:1px;stroke-linecap:butt;stroke-linejoin:miter;stroke-opacity:1"
       d="m 408.10157,28.440448 -1.01015,14.142136 28.28427,10.101525 14.14213,-5.050762 7.07107,-12.121831 54.54824,-13.131983 2.0203,11.111678 -25.25381,1.010153 -2.02031,11.111678 20.20306,2.020305 17.17259,22.223356 0,26.263966 -18.18275,0 7.07107,34.345191 20.20305,20.20305 16.16244,-24.24366 4.04061,-11.11168 27.27412,-9.09138 2.02031,-8.081216 51.51778,-11.111678 3.03045,-28.284271 26.26397,-6.060916 0,-18.182745 18.18275,-9.091373 -4.04061,-11.111678 -27.27412,1.010152 -72.73099,-2.020305 -61.6193,0 -34.34519,-5.0507626 -17.17259,3.0304576 -10.10153,7.071068 -9.09137,4.04061 z"
       id="path4188"
       inkscape:connector-curvature="0" />
    <path
       style="fill:#e0e0e0;fill-opacity:1;fill-rule:evenodd;stroke:#000000;stroke-width:1px;stroke-linecap:butt;stroke-linejoin:miter;stroke-opacity:1"
       d="m 312.13708,502.20199 -25.25382,30.30458 4.04061,21.2132 -24.24366,48.48732 3.03046,11.11168 3.03046,5.05076 -7.07107,5.05077 -1.01015,13.13198 8.08122,13.13198 13.13198,25.25382 14.14214,28.28427 19.19289,15.15229 7.07107,7.07106 9.09138,2.02031 4.04061,9.09137 2.0203,157.5838 8.08122,9.09137 7.07107,16.16244 1.01015,11.11168 -6.06091,12.12183 10.10152,18.18275 21.2132,24.24366 14.14214,1.01015 -5.05076,-15.15229 6.06091,-14.14213 -1.01015,-16.16244 -10.10153,0 1.01016,-9.09138 8.08122,-11.11167 0,-9.09138 -8.08122,-8.08122 3.03046,-5.05076 8.08122,5.05076 3.03045,-4.04061 -1.01015,-15.15229 9.09137,0 4.04061,2.02031 13.13199,-21.2132 -16.16244,-10.10153 1.01015,-9.09137 16.16244,9.09137 17.17259,-29.29442 13.13199,-35.35534 -3.03046,-11.11168 35.35534,-16.16244 8.08122,-22.22336 3.03046,-46.46701 5.05076,-20.20306 13.13198,-21.2132 3.03046,-15.15229 -19.1929,-15.15229 -15.15229,-8.08122 -23.23351,0 -6.06091,-12.12183 -16.16244,-2.0203 -16.16244,0 9.09137,-15.15229 -6.06092,-18.18275 -9.09137,-10.10152 -8.08122,0 -11.11168,-11.11168 -13.13198,-10.10152 -11.11168,-8.08122 -10.10152,-9.09138 -23.23351,-4.04061 -9.09137,-7.07107 -7.07107,-2.0203 -6.06092,20.20305 -3.03046,-12.12183 z"
       id="path4190"
       inkscape:connector-curvature="0" />
    <path
       style="fill:#e0e0e0;fill-opacity:1;fill-rule:evenodd;stroke:#000000;stroke-width:1px;stroke-linecap:butt;stroke-linejoin:miter;stroke-opacity:1"
       d="m 690.94428,334.51667 81.82236,-17.17259 1.01015,25.25381 26.26397,16.16244 23.2335,8.08122 6.06092,-18.18274 21.2132,13.13198 45.45687,0 13.13198,-25.25382 -2.0203,-13.13198 -41.41626,-3.03046 -8.08122,-8.08122 0,-26.26396 -17.17259,8.08122 6.06091,17.17259 -7.07106,8.08122 -14.14214,-16.16244 -7.07107,-13.13198 -1.01015,-9.09138 -32.32488,-25.25381 0,11.11168 17.17259,14.14213 7.07107,8.08122 5.05076,8.08123 -1.68295,1.41352 -6.07143,-3.57143 1.42857,8.92857 -12.5,12.14286 -7.5,-5 6.42858,-2.14286 5.71428,-7.85714 -16.78571,-19.64286 -15.35715,-14.64286 -6.42857,-1.78571 0,10 -19.28571,1.07143 -11.07143,16.07143 -6.78571,4.28571 -2.85715,16.07143 -16.42857,8.92857 -17.5,-0.35714 -11.78571,-5.71429 0.35714,-39.64286 10.35714,-10 11.42857,1.42858 7.5,6.78571 3.21429,1.42857 5,-6.42857 2.85714,-7.85714 -3.57143,-10 -10,-7.5 0,-3.57143 13.21429,-0.71429 -8.21429,-6.42857 0.35715,-6.78571 18.21428,0.35714 11.42857,-14.28571 8.57143,-0.35715 0.71429,-8.57143 8.57143,-3.57142 11.42857,-11.07143 7.5,4.28571 13.21428,-4.64286 7.85715,6.42858 13.57143,-4.64286 10,0.71428 3.92857,-15.35714 11.78571,-1.42857 -0.35714,-16.42857 8.57143,1.78571 4.64285,-1.42857 0.35715,-7.5 -19.28572,0 -3.92857,-7.85714 -0.35714,-6.07143 7.5,-10 -1.07143,-6.07143 -7.14286,1.07143 -13.57143,12.5 -1.78571,13.57143 3.57143,10.35714 -7.85714,13.57143 -8.92858,10.35714 -5.35714,2.85715 -3.57143,-2.14286 -5.35714,-10.35714 -19.64286,-15.35715 -2.5,5.71429 -5.71428,0 0.35714,-24.28572 12.5,-1.07142 2.85714,-10 46.42857,-43.928576 36.42858,0 43.92857,17.499996 -0.35715,10 -4.64285,2.5 -6.07143,-1.07142 -4.64286,-3.57143 -8.21428,1.07143 1.42857,7.14285 12.85714,11.07143 22.5,-19.28571 23.57143,-10.714289 25.71428,-0.714286 10.35715,-9.285714 12.14285,9.285714 24.99992,0.714286 -2.5,-6.428572 -9.28563,-11.071428 0,-12.857143 14.99993,0.357143 8.5715,16.071428 2.1428,20.357141 10.3572,0.35715 -0.7143,-10.000005 -7.8572,-18.571428 5,0.714285 7.5,17.142857 4.6429,-0.357142 -0.7143,-26.785715 37.8571,-5.357143 16.0715,-14.642857 59.2857,2.857143 2.1428,8.928572 -7.5,8.571428 0,3.214286 26.4286,1.071428 10.3572,4.642858 15.3571,0 7.1429,-5.714286 19.2857,-0.357143 10.7143,8.214286 38.9285,5 11.4286,-16.071429 4.2857,-0.714286 17.1429,13.571429 49.6428,0 7.1429,6.428571 28.5714,0.357143 21.0714,8.214286 6.4286,-1.785714 4.2857,-8.214286 10.3572,3.928571 17.8571,1.428572 18.2143,6.428571 10.7143,4.999998 27.5,1.42857 13.2143,11.07143 0,4.64286 -11.7857,0.71429 -16.0715,-6.78572 -8.9285,7.85714 17.1428,11.42858 1.0714,6.07142 -11.7857,3.21429 -11.7857,15.71429 -2.5,0 0,-11.07143 -2.5,1.42857 -13.2143,9.64286 0.3572,8.57142 6.4285,1.42858 6.0715,5.35714 0.7143,44.64286 -4.6429,-1.07143 -14.6429,-17.5 0,-10 -14.6428,-11.42857 -0.3572,-15.35715 4.2858,-6.07143 0.3571,-15.71428 -8.5714,0.71428 -4.2857,3.92858 -6.4286,-1.78572 -1.7857,-2.5 -3.5715,0 -5,20.35714 -10.3571,1.78572 -34.6429,-6.42857 -12.8571,15 -0.3571,21.42857 0.3571,3.57143 34.2857,2.85714 13.2143,21.42857 0.3571,40 -6.7857,10.35714 -12.5,1.07143 -4.6428,8.92857 -2.8572,15.35715 2.5,8.92857 16.7857,15.35714 0.7143,10.35714 -7.5,6.42858 -7.8571,0.35714 -3.9286,-3.57143 -0.3571,-12.85714 -12.5,-8.57143 -0.3572,-8.92857 -7.8571,-6.42857 -6.0714,7.85714 -4.2858,-2.14286 -2.1428,-16.78571 -5,1.07143 -15,25.71428 0,3.57143 26.7857,0.71429 -0.3571,7.14285 -7.1429,9.64286 0.3571,5.71429 21.4286,24.64285 1.4286,33.57143 -8.2143,16.42857 -8.5714,6.78572 -10.3572,3.57143 -6.4285,3.92857 -4.6429,8.92857 -3.5714,10.35714 -4.2857,10 -2.5,1.07143 -2.5,-1.07143 -0.3572,-19.28571 -9.6428,-6.78572 -5.7143,2.85715 -5.3572,10.35714 -1.7857,8.21428 13.9286,18.92858 8.2143,11.07142 3.9285,11.42858 -0.3571,13.21428 -6.7857,9.28572 -10.7143,10.71428 -7.1429,2.5 -6.0714,-10.35714 -12.1428,-16.78572 -2.1429,-3.57142 -3.2143,-0.35715 -5,11.78572 0,16.78571 -0.7143,4.28572 -6.0714,-2.85715 0,-41.07143 -5.3571,-11.07142 -3.5715,0 -4.2857,5.35714 -4.2857,-1.07143 -1.4286,-16.42857 -15,-15.35714 -2.1428,-11.07143 -7.5,-6.07143 -9.2857,-2.5 -9.2858,2.14286 -12.5,16.07142 -9.6428,10 -4.6429,1.07143 -7.8571,14.28572 -3.9286,20.35714 -0.3571,14.64286 -2.5,18.57143 -11.4286,4.64285 -4.2857,-6.42857 -7.8572,-21.42857 -7.8571,-25 -5.3571,-15 -0.3572,-22.14286 -11.7857,-2.5 -32.1429,-32.14285 -40.3571,-2.85715 -10.3571,-11.42857 -21.7858,-1.78571 -21.42849,-25.35715 -3.21428,0.35715 1.07143,14.28571 8.21428,27.5 8.21429,5.35714 8.92857,-2.14285 7.5,-4.28572 6.0714,-6.42857 3.9286,-0.35714 3.5714,5.71428 7.1428,12.5 7.5,5.35715 2.1429,6.78571 -5,11.42857 -8.2143,11.78572 -14.6428,18.57143 -24.28572,13.21428 -21.07142,12.5 -8.21429,-0.35714 -4.64286,-4.28572 -3.57143,-12.14285 -3.92857,-16.42857 -11.42857,-20 -11.07143,-23.21429 -8.92857,-21.42857 -11.07143,-16.78572 -4.64285,-1.78571 -5,0 1.07142,9.64286 7.14286,15 5.35714,18.21428 7.85715,20 10.35714,19.28572 9.64286,14.64285 11.78571,21.78572 1.42857,11.42857 39.64286,-0.35714 7.85714,1.42857 -3.92857,22.85714 -59.64286,93.92857 -4.28571,8.57143 1.78571,11.78572 7.5,16.42857 1.07143,43.21428 -18.92857,17.14286 -11.42857,16.42857 -3.21429,23.92857 1.07143,10.71429 -9.64285,9.28571 -5.35715,11.78572 -3.57143,12.14285 -8.21428,8.57143 -13.57143,15 -9.64286,11.78572 -14.64285,5.71428 -21.07143,2.5 -5.71429,-8.57143 -1.42857,-16.07142 -10,-20.35715 -5,-8.57143 -0.35714,-24.64285 -6.07143,-20.71429 -6.07143,-13.92857 -6.07143,-11.78571 0,-18.92858 4.64286,-10.35714 5,-13.21428 -0.35714,-21.07143 -2.85715,-16.78572 -7.5,-22.85714 -12.14285,-16.78571 -0.35715,-15 3.92857,-13.57143 -6.07142,-15.35715 -13.21429,-4.64285 -11.78571,-11.42857 -20,-1.07143 -17.14286,6.42857 -16.78572,4.64286 -21.78571,0 -18.57143,-17.5 -7.5,-15 -6.07143,-13.21429 -9.28571,-9.28571 -2.14286,-25 6.07143,-8.21429 0,-32.85714 1.42857,-19.28572 14.28572,-23.92857 22.5,-24.64286 -1.07143,-17.85714 13.92857,-12.85714 z"
       id="path4192"
       inkscape:connector-curvature="0" />
    <path
       style="fill:#e0e0e0;fill-opacity:1;fill-rule:evenodd;stroke:#000000;stroke-width:1px;stroke-linecap:butt;stroke-linejoin:miter;stroke-opacity:1"
       d="m 959.28566,722.12598 -0.71429,22.85714 -5,11.42857 -0.71429,24.28571 8.57143,6.42858 15.71429,-5 0,-23.57143 12.14286,-32.14286 4.28571,-21.42857 -4.28571,-15 -9.28572,7.14286 -7.14286,15 z"
       id="path4194"
       inkscape:connector-curvature="0" />
    <path
       style="fill:#e0e0e0;fill-opacity:1;fill-rule:evenodd;stroke:#000000;stroke-width:1px;stroke-linecap:butt;stroke-linejoin:miter;stroke-opacity:1"
       d="m 1412.857,698.55455 -23.5714,30.71428 -7.1428,11.42857 -45.7143,22.85715 -3.5715,34.28571 2.1429,32.85714 -6.4286,22.85715 15,0 36.4286,-9.28572 19.2857,-12.85714 24.2857,1.42857 7.8572,17.14286 17.8571,-9.28572 -0.7143,23.57143 0.7143,14.28572 19.2857,5 10.7143,2.85714 35.7143,-32.14286 21.4286,-32.14285 8.5714,-32.14286 -7.8571,-23.57143 -9.2858,-5 -5.7142,-21.42857 -5.7143,-6.42857 -0.7143,-24.28572 -10,-26.42857 -5,0 -2.8572,23.57143 -7.8571,15 -12.1429,2.14286 -11.4285,-12.14286 -2.1429,-9.28571 3.5714,-12.14286 -3.5714,-5.71429 -18.5714,0 -12.8572,14.28572 -3.5714,13.57143 -6.4286,-2.85715 z"
       id="path4196"
       inkscape:connector-curvature="0" />
    <path
       style="fill:#e0e0e0;fill-opacity:1;fill-rule:evenodd;stroke:#000000;stroke-width:1px;stroke-linecap:butt;stroke-linejoin:miter;stroke-opacity:1"
       d="m 1447.1428,599.98312 12.8571,-0.71429 2.8571,18.57143 9.2858,5.71429 9.2857,-15.71429 27.1428,12.14286 22.1429,20 3.5714,14.28571 20.7143,20 -15.7143,2.85715 -7.8571,-11.42858 -12.8572,-12.14285 -8.5714,5.71428 -10.7143,2.14286 -10,-8.57143 -5.7143,1.42857 1.4286,-17.14285 -8.5714,-6.42858 -20,-5 -5.7143,-7.85714 1.4286,-9.28571 z"
       id="path4198"
       inkscape:connector-curvature="0" />
    <path
       style="fill:#e0e0e0;fill-opacity:1;fill-rule:evenodd;stroke:#000000;stroke-width:1px;stroke-linecap:butt;stroke-linejoin:miter;stroke-opacity:1"
       d="m 1249.2856,554.26883 17.8572,36.42857 15.7142,31.42858 12.8572,19.28571 5,0.71429 6.4286,-7.85715 -3.5715,-13.57143 -8.5714,-17.85714 -11.4286,-17.85714 -4.2857,-6.42857 -7.8571,-2.14286 -9.2857,-14.28571 z"
       id="path4200"
       inkscape:connector-curvature="0" />
    <path
       style="fill:#e0e0e0;fill-opacity:1;fill-rule:evenodd;stroke:#000000;stroke-width:1px;stroke-linecap:butt;stroke-linejoin:miter;stroke-opacity:1"
       d="m 1324.9999,589.98312 0,19.28571 9.2857,10 26.4286,-0.71428 2.1428,-9.28572 9.2858,-15.71428 -0.7143,-25 3.5714,-7.14286 -1.4286,-7.14286 -7.8571,-5.71428 -15,14.28571 -7.8572,1.42857 -7.1428,22.14286 z"
       id="path4202"
       inkscape:connector-curvature="0" />
  </g>
  <g
     inkscape:groupmode="layer"
     id="layer3"
     inkscape:label="time zones"
     style="display:inline">
    <path
       style="fill:none;fill-rule:evenodd;stroke:#000000;stroke-width:0.99999994px;stroke-linecap:butt;stroke-linejoin:miter;stroke-opacity:1"
       d="M 102.00444,0.00834183 100.57585,85.535464 50.575216,99.789986 16.289066,114.04451 0.57458082,159.65897 13.431887,172.48805 l 71.429478,-17.10543 2.85718,600.11531 -1.42859,236.62504"
       id="path4208"
       inkscape:connector-curvature="0" />
    <rect
       style="fill:none;fill-opacity:1;stroke:#000000;stroke-width:0.99999988;stroke-linecap:round;stroke-linejoin:round;stroke-miterlimit:4;stroke-dasharray:none;stroke-opacity:1"
       id="rect4210"
       width="1558.0552"
       height="991.12598"
       x="0.49993894"
       y="0.5000037" />
    <path
       style="fill:none;fill-rule:evenodd;stroke:#000000;stroke-width:1px;stroke-linecap:butt;stroke-linejoin:miter;stroke-opacity:1"
       d="m 181.42902,0.00921154 1.42857,93.32502246 -71.42857,21.536536 2.85714,57.43079 -7.14285,89.01771 57.14285,97.63234 21.42858,22.97231 -1.42858,139.26965 1.42858,470.93242"
       id="path4212"
       inkscape:connector-curvature="0" />
    <path
       style="fill:none;fill-rule:evenodd;stroke:#000000;stroke-width:0.99999994px;stroke-linecap:butt;stroke-linejoin:miter;stroke-opacity:1"
       d="m 279.99994,-2.7808536e-6 0,108.4910627808536 -27.14286,112.7736 -1.42857,78.51327 27.14286,91.36089 2.85714,137.04135 0,236.96732 -37.14286,-2.85502 -1.42857,38.54288 41.42857,1.42751 -1.42857,189.85936"
       id="path4214"
       inkscape:connector-curvature="0" />
    <path
       style="fill:none;fill-rule:evenodd;stroke:#000000;stroke-width:1px;stroke-linecap:butt;stroke-linejoin:miter;stroke-opacity:1"
       d="m 387.1428,-2.4458365e-5 0,129.530624458365 -34.28572,69.74726 -4.28571,99.63895 -2.85714,74.01751 47.14285,-2.84684 0,93.9453 -47.14285,0 2.85714,45.54923 55.71428,41.279 -2.85714,99.63895 -31.42857,11.38731 -1.42857,45.54922 24.28571,15.65756 -1.42857,163.69255 1.42857,105.3326"
       id="path4216"
       inkscape:connector-curvature="0" />
    <path
       style="fill:none;fill-rule:evenodd;stroke:#000000;stroke-width:1px;stroke-linecap:butt;stroke-linejoin:miter;stroke-opacity:1"
       d="m 465.71423,0.00564155 -1.42858,126.53127845 -22.85714,17.25427 2.85714,34.50853 15.71429,12.94071 2.85714,107.83916 -2.85714,301.94967 42.85714,17.25427 20,25.88141 -15.71428,37.38423 -11.42857,74.7685 -34.28572,27.31926 0,208.48905"
       id="path4218"
       inkscape:connector-curvature="0" />
    <path
       style="fill:none;fill-rule:evenodd;stroke:#000000;stroke-width:1px;stroke-linecap:butt;stroke-linejoin:miter;stroke-opacity:1"
       d="m 569.99994,0.02060618 4.28571,105.63403382 -38.57142,42.82461 -2.85715,185.5733 60,0 0,45.67957 -27.14285,0 2.85714,612.39189"
       id="path4220"
       inkscape:connector-curvature="0" />
    <path
       style="fill:none;fill-rule:evenodd;stroke:#000000;stroke-width:1px;stroke-linecap:butt;stroke-linejoin:miter;stroke-opacity:1"
       d="m 688.57137,0.00628795 -2.85714,227.62837205 -27.14286,100.21375 0,38.65388 -42.85714,68.718 -1.42858,95.91887 72.85715,55.83338 -2.85715,405.14987"
       id="path4222"
       inkscape:connector-curvature="0" />
    <path
       style="fill:none;fill-rule:evenodd;stroke:#000000;stroke-width:1px;stroke-linecap:butt;stroke-linejoin:miter;stroke-opacity:1"
       d="m 808.57137,0.00943341 1.42857,76.20560359 -58.57143,56.075823 5.71429,31.63251 42.85714,20.12978 -2.85714,140.90848 -4.28572,153.84905 31.42857,48.88661 1.42858,56.07582 -42.85715,43.13525 4.28572,365.21176"
       id="path4224"
       inkscape:connector-curvature="0" />
    <path
       style="fill:none;fill-rule:evenodd;stroke:#000000;stroke-width:1px;stroke-linecap:butt;stroke-linejoin:miter;stroke-opacity:1"
       d="m 935.71423,0.01561814 2.85714,92.02144886 1.42857,235.804963 -42.85714,50.32423 -1.42857,64.70259 48.57142,64.70257 -2.85714,135.15651 -2.85714,349.39393"
       id="path4226"
       inkscape:connector-curvature="0" />
    <path
       style="fill:none;fill-rule:evenodd;stroke:#000000;stroke-width:0.99999994px;stroke-linecap:butt;stroke-linejoin:miter;stroke-opacity:1"
       d="m 1067.1428,0.00478354 1.4285,152.41241646 0,117.90395 -34.2857,50.32486 -2.8571,76.2062 35.7143,53.20056 -2.8572,542.07058"
       id="path4228"
       inkscape:connector-curvature="0" />
    <path
       style="fill:none;fill-rule:evenodd;stroke:#000000;stroke-width:0.99999994px;stroke-linecap:butt;stroke-linejoin:miter;stroke-opacity:1"
       d="m 1207.1428,0.00373243 1.4285,193.54936757 2.8572,61.64905 -44.2857,54.48057 -1.4286,45.87836 40,73.11865 2.8571,563.44372"
       id="path4230"
       inkscape:connector-curvature="0" />
    <path
       style="fill:none;fill-rule:evenodd;stroke:#000000;stroke-width:1px;stroke-linecap:butt;stroke-linejoin:miter;stroke-opacity:1"
       d="m 1351.4285,0.00610002 -1.4286,117.39197998 2.8571,88.7598 -24.2857,64.42243 21.4286,61.55921 24.2857,31.49541 -1.4286,51.53795 -25.7142,37.22185 7.1428,95.91783 -37.1428,45.81151 0,44.3799 0,216.17305 41.4285,38.65346 2.8572,98.78106"
       id="path4232"
       inkscape:connector-curvature="0" />
    <path
       style="fill:none;fill-rule:evenodd;stroke:#000000;stroke-width:1px;stroke-linecap:butt;stroke-linejoin:miter;stroke-opacity:1"
       d="m 1471.4285,0.03385065 5.7143,84.34212635 47.1428,25.731493 0,27.16102 -45.7143,75.76497 -5.7143,390.26102 2.8572,98.63741 -24.2857,40.02677 0,122.93937 28.5714,30.02008 0,97.20787"
       id="path4234"
       inkscape:connector-curvature="0" />
    <path
       style="fill:#76c4e0;fill-opacity:0.66666667;stroke:none;stroke-width:1;stroke-linecap:round;stroke-linejoin:round;stroke-miterlimit:4;stroke-dasharray:none;stroke-opacity:1"
       d="m 1.0698247,78.438135 0,-77.1083126 50.0839993,0 50.083996,0 -0.33074,19.5717056 c -0.18191,10.764438 -0.4817,29.576649 -0.66619,41.804916 L 99.905443,84.939649 75.36264,91.926404 c -24.223337,6.895817 -24.766334,7.079164 -41.715396,14.085786 -9.444926,3.90447 -17.422882,7.34724 -17.728791,7.6506 -0.305908,0.30337 -3.69605,9.75659 -7.533647,21.00717 C 4.5472082,145.92053 1.3314111,155.22025 1.2385901,155.336 1.1457691,155.45174 1.0698247,120.8477 1.0698247,78.438135 Z"
       id="path4296"
       inkscape:connector-curvature="0"
       transform="translate(-6.1035156e-5,0)" />
    <path
       style="fill:#76c4e0;fill-opacity:0.66666667;stroke:none;stroke-width:1;stroke-linecap:round;stroke-linejoin:round;stroke-miterlimit:4;stroke-dasharray:none;stroke-opacity:1"
       d="m 1.0698247,848.84781 0,-141.92643 42.9314833,0 42.931483,0 -0.02419,38.25952 c -0.01869,29.51785 -1.297167,244.8676 -1.457307,245.46707 -0.01855,0.0694 -19.01197,0.12627 -42.207598,0.12627 l -42.1738683,0 0,-141.92643 z"
       id="path4298"
       inkscape:connector-curvature="0"
       transform="translate(-6.1035156e-5,0)" />
    <path
       style="fill:#76c4e0;fill-opacity:0.66666667;stroke:none;stroke-width:1;stroke-linecap:round;stroke-linejoin:round;stroke-miterlimit:4;stroke-dasharray:none;stroke-opacity:1"
       d="m 2.3458545,434.6382 0,-271.71849 5.5335962,5.40341 5.5335963,5.40341 35.00759,-8.42735 35.00759,-8.42736 0.864982,166.52815 c 0.475738,91.59049 1.227574,215.22459 1.670746,274.74244 l 0.805764,108.21429 -42.211932,0 -42.2119325,0 0,-271.7185 z"
       id="path4300"
       inkscape:connector-curvature="0"
       transform="translate(-6.1035156e-5,0)" />
    <path
       style="fill:#d1c4e0;fill-opacity:0.47435901;stroke:none;stroke-width:1;stroke-linecap:round;stroke-linejoin:round;stroke-miterlimit:4;stroke-dasharray:none;stroke-opacity:1"
       d="M 87.740512,573.93274 C 87.427936,344.77552 86.455137,156.5662 85.578737,155.6898 84.702335,154.81339 68.2647,157.85927 49.050659,162.45841 l -34.93462,8.36207 -5.8800556,-5.88005 -5.8800558,-5.88006 7.6211121,-21.96745 7.6211123,-21.96745 16.16244,-6.80752 c 8.889343,-3.74414 27.620502,-10.035375 41.624799,-13.980521 l 25.462359,-7.172993 1.30668,-21.356115 c 0.71868,-11.745862 1.30669,-30.760628 1.30669,-42.255035 l 0,-20.8989186 38.38579,0 38.3858,0 0.37881,39.3959496 c 0.20834,21.667772 0.43563,41.832613 0.50507,44.810758 0.12302,5.274962 -0.77985,5.689735 -34.95784,16.059575 -19.29626,5.85462 -35.34561,10.91834 -35.66523,11.25271 -0.31961,0.33436 0.0875,12.88129 0.9047,27.88206 1.08327,19.88497 0.49344,39.76244 -2.17711,73.3698 l -3.66292,46.09567 28.47092,48.85867 c 19.21052,32.96698 31.80571,52.28885 38.72367,59.40471 l 10.25275,10.54603 0.68399,305.12664 0.68398,305.12662 -48.03233,-6.7e-4 -48.03234,-6.7e-4 -0.568318,-416.64948 z"
       id="path4302"
       inkscape:connector-curvature="0"
       transform="translate(-6.1035156e-5,0)" />
    <path
       style="fill:#d1c498;fill-opacity:0.47435901;stroke:none;stroke-width:1;stroke-linecap:round;stroke-linejoin:round;stroke-miterlimit:4;stroke-dasharray:none;stroke-opacity:1"
       d="m 186.29363,685.07595 0,-305.50763 -10.08637,-10.21322 c -6.84162,-6.92769 -19.19017,-25.79524 -38.3858,-58.65033 -32.27136,-55.23544 -29.88487,-45.76052 -25.17709,-99.95898 2.10601,-24.24553 2.64664,-44.66547 1.7205,-64.98348 l -1.35054,-29.62814 19.97213,-6.11698 c 10.98467,-3.36433 27.15205,-8.20871 35.9275,-10.765291 l 15.95537,-4.648317 -1.14391,-45.974609 -1.14391,-45.9746056 48.32308,0 48.32307,0 0,51.3457526 0,51.34576 -14.14213,58.93289 -14.14214,58.93291 0,40.04279 0,40.04281 13.40351,44.1329 13.40352,44.13292 0.96317,186.28257 0.96318,186.28256 -6.79055,-0.84138 c -3.7348,-0.46277 -12.01808,-1.26546 -18.4073,-1.78377 l -11.61675,-0.94235 -0.0176,10.46061 c -0.01,5.75335 -0.59086,15.23361 -1.29156,21.06724 l -1.274,10.6066 21.82009,0 21.8201,0 -1.33191,59.09393 c -0.73255,32.50165 -1.33359,74.77654 -1.33563,93.94418 l -0.004,34.85027 -47.47717,0 -47.47717,0 0,-305.50761 z"
       id="path4304"
       inkscape:connector-curvature="0"
       transform="translate(-6.1035156e-5,0)" />
    <path
       style="fill:#d18898;fill-opacity:0.39743593;stroke:none;stroke-width:1;stroke-linecap:round;stroke-linejoin:round;stroke-miterlimit:4;stroke-dasharray:none;stroke-opacity:1"
       d="m 285.28858,895.62922 0,-94.95434 -15.65737,-0.0275 c -25.39613,-0.0448 -24.74874,0.46893 -24.74874,-19.6413 l 0,-17.17722 19.1929,1.43896 19.1929,1.43894 -0.14597,-123.93224 C 283.042,574.61181 282.26939,489.7499 281.40533,454.19253 l -1.57101,-64.64976 -13.67305,-45.45686 -13.67304,-45.45687 1.08884,-39.39595 1.08885,-39.39595 13.29102,-55.24685 13.29103,-55.24686 0,-53.344539 0,-53.3445436 52.52793,0 52.52793,0 0,62.4390076 0,62.439005 -17.36293,35.37145 -17.36292,35.37145 -2.71751,64.31904 c -1.49463,35.37546 -3.25436,75.02849 -3.91052,88.11784 l -1.19302,23.79883 24.30391,-1.37352 24.30391,-1.37352 0,45.75999 0,45.75999 -24.14532,0 -24.14532,0 1.01808,17.67767 c 1.79858,31.23026 -0.29195,27.74778 30.10035,50.14231 l 27.22847,20.06329 -0.22387,21.2132 c -0.12314,11.66726 -0.7948,33.83027 -1.4926,49.25112 l -1.26873,28.03792 -15.15228,5.54683 -15.15229,5.54682 -0.56455,24.16097 -0.56454,24.16099 11.2422,6.97882 11.24221,6.97885 0.43402,133.77027 0.43401,133.7703 -53.03301,1.2e-4 -53.033,1.5e-4 0,-94.95434 z"
       id="path4306"
       inkscape:connector-curvature="0"
       transform="translate(-6.1035156e-5,0)" />
    <path
       style="fill:#d18827;fill-opacity:0.27564105;stroke:none;stroke-width:1;stroke-linecap:round;stroke-linejoin:round;stroke-miterlimit:4;stroke-dasharray:none;stroke-opacity:1"
       d="m 393.63423,939.24579 c -0.76304,-28.23577 -0.76328,-88.50074 -5.4e-4,-133.92217 l 1.38681,-82.58437 -12.42188,-8.00429 -12.42189,-8.00427 0.18371,-17.17259 c 0.27475,-25.68248 0.64356,-26.38266 17.03994,-32.34963 l 14.05574,-5.11517 1.28092,-14.09755 c 0.7045,-7.75367 1.56883,-30.81759 1.92071,-51.25318 l 0.63981,-37.15559 -27.17454,-20.0619 -27.17453,-20.06187 -1.31543,-10.46273 c -0.72348,-5.75452 -1.40533,-15.69028 -1.51522,-22.07949 l -0.19981,-11.61676 23.23351,0 23.23351,0 0,-48.32119 0,-48.32119 -23.23351,1.14424 -23.23351,1.14426 -0.004,-11.91699 c -0.002,-6.55434 1.43073,-44.87742 3.18454,-85.16243 l 3.18876,-73.24543 17.01851,-35.36342 17.01852,-35.36341 0,-63.622154 0,-63.6221486 38.6672,0 38.66721,0 -1.274,10.6066016 c -0.7007,5.833631 -1.28191,33.451759 -1.29157,61.373616 l -0.0176,50.767015 -11.38196,8.78112 -11.38196,8.78112 1.27439,17.95375 1.27439,17.95375 8.59234,7.62732 8.59235,7.62732 -0.38719,204.05954 -0.38719,204.05954 21.34338,8.80626 c 19.87643,8.20099 22.00632,9.63991 30.98865,20.93546 l 9.64526,12.1292 -7.8452,18.84771 c -6.53135,15.69125 -8.76189,25.00877 -13.31887,55.63643 l -5.47366,36.78875 -13.34909,10.50532 c -7.342,5.77792 -15.34645,12.36615 -17.78767,14.64049 l -4.43858,4.13516 0,102.95687 0,102.95685 -32.00661,0 -32.00662,0 -1.38735,-51.33777 z"
       id="path4308"
       inkscape:connector-curvature="0"
       transform="translate(-6.1035156e-5,0)" />
    <path
       style="fill:#d1e827;fill-opacity:0.16025642;stroke:none;stroke-width:1;stroke-linecap:round;stroke-linejoin:round;stroke-miterlimit:4;stroke-dasharray:none;stroke-opacity:1"
       d="m 463.15667,887.04292 0.0812,-103.54064 11.53551,-8.68688 c 24.11488,-18.15988 21.62599,-13.30791 27.67057,-53.94257 4.48752,-30.16734 6.75934,-39.63675 13.3291,-55.55839 4.35576,-10.5561 7.89984,-20.10204 7.87573,-21.21321 -0.0241,-1.11116 -4.79891,-7.83264 -10.61065,-14.9366 -10.01366,-12.24018 -11.66536,-13.34734 -31.55317,-21.15089 l -20.98636,-8.23459 1.35125,-58.65117 c 1.87603,-81.42918 1.99027,-300.21633 0.17145,-328.36188 l -1.50139,-23.23351 -7.5339,-6.06092 c -7.2737,-5.85157 -7.57945,-6.61915 -8.85232,-22.22335 l -1.31841,-16.16244 6.4914,-5.05077 c 17.79033,-13.84212 15.86951,-5.45403 17.23324,-75.256361 l 1.21372,-62.1243816 49.95602,0 49.95603,0 1.16991,10.6066016 c 0.64345,5.833631 1.77167,28.97347 2.50714,51.421864 l 1.33723,40.815257 -19.44695,21.28182 -19.44695,21.28182 -0.003,25.78619 c -0.002,14.18241 -0.60348,56.46958 -1.3371,93.97149 l -1.33386,68.1853 30.63153,0 30.63152,0 0,21.2132 0,21.2132 -14.05244,0 -14.05244,0 1.02103,301.53054 c 0.56156,165.84179 1.30426,303.57609 1.65044,306.07622 l 0.62943,4.54569 -52.24777,0 -52.24778,0 0.0812,-103.54064 z"
       id="path4310"
       inkscape:connector-curvature="0"
       transform="translate(-6.1035156e-5,0)" />
    <path
       style="fill:#79e827;fill-opacity:0.16025642;stroke:none;stroke-width:1;stroke-linecap:round;stroke-linejoin:round;stroke-miterlimit:4;stroke-dasharray:none;stroke-opacity:1"
       d="m 569.47323,853.87959 c -0.73807,-75.18717 -1.34194,-212.4669 -1.34194,-305.06607 l 0,-168.3621 13.13198,0 13.13198,0 0,-24.24366 0,-24.24366 -30.04112,0 -30.04112,0 0.79226,-69.19545 c 0.43575,-38.0575 1.317,-79.43901 1.95834,-91.95893 l 1.16608,-22.76347 18.82847,-20.82256 18.82847,-20.82256 -1.7793,-38.236322 C 573.12872,47.134831 572.2929,23.791809 572.24997,16.291427 l -0.0781,-13.6370596 57.47053,0 57.47053,0 -1.07669,110.6117026 -1.0767,110.6117 -13.96743,51.82835 c -12.70196,47.13262 -13.96743,53.58354 -13.96743,71.20096 l 0,19.37265 -21.04142,33.85488 -21.04143,33.85489 -1.43014,48.70853 -1.43014,48.70852 36.88017,28.06307 36.88017,28.06307 -1.27513,149.50258 c -0.70131,82.22641 -1.27579,172.91286 -1.27662,201.52543 l -10e-4,52.02286 -56.23676,0 -56.23675,0 -1.34194,-136.70397 z"
       id="path4312"
       inkscape:connector-curvature="0"
       transform="translate(-6.1035156e-5,0)" />
    <path
       style="fill:#79e8d9;fill-opacity:0.16025642;stroke:none;stroke-width:1;stroke-linecap:round;stroke-linejoin:round;stroke-miterlimit:4;stroke-dasharray:none;stroke-opacity:1"
       d="m 686.42185,844.61651 c 0.51169,-80.28187 1.33119,-171.17921 1.82112,-201.99408 l 0.89078,-56.02704 -36.25592,-27.81562 -36.25592,-27.81562 -0.002,-47.22362 -0.002,-47.2236 21.2132,-33.84215 21.21321,-33.84216 0,-18.59624 c 0,-16.67731 1.44626,-23.94776 14.01551,-70.45713 l 14.01551,-51.86087 1.44213,-112.632 1.44214,-112.6320126 57.99134,0 57.99135,0 1.28793,13.6370596 c 0.70837,7.500382 1.2944,23.727123 1.3023,36.059425 l 0.0144,22.422368 -22.72843,22.25814 c -12.50064,12.24198 -25.75811,24.89698 -29.46106,28.12222 l -6.73263,5.86408 3.22367,16.99386 c 1.77303,9.34661 3.43901,17.11912 3.70218,17.27222 0.26317,0.1531 9.87886,4.73153 21.36819,10.17428 l 20.88969,9.89591 -1.30603,59.66801 c -0.71832,32.81744 -2.15672,88.76043 -3.19645,124.3178 -1.03972,35.55737 -1.89742,75.17561 -1.90599,88.04053 l -0.0156,23.39079 14.84531,23.11983 14.8453,23.11984 1.40682,28.24068 1.40682,28.24067 -21.4951,21.2132 -21.49511,21.21321 1.22845,152.53303 c 0.67566,83.89317 1.7877,165.94281 2.47122,182.33254 l 1.24276,29.7995 -50.67506,0 -50.67505,0 0.93034,-145.96705 z"
       id="path4314"
       inkscape:connector-curvature="0"
       transform="translate(-6.1035156e-5,0)" />
    <path
       style="fill:#79e890;fill-opacity:0.16025642;stroke:none;stroke-width:1;stroke-linecap:round;stroke-linejoin:round;stroke-miterlimit:4;stroke-dasharray:none;stroke-opacity:1"
       d="m 788.34454,971.6891 c 0,-10.39195 -0.96593,-91.9152 -2.14651,-181.1628 l -2.14651,-162.26832 21.33941,-21.4058 21.33941,-21.40578 0,-28.37393 0,-28.37395 -16.31563,-25.51821 -16.31563,-25.51823 2.16069,-70.32361 c 1.18838,-38.67798 2.76621,-105.00926 3.50628,-147.40282 l 1.34559,-77.07922 -21.30804,-10.05097 -21.30803,-10.05096 -2.63505,-14.74486 -2.63506,-14.74486 28.67122,-27.8279 28.67122,-27.827895 0,-37.47731 0,-37.4773076 61.4071,0 61.4071,0 1.18058,8.5862966 c 0.64932,4.722463 1.78101,77.840266 2.51485,162.484006 l 1.33427,153.89771 -21.44147,24.89929 -21.44148,24.89929 -0.41425,30.30458 c -0.22784,16.66751 -0.43142,31.67074 -0.45241,33.34053 -0.021,1.66976 10.66054,17.2892 23.73671,34.70985 l 23.77487,31.6739 -2.16333,171.91786 c -1.18982,94.5548 -2.16332,203.25988 -2.16332,241.56685 l 0,69.64903 -74.75129,0 -74.75129,0 0,-18.89446 z"
       id="path4316"
       inkscape:connector-curvature="0"
       transform="translate(-6.1035156e-5,0)" />
    <path
       style="fill:#e6e890;fill-opacity:0.16025642;stroke:none;stroke-width:1;stroke-linecap:round;stroke-linejoin:round;stroke-miterlimit:4;stroke-dasharray:none;stroke-opacity:1"
       d="m 940.94598,840.5759 c 0.62843,-82.50421 2.00658,-191.28485 3.06256,-241.73477 l 1.91997,-91.72711 -24.24375,-32.3703 -24.24374,-32.37029 0.142,-29.44579 c 0.0781,-16.19517 0.75995,-30.97618 1.51522,-32.84668 0.75528,-1.87052 10.77066,-14.39635 22.2564,-27.83518 l 20.88317,-24.43424 -1.19756,-103.48465 C 940.38159,167.41032 939.31701,94.249949 938.67452,61.748291 l -1.16817,-59.0939236 63.49365,0 63.4937,0 1.3198,31.8198056 c 0.7258,17.500892 1.3227,77.591817 1.3264,133.535377 l 0.01,101.71557 -17.1372,25.10102 -17.1372,25.10102 -1.3483,38.93512 -1.3483,38.93511 17.4754,26.16526 17.4753,26.16527 0,91.09665 c 0,50.10316 -0.6044,171.70569 -1.3431,270.22783 l -1.3431,179.13116 -61.3183,0 -61.31841,0 1.14259,-150.00766 z"
       id="path4318"
       inkscape:connector-curvature="0"
       transform="translate(-6.1035156e-5,0)" />
    <path
       style="fill:#e6e8f4;fill-opacity:0.16025642;stroke:none;stroke-width:1;stroke-linecap:round;stroke-linejoin:round;stroke-miterlimit:4;stroke-dasharray:none;stroke-opacity:1"
       d="m 1066.2293,855.22312 c 0.5045,-74.44825 1.329,-196.14953 1.8322,-270.4473 l 0.9148,-135.08685 -18.0983,-26.85717 -18.0982,-26.85714 1.3428,-37.17261 1.3428,-37.1726 16.8265,-24.63217 16.8265,-24.63218 0.024,-134.85537 0.024,-134.8553626 68.6903,0 68.6904,0 0.1394,95.4594156 c 0.077,52.502677 0.857,109.096477 1.7341,125.763987 l 1.5946,30.30458 -21.6486,26.86349 -21.6487,26.86351 -1.2986,15.36265 c -2.6277,31.08562 -3.0915,29.37459 18.7222,69.0695 l 20.0207,36.43236 1.4904,280.90486 1.4903,280.90484 -70.9158,0 -70.9158,0 0.9174,-135.36044 z"
       id="path4320"
       inkscape:connector-curvature="0"
       transform="translate(-6.1035156e-5,0)" />
    <path
       style="fill:#e64bf4;fill-opacity:0.16025642;stroke:none;stroke-width:1;stroke-linecap:round;stroke-linejoin:round;stroke-miterlimit:4;stroke-dasharray:none;stroke-opacity:1"
       d="m 1210.4574,990.07848 c -0.072,-0.27779 -0.871,-126.94872 -1.7756,-281.49097 l -1.6446,-280.98589 -19.4377,-35.33487 -19.4376,-35.33487 0.052,-23.0905 0.052,-23.09049 22.3458,-27.27412 22.3457,-27.27411 -1.1554,-21.21321 c -0.6355,-11.66726 -1.7701,-68.71562 -2.5214,-126.77414 l -1.366,-105.5609426 71.3602,0 71.3601,0 -1.1626,57.0736186 c -0.6394,31.39049 -0.4438,77.036544 0.4348,101.435674 l 1.5973,44.36207 -12.2259,32.40953 -12.226,32.40953 10.8203,31.31473 c 9.4739,27.41851 12.2834,33.21038 22.5802,46.55046 l 11.7599,15.2357 0,24.83432 0,24.83432 -13.2513,19.40691 -13.2514,19.40693 3.4958,47.97109 3.4959,47.97107 -18.5288,22.83339 -18.5287,22.83339 0.1687,131.34807 0.1687,131.3481 21.0087,19.1929 21.0087,19.19289 0.045,25.25382 c 0.025,13.8896 0.6344,35.48161 1.3547,47.98224 l 1.3096,22.72844 -75.0599,0 c -41.283,0 -75.1189,-0.22729 -75.1909,-0.50508 z"
       id="path4322"
       inkscape:connector-curvature="0"
       transform="translate(-6.1035156e-5,0)" />
    <path
       style="fill:#e64b2f;fill-opacity:0.16025642;stroke:none;stroke-width:1;stroke-linecap:round;stroke-linejoin:round;stroke-miterlimit:4;stroke-dasharray:none;stroke-opacity:1"
       d="m 1361.3252,941.59116 -1.4057,-48.9924 -21.1275,-19.86344 -21.1275,-19.86344 0,-128.43376 0,-128.43376 19.0414,-23.53943 19.0415,-23.5394 -3.6682,-47.3665 -3.6682,-47.36648 12.6854,-19.19289 12.6854,-19.1929 1.2119,-26.1161 1.2118,-26.1161 -12.4141,-16.04735 c -10.9454,-14.14878 -13.6728,-19.65154 -23.0535,-46.51186 l -10.6394,-30.46455 11.6649,-30.63003 11.6649,-30.63004 -0.9942,-103.31818 -0.9941,-103.3181826 59.509,0 59.509,0 2.5511,40.8988276 c 1.4032,22.494356 2.9483,41.295984 3.4338,41.781394 0.4854,0.485411 11.0975,6.472965 23.5825,13.305673 l 22.7,12.423108 0.6143,11.73442 0.6142,11.73442 -23.314,38.9075 -23.314,38.9075 -2.9706,199.71457 c -1.6338,109.84302 -2.3286,219.95106 -1.5439,244.68452 l 1.4267,44.96995 -11.5824,18.66966 -11.5825,18.66966 -0.034,63.37196 -0.034,63.37198 14.1421,15.68757 14.1422,15.68757 0,46.70446 0,46.70445 -58.279,0 -58.279,0 -1.4057,-48.9924 z"
       id="path4324"
       inkscape:connector-curvature="0"
       transform="translate(-6.1035156e-5,0)" />
    <path
       style="fill:#554b2f;fill-opacity:0.16025642;stroke:none;stroke-width:1;stroke-linecap:round;stroke-linejoin:round;stroke-miterlimit:4;stroke-dasharray:none;stroke-opacity:1"
       d="m 1481.3092,942.4749 0,-48.10866 -14.1421,-15.34791 -14.1422,-15.34789 0,-60.69823 0,-60.69825 12.0061,-19.87431 12.0062,-19.87432 -1.2105,-54.90778 c -0.6658,-30.19927 -0.035,-140.09298 1.4026,-244.20823 l 2.613,-189.30047 22.9568,-38.16834 22.9568,-38.16835 -0.024,-14.52589 -0.024,-14.52589 -22.1904,-11.732626 c -12.2046,-6.452948 -22.9834,-13.271477 -23.9529,-15.152288 -0.9694,-1.880812 -2.3602,-13.874737 -3.0907,-26.653166 -0.7305,-12.77843 -1.885,-29.824754 -2.5657,-37.880721 l -1.2377,-14.6472116 42.7051,0 42.7051,0 0,493.9645926 0,493.9646 -38.3858,0 -38.3858,0 0,-48.10866 z"
       id="path4326"
       inkscape:connector-curvature="0"
       transform="translate(-6.1035156e-5,0)" />
  </g>
  <g
     inkscape:groupmode="layer"
     id="layer6"
     inkscape:label="clock"
     style="display:inline">
    <g
       inkscape:label="Layer 1"
       id="layer1-2"
       transform="matrix(7.7509843,0,0,7.7509843,531.496,248.03149)">
      <ellipse
         ry="32.000004"
         rx="32"
         cy="31.999996"
         cx="32"
         id="path4769"
         style="fill:#0363b8;fill-opacity:1;stroke:none;stroke-width:6.06699991;stroke-linecap:round;stroke-linejoin:round;stroke-miterlimit:4;stroke-dasharray:none;stroke-opacity:1" />
      <path
         inkscape:connector-curvature="0"
         id="path4771"
         d="m 32.0003,32.463249 0,-15.541358"
         style="fill:none;fill-rule:evenodd;stroke:#ffffff;stroke-width:0.77409524;stroke-linecap:round;stroke-linejoin:miter;stroke-miterlimit:4;stroke-dasharray:none;stroke-opacity:1" />
      <path
         style="fill:none;fill-rule:evenodd;stroke:#ffffff;stroke-width:0.72869879;stroke-linecap:round;stroke-linejoin:miter;stroke-miterlimit:4;stroke-dasharray:none;stroke-opacity:1"
         d="M 31.860806,32.840473 54.61858,43.159158"
         id="path4773"
         inkscape:connector-curvature="0" />
      <path
         sodipodi:nodetypes="cc"
         style="fill:none;fill-rule:evenodd;stroke:#ffffff;stroke-width:0.77634925;stroke-linecap:round;stroke-linejoin:miter;stroke-miterlimit:4;stroke-dasharray:none;stroke-opacity:1"
         d="m 32.000301,10.331577 0,-4.6631532"
         id="path4775"
         inkscape:connector-curvature="0" />
      <path
         inkscape:connector-curvature="0"
         id="path4777"
         d="m 32.0003,58.331576 0,-4.663153"
         style="fill:none;fill-rule:evenodd;stroke:#ffffff;stroke-width:0.77634925;stroke-linecap:round;stroke-linejoin:miter;stroke-miterlimit:4;stroke-dasharray:none;stroke-opacity:1"
         sodipodi:nodetypes="cc" />
      <path
         sodipodi:nodetypes="cc"
         style="fill:none;fill-rule:evenodd;stroke:#ffffff;stroke-width:0.77634925;stroke-linecap:round;stroke-linejoin:miter;stroke-miterlimit:4;stroke-dasharray:none;stroke-opacity:1"
         d="m 5.6684236,31.990964 4.6631524,0"
         id="path4779"
         inkscape:connector-curvature="0" />
      <path
         inkscape:connector-curvature="0"
         id="path4781"
         d="m 53.051587,31.990964 4.663153,0"
         style="fill:none;fill-rule:evenodd;stroke:#ffffff;stroke-width:0.77634925;stroke-linecap:round;stroke-linejoin:miter;stroke-miterlimit:4;stroke-dasharray:none;stroke-opacity:1"
         sodipodi:nodetypes="cc" />
      <circle
         r="26.460588"
         cy="32"
         cx="32"
         id="path4783"
         style="fill:none;fill-opacity:1;stroke:#ffffff;stroke-width:0.91328031;stroke-linecap:round;stroke-linejoin:round;stroke-miterlimit:4;stroke-dasharray:none;stroke-opacity:1" />
    </g>
  </g>
  <g
     inkscape:groupmode="layer"
     id="layer7"
     inkscape:label="title"
     style="display:none">
    <text
       xml:space="preserve"
       style="font-style:normal;font-weight:normal;font-size:39.97517014px;line-height:125%;font-family:sans-serif;letter-spacing:0px;word-spacing:0px;fill:#554b2f;fill-opacity:1;stroke:none;stroke-width:2.5;stroke-linecap:butt;stroke-linejoin:miter;stroke-miterlimit:4;stroke-dasharray:none;stroke-opacity:1"
       x="508.86066"
       y="157.48567"
       id="text4520"
       sodipodi:linespacing="125%"><tspan
         sodipodi:role="line"
         id="tspan4522"
         x="508.86066"
         y="157.48567"
         style="font-style:normal;font-variant:normal;font-weight:bold;font-stretch:normal;font-size:179.88827515px;font-family:'Courier New';-inkscape-font-specification:'Courier New';fill:#554b2f;fill-opacity:1;stroke:none;stroke-width:2.5;stroke-miterlimit:4;stroke-dasharray:none;stroke-opacity:1">world</tspan></text>
    <text
       sodipodi:linespacing="125%"
       id="text4545"
       y="925.91931"
       x="496.94318"
       style="font-style:normal;font-weight:normal;font-size:38.84506989px;line-height:125%;font-family:sans-serif;letter-spacing:0px;word-spacing:0px;fill:#000000;fill-opacity:1;stroke:none;stroke-width:1px;stroke-linecap:butt;stroke-linejoin:miter;stroke-opacity:1"
       xml:space="preserve"><tspan
         style="font-style:normal;font-variant:normal;font-weight:normal;font-stretch:normal;font-size:236.16921997px;font-family:'Courier New';-inkscape-font-specification:'Courier New'"
         y="925.91931"
         x="496.94318"
         id="tspan4547"
         sodipodi:role="line">time</tspan></text>
  </g>
</svg>
